<?xml version="1.0" standalone="no"?>
<!DOCTYPE svg PUBLIC "-//W3C//DTD SVG 20010904//EN"
 "http://www.w3.org/TR/2001/REC-SVG-20010904/DTD/svg10.dtd">
<svg version="1.0" xmlns="http://www.w3.org/2000/svg"
 width="928.000000pt" height="928.000000pt" viewBox="0 0 928.000000 928.000000"
 preserveAspectRatio="xMidYMid meet">
<metadata>
Created by potrace 1.11, written by Peter Selinger 2001-2013
</metadata>
<g transform="translate(0.000000,928.000000) scale(0.100000,-0.100000)"
fill="#000000" stroke="none">
<path d="M5054 8798 c-3 -4 -11 -5 -18 -2 -8 3 -17 0 -21 -5 -3 -6 -11 -9 -16
-5 -29 18 -349 -110 -472 -189 -32 -20 -61 -37 -66 -37 -5 0 -11 -3 -13 -8 -1
-4 -32 -27 -68 -51 -36 -24 -66 -48 -68 -53 -2 -4 -8 -8 -14 -8 -6 0 -20 -9
-32 -20 -11 -11 -50 -42 -85 -70 -56 -44 -149 -125 -229 -197 -14 -13 -32 -20
-45 -17 -12 2 -38 7 -57 10 -19 4 -39 9 -45 13 -5 3 -23 7 -40 8 -16 0 -30 2
-30 3 0 2 -9 4 -20 6 -177 28 -326 25 -393 -10 -48 -25 -653 -635 -708 -714
-9 -12 -27 -35 -41 -50 -25 -26 -25 -27 -4 -30 12 -2 21 -8 21 -13 0 -8 -50
-79 -70 -99 -3 -3 -33 -39 -67 -81 -88 -108 -182 -208 -495 -524 -327 -331
-389 -396 -658 -688 -138 -149 -314 -316 -440 -417 -55 -44 -79 -65 -211 -180
-107 -94 -391 -381 -467 -471 -76 -91 -135 -191 -126 -214 8 -19 51 -32 99
-30 59 4 136 16 164 26 13 5 26 7 29 5 2 -3 17 1 33 10 16 8 29 12 29 10 0 -3
18 1 40 9 22 8 41 14 43 14 3 0 8 1 127 41 52 17 103 33 113 35 35 8 62 16 82
25 39 17 318 107 388 126 4 1 9 3 12 4 3 1 8 3 13 4 56 15 101 28 117 36 11 4
34 12 50 16 17 4 35 8 40 10 6 2 21 5 34 8 13 3 49 13 80 22 31 9 65 18 76 20
11 1 20 3 20 4 0 1 7 3 15 5 8 2 60 16 115 30 55 14 109 28 120 29 11 2 20 4
20 6 0 1 9 3 20 5 32 5 79 15 97 21 10 3 30 7 45 10 16 3 42 9 58 14 17 4 48
12 70 16 22 4 47 9 55 11 8 2 26 5 40 8 14 2 70 14 125 25 55 12 110 23 122
25 11 2 29 6 40 9 10 3 32 8 48 11 35 6 60 11 95 19 14 3 36 8 50 10 14 3 82
16 151 30 69 14 141 27 160 30 19 2 52 9 74 14 22 6 58 13 80 17 23 3 52 8 65
11 14 3 36 7 50 10 244 46 349 66 370 69 53 11 77 15 130 25 30 6 66 12 80 15
14 3 39 8 55 11 17 4 41 8 55 9 14 2 36 6 50 10 22 5 56 12 150 30 23 4 133
26 205 40 17 4 40 8 52 10 12 2 34 6 50 9 15 4 42 8 58 11 17 3 57 11 90 19
33 8 74 17 90 19 17 3 168 35 336 71 168 36 318 67 332 70 15 2 31 7 36 10 5
3 24 8 42 10 19 3 75 15 124 26 50 12 101 23 115 25 14 2 25 4 25 5 0 1 11 4
25 7 39 7 55 11 55 13 0 2 17 6 60 14 17 3 45 10 64 16 19 5 38 7 42 4 5 -3 9
-1 9 4 0 5 6 9 13 10 24 2 62 9 77 15 8 3 32 9 54 12 21 3 41 7 45 10 4 2 18
6 32 9 21 4 44 9 129 30 8 2 134 34 279 70 146 37 276 68 290 71 14 3 37 7 51
10 138 27 180 35 208 40 17 3 47 8 65 11 17 3 43 8 57 9 14 2 39 6 55 9 49 10
98 18 130 23 17 2 53 8 80 13 28 5 64 12 80 14 17 2 50 8 75 12 25 4 50 8 55
9 6 1 12 3 15 4 3 2 14 4 25 5 20 3 116 18 125 21 3 0 32 5 65 10 33 5 62 9
65 10 3 1 25 5 50 9 25 5 56 10 70 13 71 13 126 21 130 18 3 -2 26 -6 50 -9
25 -4 57 -9 72 -12 38 -8 91 -15 108 -16 8 0 21 -5 28 -11 8 -6 12 -6 12 1 0
5 10 8 21 5 27 -7 10 -17 -46 -28 -22 -5 -44 -9 -50 -11 -15 -4 -357 -85 -378
-89 -10 -2 -26 -6 -35 -9 -9 -3 -28 -7 -42 -10 -14 -2 -43 -9 -65 -15 -22 -6
-51 -12 -65 -15 -14 -2 -25 -5 -25 -6 0 -1 -7 -3 -16 -5 -10 -1 -50 -11 -90
-20 -41 -9 -81 -18 -89 -20 -8 -2 -35 -8 -60 -15 -25 -7 -54 -14 -65 -16 -19
-3 -85 -17 -132 -29 -13 -3 -31 -7 -40 -9 -152 -35 -266 -63 -343 -82 -52 -13
-108 -26 -125 -29 -40 -7 -52 -9 -180 -40 -60 -15 -117 -28 -125 -30 -8 -2
-15 -4 -15 -5 0 -1 -11 -4 -25 -6 -23 -3 -76 -15 -127 -28 -13 -3 -33 -8 -45
-11 -13 -2 -72 -16 -133 -31 -60 -14 -117 -27 -126 -29 -9 -2 -33 -8 -53 -13
-20 -6 -36 -8 -36 -6 0 3 -8 0 -18 -5 -10 -5 -38 -12 -62 -16 -24 -4 -52 -11
-62 -16 -9 -5 -21 -8 -25 -7 -4 1 -35 -5 -68 -12 -33 -8 -64 -15 -70 -16 -5 0
-17 -3 -25 -7 -20 -7 -209 -51 -235 -54 -11 -1 -103 -23 -205 -48 -102 -25
-198 -48 -215 -51 -16 -3 -66 -14 -110 -25 -80 -21 -95 -24 -150 -35 -44 -9
-60 -12 -60 -14 0 -2 -32 -10 -60 -15 -11 -2 -69 -16 -130 -30 -60 -15 -119
-29 -130 -31 -37 -7 -59 -12 -165 -39 -58 -14 -116 -28 -130 -30 -14 -2 -122
-27 -240 -55 -118 -28 -224 -53 -235 -55 -58 -13 -72 -16 -94 -21 -13 -3 -32
-9 -41 -14 -10 -5 -19 -7 -22 -5 -3 3 -26 -1 -51 -9 -26 -8 -47 -12 -47 -10 0
2 -12 -1 -26 -7 -15 -5 -42 -12 -62 -15 -41 -7 -44 -7 -152 -34 -47 -12 -96
-24 -110 -26 -14 -3 -43 -10 -65 -16 -22 -6 -49 -12 -60 -13 -11 -1 -30 -5
-42 -9 -12 -4 -30 -9 -40 -11 -10 -2 -108 -25 -218 -50 -223 -53 -206 -49
-260 -60 -22 -4 -44 -10 -50 -13 -5 -3 -16 -7 -25 -8 -17 -2 -48 -9 -155 -34
-27 -7 -59 -14 -70 -15 -11 -2 -20 -4 -20 -5 0 -1 -11 -3 -25 -6 -14 -2 -70
-15 -125 -29 -55 -14 -170 -41 -255 -60 -85 -20 -166 -38 -180 -42 -14 -3 -29
-7 -35 -9 -5 -1 -53 -12 -105 -24 -52 -12 -103 -24 -112 -26 -10 -2 -26 -6
-35 -8 -10 -2 -79 -18 -153 -35 -145 -34 -171 -40 -182 -41 -4 -1 -38 -9 -75
-19 -38 -10 -75 -19 -83 -19 -8 0 -42 -8 -75 -17 -67 -19 -90 -25 -120 -29
-11 -2 -39 -9 -63 -15 -24 -7 -55 -14 -70 -16 -22 -4 -112 -24 -224 -51 -10
-2 -27 -6 -38 -8 -47 -11 -112 -74 -138 -135 -16 -38 -21 -175 -9 -261 3 -25
9 -63 12 -85 3 -22 7 -103 9 -180 4 -144 8 -167 35 -198 9 -12 11 -21 5 -25
-23 -16 -57 -76 -62 -110 -10 -60 -3 -264 10 -288 5 -9 9 -99 12 -254 2 -89
25 -160 52 -160 20 0 17 -18 -6 -32 -11 -7 -20 -18 -20 -25 0 -7 -4 -13 -10
-13 -25 0 -43 -76 -42 -180 0 -90 6 -175 12 -175 4 0 10 -108 13 -232 4 -134
14 -173 54 -196 11 -7 7 -16 -16 -43 -43 -49 -63 -92 -65 -139 -1 -22 -5 -45
-8 -51 -4 -6 -4 -14 -1 -18 4 -4 8 -28 9 -54 2 -26 5 -65 8 -87 13 -89 18
-156 21 -265 3 -139 7 -159 40 -187 18 -16 22 -24 12 -30 -26 -17 -67 -83 -76
-123 -9 -40 -6 -182 4 -245 9 -54 16 -138 19 -260 5 -158 14 -183 68 -204 34
-13 165 -5 228 14 30 9 62 17 70 17 14 1 294 74 450 118 36 10 106 29 155 43
50 14 151 41 225 62 74 20 143 39 153 40 9 2 21 6 25 9 5 3 20 7 35 10 15 4
39 8 54 12 15 3 30 7 35 10 10 6 7 5 197 48 85 19 172 37 195 40 22 4 52 8 66
11 14 2 43 7 65 10 22 3 54 8 70 10 31 5 214 40 250 49 11 2 52 12 90 21 84
20 103 25 132 31 12 2 34 9 48 14 14 5 25 8 25 5 0 -2 18 2 40 10 22 8 40 12
40 10 0 -3 12 0 28 6 15 6 34 12 42 14 8 2 60 15 115 30 55 14 107 28 115 30
8 2 47 13 86 24 39 11 84 23 100 26 24 4 68 16 149 39 6 1 28 7 50 11 55 12
55 12 58 14 1 2 13 4 27 7 14 2 68 14 120 25 52 11 106 22 120 24 14 2 25 4
25 5 0 2 20 6 60 13 17 3 41 8 55 11 14 3 36 8 50 10 14 3 216 43 450 91 234
48 434 87 445 88 11 0 25 4 30 8 6 4 28 9 50 12 22 3 60 10 85 16 25 5 61 13
80 16 19 3 42 8 50 10 16 4 59 13 100 20 14 2 36 7 50 10 54 12 127 26 159 31
18 2 36 6 40 9 4 2 22 7 39 10 90 15 97 16 223 44 52 11 110 23 129 26 19 3
42 8 50 10 8 2 32 6 54 10 21 3 41 7 45 9 3 3 26 7 51 11 25 4 47 8 50 10 3 2
23 6 45 10 22 4 45 8 50 9 45 12 63 16 85 20 14 2 55 11 91 20 37 8 78 17 90
20 13 3 33 7 44 10 66 15 203 48 220 53 11 2 27 6 35 8 8 1 22 5 30 7 18 7 96
28 119 33 9 2 79 20 156 40 77 20 151 38 165 41 14 2 32 7 40 10 8 3 26 8 40
10 14 3 43 10 65 16 22 6 47 12 55 13 8 2 35 8 60 14 25 6 56 14 70 17 14 2
57 11 95 20 39 9 79 17 90 19 11 2 70 12 130 24 120 22 181 32 235 36 19 2 35
4 35 5 0 2 36 6 115 15 30 3 82 10 115 15 33 5 87 12 120 15 103 11 118 13
188 24 37 6 79 13 95 15 63 9 111 18 170 33 35 8 68 16 75 17 100 21 133 46
154 114 9 31 18 66 20 77 3 21 14 377 16 545 1 93 -13 160 -35 160 -10 0 -7
37 6 90 15 62 18 97 22 290 3 113 6 250 8 305 2 83 -1 106 -17 135 -11 19 -24
38 -29 41 -6 4 -3 25 7 55 23 64 24 81 31 324 11 393 11 401 -16 446 -14 21
-23 44 -21 49 7 21 13 51 14 68 1 9 4 17 7 17 7 0 8 29 15 260 3 107 7 238 9
290 3 99 -6 154 -30 181 -10 11 -11 24 -4 47 5 18 9 35 9 37 1 3 1 6 2 8 6 17
9 85 14 252 3 110 7 248 9 306 3 88 0 112 -15 144 -11 22 -24 42 -30 46 -8 5
-6 26 6 75 18 67 24 201 12 254 -3 14 -6 28 -6 32 -2 17 -50 56 -91 75 -45 20
-80 34 -90 34 -3 1 -11 5 -17 11 -7 6 -13 8 -13 5 0 -3 -45 9 -99 28 -55 18
-102 31 -105 28 -3 -3 -12 0 -21 7 -8 7 -15 10 -15 7 0 -3 -21 0 -47 8 -27 8
-59 16 -73 18 -14 3 -44 10 -66 16 -23 6 -62 15 -85 20 -24 5 -84 19 -134 31
-49 11 -99 23 -110 25 -39 8 -67 14 -83 19 -9 3 -28 7 -42 10 -14 3 -34 7 -45
10 -83 19 -122 28 -136 31 -43 9 -161 39 -214 55 -33 10 -87 26 -120 35 -53
15 -118 36 -165 53 -8 3 -19 6 -25 7 -26 7 -227 76 -285 98 -36 14 -114 44
-175 67 -60 23 -125 48 -142 56 -18 8 -48 20 -65 28 -18 8 -89 38 -158 66 -69
28 -134 55 -145 60 -41 17 -187 61 -248 74 -18 4 -31 16 -38 34 -27 70 -72
153 -99 182 -17 18 -30 33 -30 35 0 1 24 10 53 20 73 23 206 89 246 122 79 66
165 159 176 192 3 12 11 21 16 21 5 0 8 3 7 8 0 4 3 16 7 27 30 72 42 112 40
127 -2 10 1 20 6 23 8 6 -9 55 -20 56 -3 0 -34 2 -67 5 -55 5 -64 3 -83 -17
-17 -18 -21 -36 -22 -91 -1 -37 -2 -71 -4 -75 -1 -5 -5 -21 -10 -38 -4 -16
-15 -38 -23 -47 -8 -10 -12 -18 -9 -18 9 0 -29 -45 -77 -91 -34 -33 -142 -97
-156 -92 -3 1 -9 -2 -15 -7 -9 -7 -36 -14 -96 -25 -15 -3 -31 1 -36 8 -10 12
-68 115 -87 154 -6 13 -14 23 -18 23 -5 0 -8 5 -8 10 0 16 -106 184 -161 256
-27 35 -49 68 -49 73 0 6 -12 18 -27 28 -16 10 -41 30 -58 45 -16 16 -38 31
-47 34 -10 3 -18 9 -18 13 0 18 -157 78 -231 87 -65 9 -220 10 -225 2z"/>
<path d="M5795 8451 c19 -33 35 -64 35 -70 0 -6 4 -11 9 -11 5 0 15 -15 22
-32 7 -18 19 -39 26 -46 7 -7 13 -19 13 -25 0 -7 9 -23 20 -37 l20 -25 -9 25
c-5 14 -8 27 -8 30 2 13 -79 170 -107 207 -47 63 -61 52 -21 -16z"/>
</g>
</svg>
