<svg xmlns="http://www.w3.org/2000/svg" xmlns:xlink="http://www.w3.org/1999/xlink" width="119" height="40" viewBox="0 0 119 40">
    <desc>
        Created using Figma
    </desc>
    <use fill="#A6A6A6" transform="translate(-.002) scale(.99445)" xlink:href="#a"/>
    <use transform="translate(.863 .875) scale(.99445)" xlink:href="#b"/>
    <g>
        <use fill="#FFF" transform="translate(9.913 13.892) scale(.99445)" xlink:href="#c"/>
        <use fill="#FFF" transform="translate(18.684 8.671) scale(.99445)" xlink:href="#d"/>
        <g>
            <use fill="#FFF" transform="translate(34.237 17.98) scale(.99445)" xlink:href="#e"/>
            <use fill="#FFF" transform="translate(46.37 21.231) scale(.99445)" xlink:href="#f"/>
            <use fill="#FFF" transform="translate(56.284 21.231) scale(.99445)" xlink:href="#g"/>
            <use fill="#FFF" transform="translate(69.42 17.77) scale(.99445)" xlink:href="#h"/>
            <use fill="#FFF" transform="translate(79.713 19.192) scale(.99445)" xlink:href="#i"/>
            <use fill="#FFF" transform="translate(85.58 21.211) scale(.99445)" xlink:href="#j"/>
            <use fill="#FFF" transform="translate(95.654 21.231) scale(.99445)" xlink:href="#k"/>
            <use fill="#FFF" transform="translate(100.656 21.211) scale(.99445)" xlink:href="#l"/>
        </g>
    </g>
    <g>
        <use fill="#FFF" transform="translate(35.47 8.671) scale(.99445)" xlink:href="#m"/>
        <use fill="#FFF" transform="translate(41.437 10.053) scale(.99445)" xlink:href="#n"/>
        <use fill="#FFF" transform="translate(46.31 10.133) scale(.99445)" xlink:href="#o"/>
        <use fill="#FFF" transform="translate(53.55 10.044) scale(.99445)" xlink:href="#p"/>
        <use fill="#FFF" transform="translate(58.76 8.393) scale(.99445)" xlink:href="#q"/>
        <use fill="#FFF" transform="translate(60.868 10.053) scale(.99445)" xlink:href="#r"/>
        <use fill="#FFF" transform="translate(66.03 10.053) scale(.99445)" xlink:href="#s"/>
        <use fill="#FFF" transform="translate(70.952 8.393) scale(.99445)" xlink:href="#t"/>
        <use fill="#FFF" transform="translate(78.778 10.053) scale(.99445)" xlink:href="#u"/>
        <use fill="#FFF" transform="translate(84.198 10.044) scale(.99445)" xlink:href="#v"/>
        <use fill="#FFF" transform="translate(91.398 9.02) scale(.99445)" xlink:href="#w"/>
        <use fill="#FFF" transform="translate(95.167 8.393) scale(.99445)" xlink:href="#x"/>
        <use fill="#FFF" transform="translate(100.15 10.053) scale(.99445)" xlink:href="#y"/>
    </g>
    <defs>
        <path id="a" d="M110.135 0H9.535c-.367 0-.73 0-1.095.002-.306.002-.61.008-.919.013C6.85.023 6.18.082 5.517.192a6.665 6.665 0 0 0-1.9.627A6.438 6.438 0 0 0 .193 5.522a12.993 12.993 0 0 0-.179 2.002c-.01.306-.01.614-.015.92V31.56c.005.31.006.611.015.922.008.67.068 1.34.18 2.002.11.663.32 1.305.624 1.904.303.598.701 1.143 1.179 1.614.473.477 1.019.875 1.618 1.179a6.7 6.7 0 0 0 1.901.63c.663.11 1.333.169 2.004.177.31.007.613.011.919.011.366.002.728.002 1.095.002h100.6c.359 0 .724 0 1.084-.002.304 0 .617-.004.922-.01a13.27 13.27 0 0 0 2-.177 6.805 6.805 0 0 0 1.908-.631A6.293 6.293 0 0 0 117.666 38a6.403 6.403 0 0 0 1.182-1.614c.302-.6.51-1.242.619-1.904.111-.662.173-1.331.185-2.002.004-.311.004-.612.004-.922.008-.364.008-.725.008-1.094V9.536c0-.366 0-.73-.008-1.092 0-.306 0-.614-.004-.92a13.57 13.57 0 0 0-.185-2.002 6.648 6.648 0 0 0-.619-1.904 6.469 6.469 0 0 0-2.799-2.8 6.77 6.77 0 0 0-1.908-.627c-.661-.11-1.33-.169-2-.176-.305-.005-.618-.011-.922-.013-.36-.002-.725-.002-1.084-.002z"/>
        <path id="b" d="M7.572 38.25c-.305 0-.602-.004-.904-.01a12.696 12.696 0 0 1-1.87-.164 5.884 5.884 0 0 1-1.656-.548 5.406 5.406 0 0 1-1.397-1.016 5.321 5.321 0 0 1-1.02-1.397 5.722 5.722 0 0 1-.544-1.657 12.414 12.414 0 0 1-.166-1.875C.008 31.373 0 30.67 0 30.67V7.57s.009-.692.015-.895A12.37 12.37 0 0 1 .18 4.803 5.756 5.756 0 0 1 .724 3.14c.26-.518.603-.99 1.015-1.398A5.565 5.565 0 0 1 4.794.176C5.414.075 6.042.02 6.67.012L7.572 0h102.769l.913.013a12.37 12.37 0 0 1 1.858.162 5.932 5.932 0 0 1 1.671.548 5.589 5.589 0 0 1 2.415 2.42 5.74 5.74 0 0 1 .535 1.649c.104.624.162 1.255.174 1.887.003.283.003.588.003.89.008.375.008.732.008 1.092V29.59c0 .363 0 .718-.008 1.075 0 .325 0 .623-.004.93-.011.62-.069 1.24-.171 1.853a5.716 5.716 0 0 1-.54 1.67 5.47 5.47 0 0 1-1.015 1.386 5.414 5.414 0 0 1-1.4 1.022 5.855 5.855 0 0 1-1.668.55c-.618.101-1.243.156-1.869.163-.293.007-.599.011-.897.011l-1.084.002-101.69-.002z"/>
        <path id="c" d="M14.797 6.328a4.95 4.95 0 0 1 2.357-4.152A5.066 5.066 0 0 0 13.163.018C11.483-.158 9.856 1.023 9 1.023c-.872 0-2.19-.988-3.609-.958A5.315 5.315 0 0 0 .918 2.792C-1.016 6.141.427 11.062 2.28 13.77c.926 1.325 2.01 2.805 3.427 2.753 1.387-.058 1.905-.885 3.58-.885 1.658 0 2.144.885 3.59.851 1.489-.024 2.427-1.33 3.321-2.669a10.962 10.962 0 0 0 1.519-3.092 4.781 4.781 0 0 1-2.92-4.4z"/>
        <path id="d" d="M3.247 3.49A4.873 4.873 0 0 0 4.36 0a4.957 4.957 0 0 0-3.207 1.66A4.636 4.636 0 0 0 .01 5.02a4.099 4.099 0 0 0 3.237-1.53z"/>
        <path id="e" d="M7.875 9.062H3.142l-1.137 3.356H0L4.483 0h2.083l4.484 12.418H9.01L7.876 9.062zm-4.243-1.55h3.752l-1.85-5.447h-.052l-1.85 5.448z"/>
        <path id="f" d="M8.528 4.624c0 2.813-1.506 4.62-3.778 4.62a3.07 3.07 0 0 1-2.849-1.583h-.043v4.484H0V.096h1.799v1.506h.034a3.212 3.212 0 0 1 2.883-1.6c2.298 0 3.812 1.816 3.812 4.622zm-1.91 0c0-1.833-.947-3.038-2.392-3.038-1.42 0-2.375 1.23-2.375 3.038 0 1.824.955 3.046 2.375 3.046 1.445 0 2.392-1.197 2.392-3.046z"/>
        <path id="g" d="M8.528 4.624c0 2.813-1.506 4.62-3.778 4.62a3.07 3.07 0 0 1-2.849-1.583h-.043v4.484H0V.096h1.799v1.506h.034a3.212 3.212 0 0 1 2.883-1.6c2.298 0 3.812 1.816 3.812 4.622zm-1.91 0c0-1.833-.947-3.038-2.392-3.038-1.42 0-2.375 1.23-2.375 3.038 0 1.824.955 3.046 2.375 3.046 1.445 0 2.392-1.197 2.392-3.046z"/>
        <path id="h" d="M1.902 9.165c.138 1.232 1.334 2.04 2.97 2.04 1.566 0 2.692-.809 2.692-1.919 0-.964-.68-1.54-2.289-1.936l-1.609-.388C1.386 6.412.327 5.345.327 3.614.327 1.472 2.194 0 4.846 0 7.47 0 9.269 1.472 9.329 3.614H7.453C7.341 2.375 6.316 1.627 4.82 1.627c-1.497 0-2.521.757-2.521 1.858 0 .878.654 1.395 2.255 1.79l1.368.336c2.548.603 3.606 1.626 3.606 3.443 0 2.323-1.85 3.778-4.794 3.778C1.98 12.832.12 11.412 0 9.165h1.902z"/>
        <path id="i" d="M3.184 0v2.143h1.721v1.471H3.184v4.991c0 .776.344 1.137 1.101 1.137.205-.003.409-.018.611-.043v1.463c-.34.064-.686.092-1.032.086-1.833 0-2.548-.688-2.548-2.444v-5.19H0V2.143h1.316V0h1.868z"/>
        <path id="j" d="M0 4.639C0 1.79 1.678 0 4.294 0c2.625 0 4.295 1.79 4.295 4.639 0 2.856-1.661 4.638-4.295 4.638C1.66 9.277 0 7.495 0 4.64zm6.695 0c0-1.954-.895-3.108-2.401-3.108-1.506 0-2.4 1.162-2.4 3.108 0 1.962.894 3.106 2.4 3.106 1.506 0 2.401-1.144 2.401-3.106z"/>
        <path id="k" d="M0 .096h1.772v1.541h.043A2.16 2.16 0 0 1 3.993.002c.214-.001.428.022.637.069v1.738a2.598 2.598 0 0 0-.835-.112A1.873 1.873 0 0 0 1.858 3.78v5.37H0V.096z"/>
        <path id="l" d="M8.167 6.506c-.25 1.643-1.85 2.771-3.898 2.771C1.635 9.277 0 7.513 0 4.682 0 1.842 1.644 0 4.19 0c2.505 0 4.08 1.72 4.08 4.466v.637H1.877v.112a2.358 2.358 0 0 0 2.436 2.564 2.048 2.048 0 0 0 2.09-1.273h1.765zM1.885 3.804H6.41a2.177 2.177 0 0 0-2.22-2.298 2.292 2.292 0 0 0-2.306 2.298z"/>
        <path id="m" d="M2.155.007a2.64 2.64 0 0 1 2.808 2.965c0 1.906-1.03 3.002-2.808 3.002H0V.007h2.155zM.927 5.13h1.125A1.876 1.876 0 0 0 4.02 2.984 1.88 1.88 0 0 0 2.052.85H.927v4.28z"/>
        <path id="n" d="M.01 2.336a2.133 2.133 0 1 1 4.247 0 2.134 2.134 0 1 1-4.247 0zm3.333 0C3.343 1.36 2.905.79 2.135.79 1.363.79.928 1.36.928 2.336c0 .984.435 1.55 1.207 1.55.77 0 1.208-.57 1.208-1.55z"/>
        <path id="o" d="M5.004 4.503h-.922l-.93-3.316h-.07l-.928 3.316h-.913L0 0h.901l.807 3.436h.066L2.7 0h.853l.926 3.436h.07L5.352 0h.888L5.004 4.503z"/>
        <path id="p" d="M0 .091h.855v.716h.067A1.348 1.348 0 0 1 2.266.004 1.465 1.465 0 0 1 3.824 1.68v2.915h-.888V1.902C2.936 1.18 2.62.82 1.964.82A1.033 1.033 0 0 0 .889 1.96v2.634H0V.091z"/>
        <path id="q" d="M0 0h.889v6.26H0V0z"/>
        <path id="r" d="M.01 2.336a2.133 2.133 0 1 1 4.248 0 2.134 2.134 0 1 1-4.248 0zm3.333 0C3.343 1.36 2.905.79 2.135.79 1.363.79.928 1.36.928 2.336c0 .984.435 1.55 1.207 1.55.77 0 1.208-.57 1.208-1.55z"/>
        <path id="s" d="M0 3.316c0-.81.604-1.277 1.675-1.344l1.22-.07v-.389c0-.475-.315-.744-.922-.744-.496 0-.84.182-.939.5h-.86C.264.497.992 0 2.014 0c1.129 0 1.765.562 1.765 1.513V4.59h-.855v-.633h-.07a1.515 1.515 0 0 1-1.353.707A1.36 1.36 0 0 1 0 3.316zm2.895-.384v-.377l-1.1.07c-.62.042-.901.253-.901.65 0 .405.351.641.835.641a1.061 1.061 0 0 0 1.166-.984z"/>
        <path id="t" d="M0 4.007c0-1.423.731-2.324 1.87-2.324a1.484 1.484 0 0 1 1.38.79h.066V0h.89v6.26h-.852v-.71h-.07a1.563 1.563 0 0 1-1.415.785C.724 6.335 0 5.434 0 4.007zm.918 0c0 .955.45 1.53 1.203 1.53.75 0 1.212-.583 1.212-1.526 0-.938-.468-1.53-1.212-1.53-.748 0-1.203.58-1.203 1.526z"/>
        <path id="u" d="M.01 2.336a2.133 2.133 0 1 1 4.247 0 2.134 2.134 0 1 1-4.247 0zm3.333 0C3.343 1.36 2.905.79 2.135.79 1.363.79.928 1.36.928 2.336c0 .984.435 1.55 1.207 1.55.77 0 1.208-.57 1.208-1.55z"/>
        <path id="v" d="M0 .091h.855v.716h.067A1.348 1.348 0 0 1 2.266.004 1.465 1.465 0 0 1 3.824 1.68v2.915h-.888V1.902C2.936 1.18 2.62.82 1.964.82A1.033 1.033 0 0 0 .889 1.96v2.634H0V.091z"/>
        <path id="w" d="M1.604 0v1.142h.976v.748h-.976v2.316c0 .471.195.678.637.678.113 0 .227-.007.34-.02v.74c-.16.028-.322.043-.484.045-.989 0-1.382-.348-1.382-1.216V1.89H0v-.748h.715V0h.89z"/>
        <path id="x" d="M0 0h.88v2.481h.071a1.386 1.386 0 0 1 1.373-.806 1.483 1.483 0 0 1 1.551 1.679V6.26h-.89V3.573c0-.72-.335-1.084-.962-1.084A1.052 1.052 0 0 0 .889 3.631v2.63H0V0z"/>
        <path id="y" d="M4.05 3.374A1.828 1.828 0 0 1 2.1 4.677 2.045 2.045 0 0 1 .02 2.353 2.077 2.077 0 0 1 2.094 0c1.253 0 2.01.856 2.01 2.27v.31H.924v.05a1.19 1.19 0 0 0 1.199 1.29 1.08 1.08 0 0 0 1.071-.546h.855zM.924 1.923H3.2A1.086 1.086 0 0 0 2.09.756 1.152 1.152 0 0 0 .924 1.923z"/>
    </defs>
</svg>
