<svg xmlns="http://www.w3.org/2000/svg" xmlns:xlink="http://www.w3.org/1999/xlink" width="78" height="42" viewBox="0 0 78 42">
    <desc>
        Created using Figma
    </desc>
    <use fill="#FF949A" transform="translate(-1)" xlink:href="#a"/>
    <use fill="#FF949A" transform="translate(53.78 19)" xlink:href="#b"/>
    <defs>
        <path id="a" d="M10.872 31.12c-1.904 0-3.56-.344-4.968-1.032-1.408-.704-2.488-1.696-3.24-2.976-.752-1.28-1.128-2.768-1.128-4.464 0-2.352.44-4.44 1.32-6.264.896-1.824 2.104-3.232 3.624-4.224 1.52-1.008 3.208-1.512 5.064-1.512 1.728 0 3.04.448 3.936 1.344.896.88 1.344 2.048 1.344 3.504 0 .976-.176 1.76-.528 2.352-.336.592-.824.888-1.464.888-.448 0-.8-.104-1.056-.312-.256-.208-.384-.512-.384-.912 0-.144.032-.408.096-.792.096-.48.144-.864.144-1.152 0-1.456-.776-2.184-2.328-2.184-1.056 0-2.064.344-3.024 1.032-.96.688-1.736 1.704-2.328 3.048-.592 1.328-.888 2.912-.888 4.752 0 1.92.536 3.408 1.608 4.464 1.072 1.04 2.656 1.56 4.752 1.56 1.04 0 2.088-.128 3.144-.384 1.072-.272 2.256-.68 3.552-1.224.24-.096.44-.144.6-.144.256 0 .448.096.576.288.128.192.192.44.192.744 0 .976-.528 1.696-1.584 2.16-1.136.496-2.32.864-3.552 1.104a19.225 19.225 0 0 1-3.48.336zm9.685 0c-.992 0-1.784-.36-2.376-1.08-.592-.72-.888-1.664-.888-2.832 0-1.28.296-2.488.888-3.624.592-1.152 1.376-2.072 2.352-2.76.992-.704 2.04-1.056 3.144-1.056.352 0 .584.072.696.216.128.128.232.368.312.72a5.635 5.635 0 0 1 1.056-.096c.784 0 1.176.28 1.176.84 0 .336-.12 1.136-.36 2.4-.368 1.84-.552 3.12-.552 3.84 0 .24.056.432.168.576a.616.616 0 0 0 .48.216c.304 0 .672-.192 1.104-.576.432-.4 1.016-1.04 1.752-1.92.192-.224.408-.336.648-.336.208 0 .368.096.48.288.128.192.192.456.192.792 0 .64-.152 1.136-.456 1.488a12.09 12.09 0 0 1-2.088 2.064c-.736.56-1.448.84-2.136.84-.528 0-1.016-.176-1.464-.528-.432-.368-.76-.864-.984-1.488-.832 1.344-1.88 2.016-3.144 2.016zm.864-2.424c.352 0 .688-.208 1.008-.624.32-.416.552-.968.696-1.656L24.013 22c-.672.016-1.296.272-1.872.768-.56.48-1.008 1.12-1.344 1.92a6.503 6.503 0 0 0-.504 2.544c0 .496.096.864.288 1.104.208.24.488.36.84.36zm21.33-3.048c.208 0 .368.096.48.288.128.192.192.456.192.792 0 .64-.152 1.136-.456 1.488-.72.88-1.448 1.584-2.184 2.112-.736.528-1.608.792-2.616.792-1.232 0-2.224-.352-2.976-1.056-.752-.704-1.128-1.64-1.128-2.808 0-.624.32-1.072.96-1.344.704-.304 1.208-.624 1.512-.96a1.88 1.88 0 0 0 .456-1.272c0-.288-.064-.504-.192-.648a.523.523 0 0 0-.432-.216c-.432 0-.912.312-1.44.936-.512.624-.992 1.432-1.44 2.424-.448.976-.8 1.984-1.056 3.024-.176.752-.384 1.264-.624 1.536-.224.256-.584.384-1.08.384-.496 0-.864-.176-1.104-.528-.224-.368-.376-.928-.456-1.68-.08-.752-.12-1.856-.12-3.312 0-2.464.248-5.032.744-7.704.512-2.672 1.256-4.912 2.232-6.72.992-1.824 2.176-2.736 3.552-2.736.736 0 1.328.32 1.776.96.464.624.696 1.44.696 2.448 0 1.616-.472 3.296-1.416 5.04-.944 1.728-2.48 3.752-4.608 6.072a44.6 44.6 0 0 0-.072 2.568c.768-2 1.648-3.448 2.64-4.344.992-.912 1.92-1.368 2.784-1.368.8 0 1.44.272 1.92.816.496.544.744 1.216.744 2.016 0 .88-.224 1.688-.672 2.424-.448.736-1.216 1.392-2.304 1.968.064.432.256.784.576 1.056.336.256.736.384 1.2.384.496 0 .976-.192 1.44-.576.464-.384 1.072-1.024 1.824-1.92.192-.224.408-.336.648-.336zm-7.68-14.832c-.288 0-.608.416-.96 1.248-.352.816-.696 1.928-1.032 3.336a46.282 46.282 0 0 0-.792 4.56 16.845 16.845 0 0 0 2.448-3.816c.656-1.376.984-2.624.984-3.744 0-.512-.056-.904-.168-1.176-.112-.272-.272-.408-.48-.408zM50.08 26.368c.208 0 .368.096.48.288.128.192.192.456.192.792 0 .576-.136 1.072-.408 1.488a4.649 4.649 0 0 1-1.776 1.608c-.72.384-1.584.576-2.592.576-1.536 0-2.728-.456-3.576-1.368-.848-.928-1.272-2.176-1.272-3.744a6.87 6.87 0 0 1 .696-3.072c.464-.96 1.104-1.72 1.92-2.28.832-.56 1.768-.84 2.808-.84.928 0 1.672.28 2.232.84.56.544.84 1.288.84 2.232 0 1.104-.4 2.056-1.2 2.856-.784.784-2.128 1.408-4.032 1.872.384.736 1.032 1.104 1.944 1.104.656 0 1.192-.152 1.608-.456.432-.304.928-.816 1.488-1.536.192-.24.408-.36.648-.36zm-3.936-4.2c-.592 0-1.096.344-1.512 1.032-.4.688-.6 1.52-.6 2.496v.048c.944-.224 1.688-.56 2.232-1.008.544-.448.816-.968.816-1.56 0-.304-.088-.544-.264-.72-.16-.192-.384-.288-.672-.288z"/>
        <path id="b" d="M3.177 5.652h1.188l1.908 5.244 1.896-5.244h1.128L6.825 12H5.66L3.177 5.652zm10.425-2.1c1.128 0 1.996.368 2.604 1.104.608.728.912 1.776.912 3.144s-.304 2.42-.912 3.156c-.608.736-1.476 1.104-2.604 1.104-1.136 0-2.008-.368-2.616-1.104-.6-.736-.9-1.788-.9-3.156s.3-2.416.9-3.144c.608-.736 1.48-1.104 2.616-1.104zm0 .912c-1.552 0-2.328 1.112-2.328 3.336 0 1.104.196 1.936.588 2.496.392.56.972.84 1.74.84s1.348-.28 1.74-.84c.392-.56.588-1.392.588-2.496 0-2.224-.776-3.336-2.328-3.336zm5.435 6.264c.184 0 .336.064.456.192a.666.666 0 0 1 .192.492c0 .2-.064.368-.192.504a.598.598 0 0 1-.456.192.637.637 0 0 1-.468-.192.707.707 0 0 1-.192-.504c0-.2.064-.364.192-.492a.637.637 0 0 1 .468-.192zM20.345 3.6h3.06V12h-1.152V4.644h-1.908V3.6z"/>
    </defs>
</svg>
