<svg xmlns="http://www.w3.org/2000/svg" xmlns:xlink="http://www.w3.org/1999/xlink" width="29" height="28" viewBox="0 0 29 28">
    <desc>
        Created using Figma
    </desc>
    <use fill="#F2D385" transform="translate(.066 19.023) scale(.96552)" xlink:href="#a"/>
    <use fill="#EBBC59" transform="translate(.162 18.907) scale(.96552)" xlink:href="#b"/>
    <use fill="#F6E1AC" opacity=".5" transform="translate(.066 25.202) scale(.96552)" xlink:href="#c"/>
    <use fill="#FCF7F0" transform="translate(.066 16.377) scale(.96552)" xlink:href="#d"/>
    <use fill="#EDE6D3" transform="translate(.162 16.261) scale(.96552)" xlink:href="#e"/>
    <use fill="#9E6444" opacity=".5" transform="translate(.066 22.557) scale(.96552)" xlink:href="#f"/>
    <use fill="#EFDBD3" transform="translate(17.04 19.969) scale(.96552)" xlink:href="#g"/>
    <use fill="#EFDBD3" transform="translate(3.773 22.817) scale(.96552)" xlink:href="#h"/>
    <use fill="#EFDBD3" transform="translate(7.819 21.427) scale(.96552)" xlink:href="#i"/>
    <use fill="#EFDBD3" transform="translate(12.637 21.08) scale(.96552)" xlink:href="#j"/>
    <use fill="#EFDBD3" transform="translate(19.077 19.129) scale(.96552)" xlink:href="#k"/>
    <use fill="#EFDBD3" transform="translate(25.208 17.372) scale(.96552)" xlink:href="#l"/>
    <use fill="#EFDBD3" transform="translate(5.675 22.981) scale(.96552)" xlink:href="#m"/>
    <use fill="#EFDBD3" transform="translate(23.798 18.154) scale(.96552)" xlink:href="#n"/>
    <use fill="#EFDBD3" transform="translate(25.353 18.82) scale(.96552)" xlink:href="#o"/>
    <use fill="#EFDBD3" transform="translate(10.822 21.678) scale(.96552)" xlink:href="#p"/>
    <use fill="#EFDBD3" transform="translate(17.146 19.235) scale(.96552)" xlink:href="#q"/>
    <use fill="#EFDBD3" transform="translate(7.114 21.948) scale(.96552)" xlink:href="#r"/>
    <use fill="#EFDBD3" transform="translate(.973 23.541) scale(.96552)" xlink:href="#s"/>
    <use fill="#EFDBD3" transform="translate(2.866 23.445) scale(.96552)" xlink:href="#t"/>
    <use fill="#EFDBD3" transform="translate(26.135 18.366) scale(.96552)" xlink:href="#u"/>
    <use fill="#EFDBD3" transform="translate(14.298 19.689) scale(.96552)" xlink:href="#v"/>
    <use fill="#EFDBD3" transform="translate(9.364 20.693) scale(.96552)" xlink:href="#w"/>
    <use fill="#EFDBD3" transform="translate(22.36 18.579) scale(.96552)" xlink:href="#x"/>
    <g>
        <use fill="#F2D385" transform="translate(.066 13.712) scale(.96552)" xlink:href="#y"/>
        <use fill="#EBBC59" transform="translate(.162 13.596) scale(.96552)" xlink:href="#z"/>
        <use fill="#F6E1AC" opacity=".5" transform="translate(.066 19.882) scale(.96552)" xlink:href="#A"/>
    </g>
    <g>
        <use fill="#FCF7F0" transform="translate(.066 11.047) scale(.96552)" xlink:href="#B"/>
        <use fill="#EDE6D3" transform="translate(.162 10.922) scale(.96552)" xlink:href="#C"/>
        <use fill="#9E6444" opacity=".5" transform="translate(.066 17.217) scale(.96552)" xlink:href="#D"/>
    </g>
    <g>
        <use fill="#EFDBD3" transform="translate(25.015 13.008) scale(.96552)" xlink:href="#E"/>
        <use fill="#EFDBD3" transform="translate(5.714 16.84) scale(.96552)" xlink:href="#F"/>
        <use fill="#EFDBD3" transform="translate(16.576 14.446) scale(.96552)" xlink:href="#G"/>
        <use fill="#EFDBD3" transform="translate(17.725 14.456) scale(.96552)" xlink:href="#H"/>
        <use fill="#EFDBD3" transform="translate(11.372 15.952) scale(.96552)" xlink:href="#I"/>
        <use fill="#EFDBD3" transform="translate(13.844 15.257) scale(.96552)" xlink:href="#J"/>
        <use fill="#EFDBD3" transform="translate(1.437 17.874) scale(.96552)" xlink:href="#K"/>
        <use fill="#EFDBD3" transform="translate(26.685 12.785) scale(.96552)" xlink:href="#L"/>
        <use fill="#EFDBD3" transform="translate(9.373 15.701) scale(.96552)" xlink:href="#M"/>
        <use fill="#EFDBD3" transform="translate(25.247 12.1) scale(.96552)" xlink:href="#N"/>
        <use fill="#EFDBD3" transform="translate(21.278 13.181) scale(.96552)" xlink:href="#O"/>
        <use fill="#EFDBD3" transform="translate(12.994 14.794) scale(.96552)" xlink:href="#P"/>
        <use fill="#EFDBD3" transform="translate(18.604 14.292) scale(.96552)" xlink:href="#Q"/>
        <use fill="#EFDBD3" transform="translate(20.458 13.133) scale(.96552)" xlink:href="#R"/>
        <use fill="#EFDBD3" transform="translate(10.986 16.454) scale(.96552)" xlink:href="#S"/>
        <use fill="#EFDBD3" transform="translate(28.201 12.187) scale(.96552)" xlink:href="#T"/>
        <use fill="#EFDBD3" transform="translate(2.788 18.405) scale(.96552)" xlink:href="#U"/>
        <use fill="#EFDBD3" transform="translate(2.982 17.352) scale(.96552)" xlink:href="#V"/>
    </g>
    <g>
        <use fill="#F2D385" transform="translate(.066 8.47) scale(.96552)" xlink:href="#W"/>
        <use fill="#EBBC59" transform="translate(.153 8.354) scale(.96552)" xlink:href="#X"/>
        <use fill="#F6E1AC" opacity=".5" transform="translate(.066 14.64) scale(.96552)" xlink:href="#Y"/>
    </g>
    <g>
        <use fill="#EBBC59" transform="translate(9.093 19.187) scale(.96552)" xlink:href="#Z"/>
        <use fill="#EBBC59" transform="translate(15.949 17.179) scale(.96552)" xlink:href="#aa"/>
        <use fill="#EBBC59" transform="translate(23.325 15.663) scale(.96552)" xlink:href="#ab"/>
        <use fill="#EBBC59" transform="translate(24.522 15.73) scale(.96552)" xlink:href="#ac"/>
        <use fill="#EBBC59" transform="translate(19.453 15.836) scale(.96552)" xlink:href="#ad"/>
        <use fill="#EBBC59" transform="translate(18.884 16.763) scale(.96552)" xlink:href="#ae"/>
        <use fill="#EBBC59" transform="translate(26.695 15.585) scale(.96552)" xlink:href="#af"/>
        <use fill="#EBBC59" transform="translate(21.983 17.043) scale(.96552)" xlink:href="#ag"/>
        <use fill="#EBBC59" transform="translate(14.751 17.014) scale(.96552)" xlink:href="#ah"/>
        <use fill="#EBBC59" transform="translate(7.742 18.501) scale(.96552)" xlink:href="#ai"/>
        <use fill="#EBBC59" transform="translate(13.766 18.781) scale(.96552)" xlink:href="#aj"/>
        <use fill="#EBBC59" transform="translate(10.271 19.621) scale(.96552)" xlink:href="#ak"/>
        <use fill="#EBBC59" transform="translate(11.15 17.864) scale(.96552)" xlink:href="#al"/>
        <use fill="#EBBC59" transform="translate(13.824 17.314) scale(.96552)" xlink:href="#am"/>
        <use fill="#EBBC59" transform="translate(26.589 14.398) scale(.96552)" xlink:href="#an"/>
        <use fill="#EBBC59" transform="translate(3.223 19.94) scale(.96552)" xlink:href="#ao"/>
        <use fill="#EBBC59" transform="translate(1.302 21.07) scale(.96552)" xlink:href="#ap"/>
        <use fill="#EBBC59" transform="translate(4.034 20.259) scale(.96552)" xlink:href="#aq"/>
    </g>
    <g>
        <use fill="#FFC406" transform="translate(-.002 2.88) scale(.96552)" xlink:href="#ar"/>
        <use fill="#FEDB3E" transform="translate(.172 3.082) scale(.96552)" xlink:href="#as"/>
        <use fill="#FFFF9C" transform="translate(.22 7.678) scale(.96552)" xlink:href="#at"/>
        <use fill="#FEE678" transform="translate(6.11 3.893) scale(.96552)" xlink:href="#au"/>
        <use fill="#FEE678" transform="translate(1.91 6.307) scale(.96552)" xlink:href="#av"/>
    </g>
    <g>
        <use fill="#EBBC59" transform="translate(8.977 14.031) scale(.96552)" xlink:href="#aw"/>
        <use fill="#EBBC59" transform="translate(25.015 10.96) scale(.96552)" xlink:href="#ax"/>
        <use fill="#EBBC59" transform="translate(26.27 10.893) scale(.96552)" xlink:href="#ay"/>
        <use fill="#EBBC59" transform="translate(13.882 13.664) scale(.96552)" xlink:href="#az"/>
        <use fill="#EBBC59" transform="translate(14.915 12.36) scale(.96552)" xlink:href="#aA"/>
        <use fill="#EBBC59" transform="translate(7.24 14.06) scale(.96552)" xlink:href="#aB"/>
        <use fill="#EBBC59" transform="translate(14.616 13.017) scale(.96552)" xlink:href="#aC"/>
        <use fill="#EBBC59" transform="translate(21.722 11.82) scale(.96552)" xlink:href="#aD"/>
        <use fill="#EBBC59" transform="translate(7.037 14.63) scale(.96552)" xlink:href="#aE"/>
        <use fill="#EBBC59" transform="translate(26.328 9.55) scale(.96552)" xlink:href="#aF"/>
        <use fill="#EBBC59" transform="translate(22.794 10.39) scale(.96552)" xlink:href="#aG"/>
        <use fill="#EBBC59" transform="translate(23.373 11.482) scale(.96552)" xlink:href="#aH"/>
        <use fill="#EBBC59" transform="translate(7.616 13.568) scale(.96552)" xlink:href="#aI"/>
        <use fill="#EBBC59" transform="translate(6.284 13.819) scale(.96552)" xlink:href="#aJ"/>
        <use fill="#EBBC59" transform="translate(9.76 13.355) scale(.96552)" xlink:href="#aK"/>
        <use fill="#EBBC59" transform="translate(17.426 12.689) scale(.96552)" xlink:href="#aL"/>
        <use fill="#EBBC59" transform="translate(12.25 12.834) scale(.96552)" xlink:href="#aM"/>
        <use fill="#EBBC59" transform="translate(1.794 15.132) scale(.96552)" xlink:href="#aN"/>
        <use fill="#EBBC59" transform="translate(17.831 11.472) scale(.96552)" xlink:href="#aO"/>
        <use fill="#EBBC59" transform="translate(.79 16.28) scale(.96552)" xlink:href="#aP"/>
        <use fill="#EBBC59" transform="translate(4.922 15.17) scale(.96552)" xlink:href="#aQ"/>
        <use fill="#EBBC59" transform="translate(3.377 14.572) scale(.96552)" xlink:href="#aR"/>
    </g>
    <g>
        <use fill="#EBBC59" transform="translate(8.977 24.41) scale(.96552)" xlink:href="#aS"/>
        <use fill="#EBBC59" transform="translate(25.015 21.34) scale(.96552)" xlink:href="#aT"/>
        <use fill="#EBBC59" transform="translate(26.27 21.272) scale(.96552)" xlink:href="#aU"/>
        <use fill="#EBBC59" transform="translate(13.882 24.043) scale(.96552)" xlink:href="#aV"/>
        <use fill="#EBBC59" transform="translate(14.915 22.74) scale(.96552)" xlink:href="#aW"/>
        <use fill="#EBBC59" transform="translate(7.24 24.44) scale(.96552)" xlink:href="#aX"/>
        <use fill="#EBBC59" transform="translate(14.616 23.397) scale(.96552)" xlink:href="#aY"/>
        <use fill="#EBBC59" transform="translate(21.722 22.2) scale(.96552)" xlink:href="#aZ"/>
        <use fill="#EBBC59" transform="translate(7.037 25.009) scale(.96552)" xlink:href="#ba"/>
        <use fill="#EBBC59" transform="translate(27.65 20.307) scale(.96552)" xlink:href="#bb"/>
        <use fill="#EBBC59" transform="translate(22.794 20.77) scale(.96552)" xlink:href="#bc"/>
        <use fill="#EBBC59" transform="translate(23.373 21.861) scale(.96552)" xlink:href="#bd"/>
        <use fill="#EBBC59" transform="translate(7.616 23.947) scale(.96552)" xlink:href="#be"/>
        <use fill="#EBBC59" transform="translate(6.284 24.198) scale(.96552)" xlink:href="#bf"/>
        <use fill="#EBBC59" transform="translate(9.76 23.734) scale(.96552)" xlink:href="#bg"/>
        <use fill="#EBBC59" transform="translate(17.426 23.068) scale(.96552)" xlink:href="#bh"/>
        <use fill="#EBBC59" transform="translate(12.25 23.213) scale(.96552)" xlink:href="#bi"/>
        <use fill="#EBBC59" transform="translate(1.794 25.511) scale(.96552)" xlink:href="#bj"/>
        <use fill="#EBBC59" transform="translate(19.53 22.035) scale(.96552)" xlink:href="#bk"/>
        <use fill="#EBBC59" transform="translate(.79 26.66) scale(.96552)" xlink:href="#bl"/>
        <use fill="#EBBC59" transform="translate(4.922 25.55) scale(.96552)" xlink:href="#bm"/>
        <use fill="#EBBC59" transform="translate(3.522 25.704) scale(.96552)" xlink:href="#bn"/>
    </g>
    <g>
        <use fill="#FF4D66" transform="translate(10.532 .987) scale(.96552)" xlink:href="#bo"/>
        <use fill="#EB3955" transform="translate(15.591 4.887) scale(.96552)" xlink:href="#bp"/>
        <use fill="#EB3955" transform="translate(15.012 3.574) scale(.96552)" xlink:href="#bq"/>
        <use fill="#EB3955" transform="translate(14.53 2.3) scale(.96552)" xlink:href="#br"/>
        <use fill="#EB3955" transform="translate(16.373 3.516) scale(.96552)" xlink:href="#bs"/>
        <use fill="#EB3955" transform="translate(15.958 2.454) scale(.96552)" xlink:href="#bt"/>
        <use fill="#EB3955" transform="translate(15.553 1.44) scale(.96552)" xlink:href="#bu"/>
        <use fill="#EB3955" transform="translate(13.477 3.526) scale(.96552)" xlink:href="#bv"/>
        <use fill="#EB3955" transform="translate(13.158 2.483) scale(.96552)" xlink:href="#bw"/>
        <use fill="#EB3955" transform="translate(14.645 6.278) scale(.96552)" xlink:href="#bx"/>
        <use fill="#EB3955" transform="translate(14.018 4.665) scale(.96552)" xlink:href="#by"/>
        <use fill="#EB3955" transform="translate(13.197 5.892) scale(.96552)" xlink:href="#bz"/>
        <use fill="#EB3955" transform="translate(12.579 4.463) scale(.96552)" xlink:href="#bA"/>
        <use fill="#EB3955" transform="translate(12.125 3.44) scale(.96552)" xlink:href="#bB"/>
        <use fill="#EB3955" transform="translate(11.218 4.994) scale(.96552)" xlink:href="#bC"/>
        <use fill="#EB3955" transform="translate(11.604 6.133) scale(.96552)" xlink:href="#bD"/>
        <use fill="#EB3955" transform="translate(12.241 7.34) scale(.96552)" xlink:href="#bE"/>
        <use fill="#EB3955" transform="translate(13.776 7.398) scale(.96552)" xlink:href="#bF"/>
        <use fill="#EB3955" transform="translate(15.572 7.398) scale(.96552)" xlink:href="#bG"/>
        <use fill="#EB3955" transform="translate(17.793 6.287) scale(.96552)" xlink:href="#bH"/>
        <use fill="#EB3955" transform="translate(17.03 4.82) scale(.96552)" xlink:href="#bI"/>
        <use fill="#EB3955" transform="translate(16.277 6.307) scale(.96552)" xlink:href="#bJ"/>
        <use fill="#EB3955" transform="translate(10.56 .987) scale(.96552)" xlink:href="#bK"/>
        <use fill="#FFC91C" transform="translate(17.831 6.452) scale(.96552)" xlink:href="#bL"/>
        <use fill="#FFC91C" transform="translate(17.107 4.994) scale(.96552)" xlink:href="#bM"/>
        <use fill="#FFC91C" transform="translate(12.646 4.617) scale(.96552)" xlink:href="#bN"/>
        <use fill="#FFC91C" transform="translate(16.45 3.642) scale(.96552)" xlink:href="#bO"/>
        <use fill="#FFC91C" transform="translate(16.035 2.59) scale(.96552)" xlink:href="#bP"/>
        <use fill="#FFC91C" transform="translate(13.834 7.533) scale(.96552)" xlink:href="#bQ"/>
        <use fill="#FFC91C" transform="translate(16.344 6.49) scale(.96552)" xlink:href="#bR"/>
        <use fill="#FFC91C" transform="translate(12.173 3.555) scale(.96552)" xlink:href="#bS"/>
        <use fill="#FFC91C" transform="translate(15.65 1.556) scale(.96552)" xlink:href="#bT"/>
        <use fill="#FFC91C" transform="translate(11.266 5.061) scale(.96552)" xlink:href="#bU"/>
        <use fill="#FFC91C" transform="translate(15.64 5.042) scale(.96552)" xlink:href="#bV"/>
        <use fill="#FFC91C" transform="translate(15.05 3.7) scale(.96552)" xlink:href="#bW"/>
        <use fill="#FFC91C" transform="translate(13.245 6.046) scale(.96552)" xlink:href="#bX"/>
        <use fill="#FFC91C" transform="translate(14.587 2.425) scale(.96552)" xlink:href="#bY"/>
        <use fill="#FFC91C" transform="translate(12.29 7.446) scale(.96552)" xlink:href="#bZ"/>
        <use fill="#FFC91C" transform="translate(15.63 7.543) scale(.96552)" xlink:href="#ca"/>
        <use fill="#FFC91C" transform="translate(14.703 6.423) scale(.96552)" xlink:href="#cb"/>
        <use fill="#FFC91C" transform="translate(11.671 6.23) scale(.96552)" xlink:href="#cc"/>
        <use fill="#FFC91C" transform="translate(14.075 4.79) scale(.96552)" xlink:href="#cd"/>
        <use fill="#FFC91C" transform="translate(13.515 3.584) scale(.96552)" xlink:href="#ce"/>
        <use fill="#FFC91C" transform="translate(13.197 2.59) scale(.96552)" xlink:href="#cf"/>
        <use fill="#6BAD61" transform="translate(18.488 3.565) scale(.96552)" xlink:href="#cg"/>
        <use fill="#6BAD61" transform="translate(17.397 3.333) scale(.96552)" xlink:href="#ch"/>
        <use fill="#609655" transform="translate(17.29 3.603) scale(.96552)" xlink:href="#ci"/>
        <use fill="#6BAD61" transform="translate(16.673 .002) scale(.96552)" xlink:href="#cj"/>
        <use fill="#6BAD61" transform="translate(16.789 1.643) scale(.96552)" xlink:href="#ck"/>
        <use fill="#609655" transform="translate(16.74 1.402) scale(.96552)" xlink:href="#cl"/>
        <use fill="#6BAD61" transform="translate(18.575 1.71) scale(.96552)" xlink:href="#cm"/>
        <use fill="#7AC761" transform="translate(18.826 3.758) scale(.96552)" xlink:href="#cn"/>
        <use fill="#7AC761" transform="translate(19.193 5.747) scale(.96552)" xlink:href="#co"/>
        <use fill="#7AC761" transform="translate(17.928 1.885) scale(.96552)" xlink:href="#cp"/>
        <use fill="#7AC761" transform="translate(20.062 1.807) scale(.96552)" xlink:href="#cq"/>
        <use fill="#7AC761" transform="translate(19.791 2.947) scale(.96552)" xlink:href="#cr"/>
        <use fill="#7AC761" transform="translate(17.426 2.55) scale(.96552)" xlink:href="#cs"/>
        <use fill="#7AC761" transform="translate(19.376 6.48) scale(.96552)" xlink:href="#ct"/>
        <use fill="#7AC761" transform="translate(18.353 3.613) scale(.96552)" xlink:href="#cu"/>
        <use fill="#FF7287" transform="translate(14.53 2.03) scale(.96552)" xlink:href="#cv"/>
        <use fill="#FF7287" transform="translate(14.172 5.206) scale(.96552)" xlink:href="#cw"/>
        <use fill="#FF7287" transform="translate(14.085 3.932) scale(.96552)" xlink:href="#cx"/>
        <use fill="#FFA112" transform="translate(17.117 4.994) scale(.96552)" xlink:href="#cy"/>
        <use fill="#FFA112" transform="translate(13.245 6.056) scale(.96552)" xlink:href="#cz"/>
        <use fill="#FFA112" transform="translate(15.64 5.042) scale(.96552)" xlink:href="#cA"/>
        <use fill="#FFA112" transform="translate(12.29 7.436) scale(.96552)" xlink:href="#cB"/>
        <use fill="#FFA112" transform="translate(14.703 6.423) scale(.96552)" xlink:href="#cC"/>
        <use fill="#FFA112" transform="translate(11.671 6.24) scale(.96552)" xlink:href="#cD"/>
        <use fill="#FFA112" transform="translate(12.173 3.555) scale(.96552)" xlink:href="#cE"/>
        <use fill="#FFA112" transform="translate(13.197 2.58) scale(.96552)" xlink:href="#cF"/>
        <use fill="#FFA112" transform="translate(14.066 4.79) scale(.96552)" xlink:href="#cG"/>
        <use fill="#FFA112" transform="translate(11.266 5.07) scale(.96552)" xlink:href="#cH"/>
        <use fill="#FFA112" transform="translate(15.65 1.556) scale(.96552)" xlink:href="#cI"/>
        <use fill="#FFA112" transform="translate(13.834 7.533) scale(.96552)" xlink:href="#cJ"/>
        <use fill="#FFA112" transform="translate(17.831 6.452) scale(.96552)" xlink:href="#cK"/>
        <use fill="#FFA112" transform="translate(15.63 7.543) scale(.96552)" xlink:href="#cL"/>
        <use fill="#FFA112" transform="translate(16.344 6.5) scale(.96552)" xlink:href="#cM"/>
        <use fill="#FFA112" transform="translate(14.578 2.416) scale(.96552)" xlink:href="#cN"/>
        <use fill="#FFA112" transform="translate(12.646 4.617) scale(.96552)" xlink:href="#cO"/>
        <use fill="#FFA112" transform="translate(13.515 3.594) scale(.96552)" xlink:href="#cP"/>
        <use fill="#FFA112" transform="translate(16.035 2.6) scale(.96552)" xlink:href="#cQ"/>
        <use fill="#FFA112" transform="translate(15.05 3.7) scale(.96552)" xlink:href="#cR"/>
        <use fill="#FFA112" transform="translate(16.45 3.642) scale(.96552)" xlink:href="#cS"/>
        <use fill="#FFE670" transform="translate(18.208 6.596) scale(.96552)" xlink:href="#cT"/>
        <use fill="#FFE670" transform="translate(17.445 5.061) scale(.96552)" xlink:href="#cU"/>
        <use fill="#FFE670" transform="translate(16.75 6.606) scale(.96552)" xlink:href="#cV"/>
        <use fill="#FFE670" transform="translate(16.615 6.838) scale(.96552)" xlink:href="#cW"/>
        <use fill="#FFE670" transform="translate(16.132 7.61) scale(.96552)" xlink:href="#cX"/>
        <use fill="#FFE670" transform="translate(15.987 7.745) scale(.96552)" xlink:href="#cY"/>
        <use fill="#FFE670" transform="translate(15.08 6.548) scale(.96552)" xlink:href="#cZ"/>
        <use fill="#FFE670" transform="translate(14.423 4.878) scale(.96552)" xlink:href="#da"/>
        <use fill="#FFE670" transform="translate(15.997 5.12) scale(.96552)" xlink:href="#db"/>
        <use fill="#FFE670" transform="translate(15.35 3.777) scale(.96552)" xlink:href="#dc"/>
        <use fill="#FFE670" transform="translate(16.943 3.72) scale(.96552)" xlink:href="#dd"/>
        <use fill="#FFE670" transform="translate(16.721 3.854) scale(.96552)" xlink:href="#de"/>
        <use fill="#FFE670" transform="translate(16.335 2.676) scale(.96552)" xlink:href="#df"/>
        <use fill="#FFE670" transform="translate(16.113 1.653) scale(.96552)" xlink:href="#dd"/>
        <use fill="#FFE670" transform="translate(15.89 1.73) scale(.96552)" xlink:href="#dg"/>
        <use fill="#FFE670" transform="translate(15.05 2.522) scale(.96552)" xlink:href="#dh"/>
        <use fill="#FFE670" transform="translate(14.81 2.57) scale(.96552)" xlink:href="#di"/>
        <use fill="#FFE670" transform="translate(13.979 3.661) scale(.96552)" xlink:href="#dj"/>
        <use fill="#FFE670" transform="translate(13.738 3.738) scale(.96552)" xlink:href="#dk"/>
        <use fill="#FFE670" transform="translate(13.564 2.657) scale(.96552)" xlink:href="#dl"/>
        <use fill="#FFE670" transform="translate(13.013 4.704) scale(.96552)" xlink:href="#dm"/>
        <use fill="#FFE670" transform="translate(12.888 4.887) scale(.96552)" xlink:href="#dn"/>
        <use fill="#FFE670" transform="translate(12.473 3.613) scale(.96552)" xlink:href="#do"/>
        <use fill="#FFE670" transform="translate(13.573 6.123) scale(.96552)" xlink:href="#dp"/>
        <use fill="#FFE670" transform="translate(14.182 7.63) scale(.96552)" xlink:href="#dq"/>
        <g transform="translate(-5009.13 -5987.2) scale(.96552)">
            <use fill="#FFE670" transform="translate(5202.56 6209.01)" xlink:href="#dr"/>
        </g>
        <g transform="translate(-5009.13 -5987.2) scale(.96552)">
            <use fill="#FFE670" transform="translate(5201.23 6208.81)" xlink:href="#ds"/>
        </g>
        <g transform="translate(-5009.13 -5987.2) scale(.96552)">
            <use fill="#FFE670" transform="translate(5200.96 6208.85)" xlink:href="#dt"/>
        </g>
        <g transform="translate(-5009.13 -5987.2) scale(.96552)">
            <use fill="#FFE670" transform="translate(5200.37 6207.53)" xlink:href="#du"/>
        </g>
        <g transform="translate(-5009.13 -5987.2) scale(.96552)">
            <use fill="#FFE670" transform="translate(5199.93 6206.31)" xlink:href="#dv"/>
        </g>
    </g>
    <defs>
        <path id="a" d="M.451 6.447C-.29 6.875.106 7.573.106 8.375c0 .707-.078 1.039.75.873 1.46-.288 4.316-1.256 5.567-1.405 1.614-.192 3.815-.942 5.411-1.265 3.297-.663 4.54-.916 8.242-1.666 2.588-.524 3.753-1.17 6.386-1.422.958-.096 1.933-.28 2.813-.55.535-.122.483-.864.5-1.43.026-1.205-.457-.987-.63-1.205-.31-.41-.828-.261-1.078-.305L.45 6.447z"/>
        <path id="b" d="M29.782 1.734c-.026-.306.138-1.178-.035-1.405-.31-.41-.716-.332-1.079-.305L.354 6.567c-.216.122-.32.436-.354.829l.052.026c.233-.489 1.104-.41 1.527-.462.613-.079 1.226-.079 1.778-.288 1.26-.489 2.537-.925 3.883-1.03.838-.061 3.487-.855 4.082-1.012 1.459-.375 3.159-.715 4.592-.986 1.346-.253 2.545-.436 3.909-.89.647-.218 1.303-.087 1.95-.209.622-.122 2.96-.881 3.512-.977 1.045-.175 1.925-.393 2.253-.428.578-.06 1.838-.593 1.838-.043 0 1.954.017 1.893-2.762 2.155-1.199.113-3.279.706-4.453.968-.578.13-1.19.13-1.751.314-.622.21-1.295.358-1.916.48-1.346.262-2.805.489-4.134.759-1.26.253-2.528.593-3.754.942-.595.175-1.277.035-1.838.27-.544.228-1.079.402-1.605.585-.63.218-1.157.297-1.838.297-.708 0-1.105.052-1.7.366-.553.297-1.373.463-1.942.716-.328.148-.915.2-1.269.47.095 0 .199-.008.337-.034 1.458-.288 4.315-1.256 5.566-1.405 1.614-.192 3.815-.942 5.411-1.265 3.297-.663 4.54-.916 8.242-1.666 2.588-.524 4.461-1.256 7.093-1.518.958-.096 2.408-.314 2.546-.506.147-.2.216-.724.173-1.291z"/>
        <path id="c" d="M.103 1.972c0 .706-.078 1.038.75.872.156-.026.32-.07.501-.105-.276-.07-.578-.104-.777-.279C.197 2.12.612 1.326.57.864.474-.122-.113.864.793.122L.646 0 .448.044C-.286.47.103 1.169.103 1.972z"/>
        <path id="d" d="M.451 6.447C-.29 6.875.106 7.573.106 8.375c0 .707-.078 1.039.75.873 1.46-.288 4.316-1.256 5.567-1.405 1.614-.192 3.815-.942 5.411-1.265 3.297-.663 4.54-.916 8.242-1.666 2.588-.524 3.753-1.17 6.386-1.422.958-.096 1.933-.28 2.813-.55.535-.122.483-.864.5-1.43.026-1.205-.457-.987-.63-1.205-.31-.41-.828-.261-1.078-.305L.45 6.447z"/>
        <path id="e" d="M29.782 1.734c-.026-.306.138-1.178-.035-1.405-.31-.41-.716-.332-1.079-.305L.354 6.567c-.216.122-.32.436-.354.829l.052.026c.233-.489 1.104-.41 1.527-.462.613-.079 1.226-.079 1.778-.288 1.26-.489 2.537-.925 3.883-1.03.838-.061 3.487-.855 4.082-1.012 1.459-.375 3.159-.715 4.592-.986 1.346-.253 2.545-.436 3.909-.89.647-.218 1.303-.087 1.95-.209.622-.122 2.96-.881 3.512-.977 1.045-.175 1.925-.393 2.253-.428.578-.06 1.838-.593 1.838-.043 0 1.954.017 1.893-2.762 2.155-1.199.113-3.279.706-4.453.968-.578.13-1.19.13-1.751.314-.622.21-1.295.358-1.916.48-1.346.262-2.805.489-4.134.759-1.26.253-2.528.593-3.754.942-.595.175-1.277.035-1.838.27-.544.228-1.079.402-1.605.585-.63.218-1.157.297-1.838.297-.708 0-1.105.052-1.7.366-.553.297-1.373.463-1.942.716-.328.148-.915.2-1.269.47.095 0 .199-.008.337-.034 1.458-.288 4.315-1.256 5.566-1.405 1.614-.192 3.815-.942 5.411-1.265 3.297-.663 4.54-.916 8.242-1.666 2.588-.524 4.461-1.256 7.093-1.518.958-.096 2.408-.314 2.546-.506.147-.2.216-.724.173-1.291z"/>
        <path id="f" d="M.103 1.98c0 .707-.078 1.039.75.873.156-.026.32-.07.501-.114-.276-.07-.578-.104-.777-.279C.197 2.12.612 1.326.57.864.474-.122-.113.864.793.122L.646 0 .448.044C-.286.48.103 1.187.103 1.98z"/>
        <path id="g" d="M.422.331C.492.087.12-.158.016.131c-.103.279.311.514.406.2z"/>
        <path id="h" d="M.42.331C.489.087.118-.158.014.131-.08.41.325.644.42.33z"/>
        <path id="i" d="M.304.242C.356.067.088-.116.01.094c-.069.2.225.375.294.148z"/>
        <path id="j" d="M.27 1.039c.612.357 1.346-.376.75-.89-.595-.524-1.467.47-.75.89z"/>
        <path id="k" d="M.215.826c.483.279 1.07-.297.595-.707C.336-.3-.355.494.215.826z"/>
        <path id="l" d="M.235.896C.76 1.202 1.4.574.882.13.364-.325-.387.539.235.896z"/>
        <path id="m" d="M.357.69C.746.526.772-.085.323.01-.126.106-.1.891.357.69z"/>
        <path id="n" d="M.068.572C.328.825.672.17.37.022.094-.108-.113.38.068.572z"/>
        <path id="o" d="M.073.569c.26.253.604-.401.302-.55C.091-.103-.117.386.073.57z"/>
        <path id="p" d="M.018.152c-.138.314.544.401.57.087C.614-.049.122-.075.018.152z"/>
        <path id="q" d="M.705.62C1.085.324.29-.252.049.123c-.224.349.38.715.656.497z"/>
        <path id="r" d="M.705.62C1.085.324.29-.252.049.123c-.224.349.38.715.656.497z"/>
        <path id="s" d="M.708.62C1.088.324.293-.252.052.123c-.233.349.38.715.656.497z"/>
        <path id="t" d="M.023.359c-.216.645 1.156.689 1.148.06C1.162-.155.178-.103.023.36z"/>
        <path id="u" d="M0 .595c.017.68 1.312.253 1.096-.332C.906-.277-.009.106 0 .595z"/>
        <path id="v" d="M0 .6c.017.681 1.312.254 1.096-.33C.906-.28-.009.102 0 .6z"/>
        <path id="w" d="M0 .595c.017.68 1.312.253 1.096-.332C.898-.277-.009.106 0 .595z"/>
        <path id="x" d="M0 .285C.009.608.621.407.518.128.43-.134 0 .05 0 .285z"/>
        <path id="y" d="M.451 6.447C-.29 6.875.106 7.573.106 8.375c0 .707-.078 1.039.75.873 1.46-.288 4.316-1.256 5.567-1.405 1.614-.192 3.815-.942 5.411-1.265 3.297-.663 4.54-.916 8.242-1.666 2.588-.524 3.753-1.17 6.386-1.422.958-.096 1.933-.28 2.813-.55.535-.122.483-.864.5-1.43.026-1.205-.457-.987-.63-1.205-.31-.41-.828-.261-1.078-.305L.45 6.447z"/>
        <path id="z" d="M29.782 1.734c-.026-.306.138-1.178-.035-1.405-.31-.41-.716-.332-1.079-.305L.354 6.567c-.216.122-.32.436-.354.829l.043.026c.233-.489 1.105-.41 1.528-.462.612-.079 1.225-.079 1.777-.288 1.26-.489 2.538-.925 3.884-1.03.837-.061 3.486-.855 4.082-1.012 1.458-.375 3.158-.715 4.59-.986 1.347-.253 2.547-.436 3.91-.89.647-.218 1.303-.087 1.95-.209.622-.122 2.96-.881 3.513-.977 1.044-.175 1.924-.393 2.252-.428.579-.06 1.838-.593 1.838-.043 0 1.954.018 1.893-2.761 2.155-1.2.113-3.28.706-4.453.968-.578.13-1.191.13-1.752.314-.621.21-1.294.358-1.916.48-1.346.262-2.804.489-4.133.759-1.26.253-2.53.593-3.755.942-.595.175-1.277.035-1.838.27-.543.228-1.078.402-1.605.576-.63.219-1.156.297-1.838.297-.708 0-1.105.052-1.7.367-.552.296-1.372.462-1.942.715-.328.148-.915.2-1.268.471.095 0 .198-.009.336-.035 1.459-.288 4.315-1.256 5.566-1.404 1.614-.192 3.815-.943 5.411-1.266 3.297-.663 4.54-.916 8.242-1.666 2.589-.523 4.462-1.256 7.094-1.518.957-.096 2.407-.314 2.545-.506.156-.183.225-.715.182-1.282z"/>
        <path id="A" d="M.103 1.98c0 .707-.078 1.039.75.873.156-.026.32-.07.501-.114-.276-.07-.578-.104-.777-.279C.197 2.12.612 1.326.57.864.474-.122-.113.864.793.122L.646 0 .448.044C-.286.48.103 1.187.103 1.98z"/>
        <path id="B" d="M.451 6.447C-.29 6.875.106 7.573.106 8.375c0 .707-.078 1.039.75.873 1.46-.288 4.316-1.256 5.567-1.405 1.614-.192 3.815-.942 5.411-1.265 3.297-.663 4.54-.916 8.242-1.666 2.588-.524 3.753-1.17 6.386-1.422.958-.096 1.933-.28 2.813-.55.535-.122.483-.864.5-1.43.026-1.205-.457-.987-.63-1.205-.31-.41-.828-.261-1.078-.305L.45 6.447z"/>
        <path id="C" d="M29.782 1.734c-.026-.306.138-1.178-.035-1.405-.31-.41-.716-.332-1.079-.305L.354 6.567c-.216.122-.32.436-.354.829l.052.026c.233-.489 1.104-.41 1.527-.462.613-.079 1.226-.079 1.778-.288 1.26-.489 2.537-.925 3.883-1.021.838-.061 3.487-.855 4.082-1.012 1.459-.375 3.159-.716 4.592-.986 1.346-.253 2.545-.436 3.909-.89.647-.218 1.303-.087 1.95-.21.622-.121 2.96-.88 3.512-.976 1.045-.175 1.925-.393 2.253-.428.578-.061 1.838-.593 1.838-.044 0 1.955.017 1.894-2.762 2.155-1.199.114-3.279.707-4.453.969-.578.13-1.19.13-1.751.314-.622.21-1.295.358-1.916.48-1.346.261-2.805.488-4.134.759-1.26.253-2.528.593-3.754.942-.595.174-1.277.035-1.838.27-.544.227-1.079.402-1.605.576-.63.218-1.157.297-1.838.297-.708 0-1.105.052-1.7.366-.553.297-1.373.463-1.942.716-.328.148-.915.2-1.269.47.095 0 .199-.008.337-.034 1.458-.288 4.315-1.256 5.566-1.405 1.614-.192 3.815-.942 5.411-1.265 3.297-.663 4.54-.916 8.242-1.666 2.588-.524 4.461-1.256 7.093-1.518.958-.096 2.408-.314 2.546-.506.147-.192.216-.724.173-1.291z"/>
        <path id="D" d="M.103 1.98c0 .707-.078 1.039.75.873.156-.026.32-.07.501-.114-.276-.07-.578-.104-.777-.279C.197 2.12.612 1.326.57.864.474-.122-.113.864.793.122L.646 0 .448.044C-.286.47.103 1.178.103 1.98z"/>
        <path id="E" d="M.42.331C.489.087.118-.158.014.131c-.095.279.32.514.406.2z"/>
        <path id="F" d="M.422.331C.492.087.12-.158.016.131c-.103.279.311.514.406.2z"/>
        <path id="G" d="M.306.242C.358.067.09-.116.013.094c-.078.209.224.383.293.148z"/>
        <path id="H" d="M.456.36C.533.097.128-.174.016.14-.089.447.36.7.455.36z"/>
        <path id="I" d="M.304.242C.356.067.088-.116.01.094c-.069.209.225.383.294.148z"/>
        <path id="J" d="M.235.896C.76 1.202 1.4.574.882.13.364-.325-.387.539.235.896z"/>
        <path id="K" d="M.182.704c.414.235.906-.253.51-.602-.406-.358-.993.322-.51.602z"/>
        <path id="L" d="M.182.704c.414.235.906-.253.51-.602-.406-.358-.993.322-.51.602z"/>
        <path id="M" d="M.096.753C.441 1.093.9.221.493.03.122-.145-.154.51.096.753z"/>
        <path id="N" d="M.507.78C.982.682.525-.19.137.036-.21.247.17.85.506.78z"/>
        <path id="O" d="M.096.753C.441 1.093.9.221.493.03.122-.145-.154.51.096.753z"/>
        <path id="P" d="M.705.62C1.085.324.29-.252.049.123c-.224.349.38.715.656.497z"/>
        <path id="Q" d="M0 .597c.017.68 1.312.253 1.096-.332C.898-.275-.009.1 0 .597z"/>
        <path id="R" d="M0 .285C.009.608.621.407.518.128.43-.134 0 .05 0 .285z"/>
        <path id="S" d="M.1.462C.426.689.823.157.443.026.091-.105-.143.296.1.462z"/>
        <path id="T" d="M.1.46C.426.685.823.153.443.022.091-.099-.143.293.1.46z"/>
        <path id="U" d="M.488.126C.428-.17-.116.117.022.362.16.589.532.344.488.126z"/>
        <path id="V" d="M.743.196C.657-.266-.18.187.035.554.243.903.812.527.743.196z"/>
        <path id="W" d="M.451 6.447C-.29 6.875.106 7.573.106 8.375c0 .707-.078 1.039.75.873 1.46-.288 4.316-1.256 5.567-1.405 1.614-.192 3.815-.942 5.411-1.265 3.297-.663 4.54-.916 8.242-1.666 2.588-.524 3.753-1.17 6.386-1.422.958-.096 1.933-.28 2.813-.55.12-.375.043-1.003.009-1.413-.043-.567.043.75 0 .183-.026-.305.026-1.178-.147-1.405-.31-.41-.829-.261-1.079-.305L.451 6.447z"/>
        <path id="X" d="M29.79 1.734c-.026-.306.138-1.178-.034-1.405-.31-.41-.716-.332-1.079-.305L.354 6.567c-.216.122-.32.436-.354.829l.052.026c.233-.489 1.104-.41 1.527-.462.613-.079 1.226-.079 1.778-.288 1.26-.489 2.537-.925 3.883-1.021.838-.061 1.692-.157 2.529-.157.613 0 1.243-.227 1.838-.384a65.875 65.875 0 0 1 4.272-.934c1.346-.253 2.658-.645 4.022-1.099.647-.218 1.233-.401 1.872-.523.622-.122 1.985-.122 2.624-.184a4.027 4.027 0 0 0 1.527-.462c.233-.122.457-.288.716-.366.302-.096.587-.044.915-.079.578-.061 1.588-.235 1.485.314-.268 1.457-1.597.969-2.641 1.204-1.174.27-3.055.986-4.229 1.256-.578.131-1.19.131-1.752.315-.621.209-1.294.357-1.916.48-1.346.261-2.804.488-4.133.758-1.26.253-2.529.594-3.754.943-.596.174-1.277.035-1.838.27-.544.227-1.08.401-1.606.576-.63.218-1.156.297-1.838.297-.707 0-1.104.052-1.7.366-.552.297-1.372.462-1.942.715-.327.149-.914.201-1.268.471.095 0 .198-.008.336-.034 1.459-.288 4.315-1.257 5.567-1.405 1.613-.192 3.814-.942 5.41-1.265 3.297-.663 4.54-.916 8.242-1.666 2.59-.524 4.462-1.257 7.094-1.518.958-.096 2.408-.315 2.546-.506.146-.21.215-.742.172-1.3z"/>
        <path id="Y" d="M.103 1.98c0 .707-.078 1.039.75.873.156-.026.32-.07.501-.114-.276-.07-.578-.104-.777-.279C.197 2.12.612 1.326.57.864.474-.122-.113.864.793.122L.646 0 .448.044C-.286.48.103 1.178.103 1.98z"/>
        <path id="Z" d="M.42.331C.489.087.118-.158.014.131c-.095.279.32.514.406.2z"/>
        <path id="aa" d="M.304.242C.356.067.088-.116.01.094c-.069.2.225.375.294.148z"/>
        <path id="ab" d="M.304.242C.356.067.088-.116.01.094c-.069.209.225.383.294.148z"/>
        <path id="ac" d="M.304.242C.356.067.088-.116.01.094c-.069.209.225.383.294.148z"/>
        <path id="ad" d="M.275 1.038c.612.357 1.346-.375.75-.89-.604-.524-1.475.48-.75.89z"/>
        <path id="ae" d="M.12.464C.396.621.724.3.457.063.189-.164-.2.281.12.464z"/>
        <path id="af" d="M.12.464C.396.621.724.3.457.063.189-.164-.2.281.12.464z"/>
        <path id="ag" d="M.12.464C.396.621.724.3.457.063.189-.164-.2.281.12.464z"/>
        <path id="ah" d="M.215.826c.483.279 1.07-.297.595-.707C.336-.3-.355.494.215.826z"/>
        <path id="ai" d="M.235.896C.76 1.202 1.4.574.882.13.364-.325-.387.539.235.896z"/>
        <path id="aj" d="M.068.565C.328.818.672.164.37.025c-.276-.14-.483.357-.302.54z"/>
        <path id="ak" d="M.018.155c-.138.314.544.401.57.087C.605-.055.113-.072.018.155z"/>
        <path id="al" d="M.041.295c-.293.62 1.079.837 1.148.21C1.258-.09.257-.16.04.294z"/>
        <path id="am" d="M.705.62C1.085.324.29-.252.049.123-.175.472.429.83.705.62z"/>
        <path id="an" d="M0 .597c.017.68 1.312.253 1.096-.332C.898-.275-.009.1 0 .597z"/>
        <path id="ao" d="M.1.459C.426.686.823.154.443.023.091-.1-.143.302.1.459z"/>
        <path id="ap" d="M.743.196C.657-.266-.18.187.035.554.234.903.812.536.743.196z"/>
        <path id="aq" d="M.743.196C.657-.266-.18.187.035.554.234.894.803.527.743.196z"/>
        <path id="ar" d="M29.695 6.016c.199-.21.311-.837.173-1.3-.112-.401-3.003-.933-4.203-1.23-1.476-.366-2.977-.907-4.384-1.535-1.467-.655-3.167-.672-4.737-.812-1.865-.165-5.196-1.692-5.955-.924-.535.54-1.916 1.884-2.339 2.46a30.006 30.006 0 0 1-2.666 3.088c-.967.969-1.882 1.937-2.952 2.783C1.804 9.201 0 10.963 0 11.391c0 .209.06 1.073.224 1.177.354.227 2.21-.349 3.159-.663 1.251-.41 2.485-.829 3.788-1.116 2.563-.559 5.213-.864 7.845-1.388 2.503-.506 4.91-1.081 7.439-1.736.75-.183 7.042-1.44 7.24-1.649z"/>
        <path id="as" d="M10.526.244c-.535.541-1.907 1.728-2.33 2.303-.803 1.082-1.83 2.024-2.787 2.993-.976.977-1.77 2.015-2.848 2.861-.829.655-2.874 2.592-2.52 2.818.354.227 2.174-.453 3.124-.767 1.251-.41 2.511-.724 3.823-1.012 2.563-.559 5.186-.995 7.818-1.527 2.503-.506 4.91-1.047 7.44-1.701 1.078-.28 7.387-1.135 7.412-1.553.026-.42-3.08-.969-4.28-1.265a25.683 25.683 0 0 1-4.315-1.466c-1.467-.654-3.115-.873-4.686-1.012-1.873-.166-5.092-1.44-5.851-.672z"/>
        <path id="at" d="M29.488 0c-.846.445-6.3 1.195-7.3 1.448a139.857 139.857 0 0 1-7.44 1.702c-2.623.532-5.255.968-7.818 1.526-1.303.288-2.563.602-3.823 1.012-.94.314-2.736.986-3.107.777.224.392 2.149-.375 3.098-.69 1.251-.41 2.529-.567 3.832-.846 2.563-.558 5.238-1.151 7.862-1.684 2.502-.506 4.867-.898 7.395-1.552C23.275 1.423 29.427.47 29.488 0z"/>
        <path id="au" d="M14.464 1.16C13.1.55 11.555.35 10.088.218 9.708.183 9.268.105 8.802 0c-.62.148-1.26.436-1.855.61-1.433.42-2.943.533-4.367.97a1.786 1.786 0 0 0-.13.165C1.744 2.695.855 3.533 0 4.388c.086-.017.173-.035.25-.06 1.269-.289 2.529-.41 3.832-.542a16.766 16.766 0 0 0 2.994-.558c1.554-.454 3.125-.95 4.738-1.082.561-.043 1.14-.296 1.7-.296.372 0 .82.043 1.209.078.483.052.992.035 1.484-.078a26.794 26.794 0 0 1-1.743-.69z"/>
        <path id="av" d="M25.2.628c-.769-.174-1.563-.34-2.037-.454A13.642 13.642 0 0 1 22.524 0c-.423.052-.846.105-1.26.148-2.002.21-4.056.384-5.99.943-2.45.698-4.892 1.256-7.438 1.57-1.053.13-2.114-.052-3.15.236-.716.2-1.39.48-2.063.767-.44.471-.897.925-1.415 1.344C.906 5.243.44 5.653 0 6.09c1.588-.157 3.184-.236 4.746-.69 1.14-.331 2.089-1.116 3.22-1.422.655-.183 1.337-.21 1.993-.349.492-.096.975-.296 1.476-.349 1.096-.122 2.097-.322 3.175-.55 1.76-.374 3.478-.863 5.256-1.16.95-.157 1.907-.279 2.848-.462.837-.192 1.648-.323 2.485-.48z"/>
        <path id="aw" d="M.42.331C.489.087.118-.158.014.131c-.095.279.32.523.406.2z"/>
        <path id="ax" d="M.42.331C.489.087.118-.158.014.131c-.095.287.32.523.406.2z"/>
        <path id="ay" d="M.42.331C.489.087.118-.158.014.131c-.095.279.32.514.406.2z"/>
        <path id="az" d="M.42.331C.489.087.118-.158.014.131-.08.41.325.644.42.33z"/>
        <path id="aA" d="M.574.453C.669.12.16-.22.022.183c-.138.383.423.706.552.27z"/>
        <path id="aB" d="M.304.242C.355.067.088-.116.01.094c-.069.2.233.375.294.148z"/>
        <path id="aC" d="M.304.242C.355.067.088-.116.01.094c-.069.209.233.375.294.148z"/>
        <path id="aD" d="M.304.242C.356.067.088-.116.01.094c-.069.209.225.375.294.148z"/>
        <path id="aE" d="M.27 1.039c.612.357 1.346-.376.75-.89-.595-.524-1.467.47-.75.89z"/>
        <path id="aF" d="M.275 1.039c.612.357 1.346-.376.75-.89-.604-.524-1.475.47-.75.89z"/>
        <path id="aG" d="M.219.83c.483.278 1.07-.297.595-.707C.339-.305-.36.498.219.829z"/>
        <path id="aH" d="M.13.495C.425.661.77.321.494.068.2-.176-.214.303.131.495z"/>
        <path id="aI" d="M.357.69C.746.526.763-.085.323.01-.126.106-.1.883.357.69z"/>
        <path id="aJ" d="M.357.69C.746.526.772-.085.323.01-.126.106-.1.883.357.69z"/>
        <path id="aK" d="M.136 1.056C.611 1.526 1.25.306.69.044.17-.21-.217.707.136 1.056z"/>
        <path id="aL" d="M.096.756C.441 1.096.9.224.493.032.122-.151-.154.503.096.756z"/>
        <path id="aM" d="M.708.62C1.088.324.293-.252.052.123c-.233.349.38.715.656.497z"/>
        <path id="aN" d="M.023.365c-.216.646 1.156.69 1.148.061 0-.584-.984-.532-1.148-.06z"/>
        <path id="aO" d="M.023.362c-.216.646 1.156.69 1.148.061 0-.576-.993-.532-1.148-.06z"/>
        <path id="aP" d="M.1.459C.426.686.823.154.443.023.091-.1-.143.302.1.459z"/>
        <path id="aQ" d="M.488.126C.428-.17-.116.117.022.362.16.589.532.344.488.126z"/>
        <path id="aR" d="M.488.126C.428-.17-.116.117.022.362.16.589.532.344.488.126z"/>
        <path id="aS" d="M.42.331C.489.087.118-.158.014.131c-.095.279.32.523.406.2z"/>
        <path id="aT" d="M.42.331C.489.087.118-.158.014.131c-.095.287.32.523.406.2z"/>
        <path id="aU" d="M.42.331C.489.087.118-.158.014.131c-.095.279.32.514.406.2z"/>
        <path id="aV" d="M.42.331C.489.087.118-.158.014.131-.08.41.325.644.42.33z"/>
        <path id="aW" d="M.574.453C.669.12.16-.22.022.183c-.138.383.423.706.552.27z"/>
        <path id="aX" d="M.304.242C.355.067.088-.116.01.094c-.069.2.233.375.294.148z"/>
        <path id="aY" d="M.304.242C.355.067.088-.116.01.094c-.069.209.233.375.294.148z"/>
        <path id="aZ" d="M.304.242C.356.067.088-.116.01.094c-.069.209.225.375.294.148z"/>
        <path id="ba" d="M.27 1.039c.612.357 1.346-.376.75-.89-.595-.524-1.467.47-.75.89z"/>
        <path id="bb" d="M.27 1.039c.612.357 1.346-.376.75-.89-.595-.524-1.467.47-.75.89z"/>
        <path id="bc" d="M.219.83c.483.278 1.07-.297.595-.707C.339-.305-.36.498.219.829z"/>
        <path id="bd" d="M.13.495C.425.661.77.321.494.068.2-.176-.214.303.131.495z"/>
        <path id="be" d="M.357.69C.746.526.763-.085.323.01-.126.106-.1.883.357.69z"/>
        <path id="bf" d="M.357.69C.746.526.772-.085.323.01-.126.106-.1.883.357.69z"/>
        <path id="bg" d="M.136 1.056C.611 1.526 1.25.306.69.044.17-.21-.217.707.136 1.056z"/>
        <path id="bh" d="M.096.756C.441 1.096.9.224.493.032.122-.151-.154.503.096.756z"/>
        <path id="bi" d="M.708.62C1.088.324.293-.252.052.123c-.233.349.38.715.656.497z"/>
        <path id="bj" d="M.023.365c-.216.646 1.156.69 1.148.061 0-.584-.984-.532-1.148-.06z"/>
        <path id="bk" d="M.023.359c-.216.645 1.156.689 1.148.06C1.162-.155.178-.103.023.36z"/>
        <path id="bl" d="M.1.459C.426.686.823.154.443.023.091-.1-.143.302.1.459z"/>
        <path id="bm" d="M.488.126C.428-.17-.116.117.022.362.16.589.532.344.488.126z"/>
        <path id="bn" d="M.488.126C.428-.17-.116.117.022.362.16.589.532.344.488.126z"/>
        <path id="bo" d="M4.089 7.977c1.113-.026 2.528-.253 3.52-.811.82-.471 1.45-1.387 1.511-2.356.069-1.169-.647-2.399-1.225-3.359C7.299.465 6.669-.119 5.47.021c-1.2.148-2.313.985-3.21 1.753C1.395 2.507.567 3.423.161 4.496c-.362.96-.12 1.998.76 2.705.414.34 1.967.802 3.167.776z"/>
        <path id="bp" d="M.504.001a.243.243 0 0 1 .224.297v.017C.72.533.504.638.314.665.236.672.098.672.038.602-.014.525-.005.446.02.36.09.159.297-.016.504 0z"/>
        <path id="bq" d="M.442 0c.172 0 .267.105.25.253C.71.262.718.279.71.305.675.48.502.611.33.637.167.654-.05.558.01.357A.462.462 0 0 1 .442 0z"/>
        <path id="br" d="M.768.266v.008C.759.562.095.772.008.45c-.103-.384.794-.69.76-.183z"/>
        <path id="bs" d="M.764.184c0 .018 0 .035-.009.044.06.14-.12.296-.224.358C.384.664.08.716.013.507-.108.123.66-.226.763.184z"/>
        <path id="bt" d="M.407.004c.198-.026.362.078.362.288v.017C.778.327.77.344.761.362.69.519.493.623.329.632.148.641-.016.502.001.318.02.135.243.03.407.004z"/>
        <path id="bu" d="M.476 0C.718-.016.847.22.718.412.606.577.356.568.174.541a.197.197 0 0 1-.12-.034C-.016.463-.006.359.019.297.079.124.304.01.476.002z"/>
        <path id="bv" d="M.704.08C.859.21.764.427.669.54A.45.45 0 0 1 .16.664C.108.646.074.603.048.55A.195.195 0 0 1 .005.454C-.03.297.125.14.238.08c.147-.087.328-.122.466 0z"/>
        <path id="bw" d="M.522 0a.235.235 0 0 1 .242.201C.78.35.652.49.54.551.427.62.255.698.125.663.013.629-.03.524.022.419.03.393.048.376.065.35.117.167.332.01.522.002z"/>
        <path id="bx" d="M.031.561C.023.544.023.518.014.501-.08.237.324.037.514.002c.26-.035.372.262.26.453C.73.544.636.605.558.657.394.762.109.771.03.561z"/>
        <path id="by" d="M.717.082c.025.035.06.079.069.131v.078C.803.45.656.58.526.658.415.728.079.788.019.614.008.58 0 .554 0 .527-.008.283.207.073.432.021.527-.023.656.004.717.082z"/>
        <path id="bz" d="M.526 0c.12 0 .198.105.216.218.008.026 0 .061 0 .087C.767.48.543.62.414.672.24.732-.052.672.008.41.051.192.301 0 .526 0z"/>
        <path id="bA" d="M.03.34C.142.157.375 0 .6 0c.164 0 .302.21.198.349a.524.524 0 0 1-.44.358C.177.724-.09.55.03.34z"/>
        <path id="bB" d="M.726.12a.097.097 0 0 1 0 .069v.009C.734.52.122.93.009.486-.042.294.13.128.277.058c.147-.07.345-.105.449.061z"/>
        <path id="bC" d="M.68.112c0 .009.009.009.009.017l.008.01C.81.425.266.853.041.608-.079.47.093.208.197.121.335-.001.567-.071.68.112z"/>
        <path id="bD" d="M.811.25c0 .018 0 .035-.008.053C.82.46.595.599.492.66.345.739.009.704 0 .477 0 .242.19.12.38.041c.215-.087.405-.044.431.21z"/>
        <path id="bE" d="M.706.103C.723.12.723.146.715.18L.723.19C.88.539.197.748.024.46-.07.303.136.138.25.068.404-.02.577-.037.706.103z"/>
        <path id="bF" d="M.794.205c.009.017 0 .035 0 .052l.009.018a.056.056 0 0 1 0 .052c0 .131-.216.227-.31.253C.353.615.008.598 0 .388-.017.031.682-.179.794.205z"/>
        <path id="bG" d="M.708.043A.172.172 0 0 1 .786.19a.219.219 0 0 1 0 .148C.777.496.622.636.484.706c-.138.06-.5.06-.483-.183C.018.287.285.147.467.025a.238.238 0 0 1 .241.018z"/>
        <path id="bH" d="M.502 0c.035 0 .06 0 .086.017h.018c.086.027.12.184.13.262a.371.371 0 0 1-.027.166C.701.47.683.497.666.523.65.55.614.558.597.585a.562.562 0 0 1-.069.078.547.547 0 0 1-.285.157.155.155 0 0 1-.112-.026C-.033.759-.016.532.036.4.131.201.278.017.502 0z"/>
        <path id="bI" d="M.66 0c.155 0 .172.174.12.288C.78.297.771.305.763.314a.45.45 0 0 1-.086.21C.564.663.349.697.176.688A.156.156 0 0 1 .081.654C.064.646.047.628.03.611.021.602.021.602.012.585.003.575.003.567.003.558-.005.532.003.506.021.48V.427C.029.28.176.174.288.113A.881.881 0 0 1 .66 0z"/>
        <path id="bJ" d="M.488.026c.138-.052.293-.035.345.131A.37.37 0 0 1 .8.427C.712.699.384.874.126.708-.246.462.306.096.488.027z"/>
        <path id="bK" d="M.878 3.19c.044-.062.087-.114.139-.175a.19.19 0 0 1 .034-.044l.155-.183c.32-.367.674-.707 1.027-1.012C3.14 1.008 4.244.17 5.443.022c.268-.035.51-.026.726.009h.008l.147.026h.009c.094.026.18.052.267.087h.009a.786.786 0 0 1 .138.07c.034.018.06.035.095.052.405.254.733.655 1.044 1.17.578.96 1.294 2.19 1.225 3.358-.034.637-.328 1.248-.75 1.728-.01.009-.018.017-.018.026-.017.018-.026.035-.043.044a.23.23 0 0 0-.043.052l-.026.026c-.19.192-.397.35-.621.48-.984.558-2.4.785-3.521.811a5.97 5.97 0 0 1-.95-.06h-.008c-.112-.018-.233-.036-.345-.062-.018 0-.035-.008-.052-.008l-.12-.027c-.027-.008-.044-.008-.07-.017a.44.44 0 0 0-.095-.018c-.026-.008-.052-.008-.069-.017-.034-.009-.06-.017-.086-.017-.026-.01-.052-.01-.078-.018-.026-.009-.052-.017-.078-.017-.025-.009-.051-.018-.077-.018-.026-.008-.052-.017-.078-.017l-.078-.026c-.025-.01-.043-.018-.069-.018l-.077-.026c-.026-.009-.043-.017-.06-.026-.027-.009-.052-.018-.07-.026-.008 0-.008 0-.017-.01-.31-.112-.56-.226-.69-.33C.042 6.495-.2 5.457.162 4.497.3 4.123.5 3.765.732 3.425c0-.009.008-.009.008-.018.044-.06.087-.122.13-.174-.017-.018-.009-.035.008-.044zM.387 4.471c-.06.174.043.384.172.532.104.122.31.052.397.174.086.122-.155.393-.198.506-.078.218.051.306.224.41.155.096.397.079.544.192.19.157.008.297-.087.437-.258.383.19.61.587.689.345.07.578-.096.76-.079.164.018.276.149.37.262.294.34.7.122.993-.087.147-.105.276-.183.466-.175.233.018.225.192.371.306.138.104.449.043.596.017.181-.035.37-.14.535-.235a1.22 1.22 0 0 0 .414-.402c.104-.166.155-.34.328-.436a.413.413 0 0 1 .51.052c.146.14.258.184.465.07.155-.078.268-.253.363-.401.397-.68-.018-1.126-.078-1.466-.026-.14-.035-.349-.173-.454-.112-.078-.267-.06-.38-.113-.284-.14-.517-.445-.63-.733-.068-.157-.112-.366-.025-.532.095-.175.207-.244.138-.462a.902.902 0 0 0-.294-.42 1.737 1.737 0 0 1-.336-.374c-.19-.288-.19-.567-.035-.882.25-.514-.259-.654-.405-.689-.19-.043-.371-.07-.561-.008-.156.052-.406.14-.518.253-.13.14-.095.305-.155.47-.104.332-.622.48-.924.507-.354.035-.785-.122-1.104.104-.277.192-.26.594-.553.76-.328.183-.56.165-.76.4-.198.236.018.367-.18.76-.225.427-.553.235-.837 1.047z"/>
        <path id="bL" d="M.135.208A.824.824 0 0 1 .317.042c.095-.061.25-.079.302.113.043.148-.06.253-.13.323C.351.6-.27.731.135.208z"/>
        <path id="bM" d="M.006.35C-.064.104.498-.149.6.104.705.375.075.602.006.349z"/>
        <path id="bN" d="M.007.38C-.071.108.533-.162.654.117.766.397.076.65.007.379z"/>
        <path id="bO" d="M.416.43C.32.465.027.552 0 .387-.016.238.131.134.234.073.347.01.528-.058.614.08.7.23.545.378.416.431z"/>
        <path id="bP" d="M.07.397C-.189.214.338-.083.536.022.881.214.303.554.07.397z"/>
        <path id="bQ" d="M.06.364C-.18.163.37-.09.552.032.88.25.276.538.06.364z"/>
        <path id="bR" d="M.497.473C.342.55.17.569.04.473-.08.377.1.193.204.133c.112-.07.354-.21.457-.08.113.14-.025.35-.164.42z"/>
        <path id="bS" d="M.16.08C.29 0 .445-.035.566.043.686.123.53.297.454.358.359.428.16.568.048.463-.064.358.04.158.16.079z"/>
        <path id="bT" d="M.287.01C.149.044.028.132.002.263c-.026.13.19.14.285.122C.39.367.615.324.615.185c0-.15-.199-.21-.328-.175z"/>
        <path id="bU" d="M.172.08C.059.178-.027.317.008.448.042.587.249.491.336.44.43.369.62.229.56.089.491-.04.275-.014.172.082z"/>
        <path id="bV" d="M.532.356C.428.461.238.47.109.452-.184.41.187.051.377.007c.19-.043.388.114.155.35z"/>
        <path id="bW" d="M.053.424C-.077.346.062.171.14.11.226.05.338-.02.45.006c.095.026.164.113.147.209-.043.2-.38.305-.544.21z"/>
        <path id="bX" d="M.057.441C-.081.363.066.171.143.12.23.058.35-.021.471.005.566.031.635.12.618.223.583.433.23.546.057.441z"/>
        <path id="bY" d="M.504.343C.384.378.228.44.107.413.037.396-.013.352.003.273.021.221.055.16.098.133.21.048.408-.048.547.03.677.1.642.3.504.343z"/>
        <path id="bZ" d="M.417.008C.296.043.132.086.046.174c-.052.052-.07.113 0 .174A.267.267 0 0 0 .2.409C.339.418.563.383.632.243.692.113.555-.036.417.008z"/>
        <path id="ca" d="M.66.108C.755.248.591.43.47.492.367.544.16.57.056.518-.108.43.134.256.203.195.263.15.539-.067.608.02L.66.108z"/>
        <path id="cb" d="M.656.094C.759.278.604.4.449.47.336.522.103.574.026.435-.07.269.12.173.233.095c.078-.053.32-.184.423 0z"/>
        <path id="cc" d="M.613.09C.708.266.57.379.423.44.319.483.103.535.026.405-.07.248.12.16.216.09c.069-.053.302-.175.397 0z"/>
        <path id="cd" d="M.57.419a.517.517 0 0 1-.398.122C-.018.524-.052.367.077.236.147.157.345.018.474 0 .604-.008.828.2.57.42z"/>
        <path id="ce" d="M.499.408c-.13.07-.32.14-.44.07C-.088.399.076.216.17.128.274.034.455-.053.568.043.68.129.637.33.498.408z"/>
        <path id="cf" d="M.443.331C.339.375.183.479.07.444-.119.384.123.191.184.122.279.017.468-.053.589.052.745.174.555.279.443.33z"/>
        <path id="cg" d="M.43.059c.225.122.423.68.492.898.13.402.112.846.155 1.265.035.384-.025.89.147 1.257.164.349.682.235.682.4 0 .167-.734.193-1.113-.113-.406-.322-.63-.898-.725-1.334-.121-.576-.07-.986.069-1.553C.189.678.102-.238.43.059c.095.052 0 0 0 0z"/>
        <path id="ch" d="M1.476 1.022a.953.953 0 0 1-.181.331c-.086.087-.155.157-.224.253-.052.079-.147.21-.242.244-.138.044-.224-.087-.268-.2-.06-.14-.12-.27-.19-.402C.303 1.135.226 1.03.157.917.113.847.086.777.052.707 0 .611-.025.585.035.481.113.324.268.262.432.21c.293-.097.69-.341.992-.123.25.183.147.69.052.933z"/>
        <path id="ci" d="M.95 1.554c-.12.018-.216-.183-.25-.28A.944.944 0 0 1 .665.927C.682.796.717.656.77.525.82.402.915.333 1.01.245c.052-.052.216-.209.06-.244C1.029-.008.934.036.89.045.83.062.786.062.717.062c-.25-.026-.5-.14-.665.131-.19.314.19.55.285.803.32.811.613.558.613.558z"/>
        <path id="cj" d="M2.118 3.481a1.498 1.498 0 0 0-.095-.672 3.357 3.357 0 0 0-.45-.785c-.24-.314-.577-.55-.853-.829C.512.977.254.672.288.332.305.192.478.044.4.009.314-.035.193.087.141.236.046.463-.282.916.573 1.78c.216.218.466.349.587.637.12.28.224.576.388.82.052.079.104.174.19.227a.855.855 0 0 0 .25.087l.13-.07z"/>
        <path id="ck" d="M1.744 1.86c-.052-.183-.363-.174-.5-.192-.147-.017-.294-.026-.44-.052-.242-.044-.527-.114-.665-.34C-.008 1.04-.025.813.027.543.052.429.182-.033.337.002.39.01.467.159.484.194c.043.078.069.174.103.253C.674.62.751.778.907.9c.146.114.302.175.457.262.07.035.138.079.199.122.12.105.12.245.18.376v.2z"/>
        <path id="cl" d="M.2 1.537C.105 1.46.088 1.232.096 1.12a.705.705 0 0 1 .121-.35C.364.535.65.422.9.343c.19-.06.043-.14-.052-.2C.752.089.631-.016.52.002.26.046.122.333.053.56.027.665-.007.778.001.883c0 .052 0 .131.018.175.017.087.051.2.086.279l.095.2z"/>
        <path id="cm" d="M.207 1.992c.51-.114.958-.314 1.338-.69.207-.2.354-.4.466-.663.043-.104.172-.453.095-.558C2.07.029 1.942.029 1.89.02c-.104-.026-.181-.035-.285.026-.164.087-.069.314-.095.489-.06.418-.38.785-.768.95-.13.062-.259.123-.397.149-.077.017-.32.009-.345.052l.207.306z"/>
        <path id="cn" d="M.544 1.11c.043.226.06.584-.052.793-.017.035-.051.044-.077.018-.199-.227-.225-.594-.277-.873C.01.307-.017.028.01.01c.25-.113.475.76.535 1.1z"/>
        <path id="co" d="M.093.003C.11.012.127.021.136.038c.034.018.06.053.078.079 0 .008.008.008.008.017C.231.16.24.195.248.221c.009.035.017.061.017.096V.344A.3.3 0 0 1 .274.43C.274.448.248.5.257.518.274.57.214.648.179.614.076.605.032.396.015.317A.244.244 0 0 1 .006.24a.215.215 0 0 1 0-.105C.006.1.024.064.05.03c0-.026.026-.034.043-.026z"/>
        <path id="cp" d="M.07 0c.12.018.293.28.327.385.035.122.121.244.181.357.044.105.044.227.087.323a.084.084 0 0 1-.018.079c-.017.026-.043.035-.06.008-.035-.035-.104-.06-.12-.096C.413.96.38.856.336.76.242.533.077.332.009.097-.017.062.017-.008.069 0z"/>
        <path id="cq" d="M.547.056C.487.405.41.833.09 1.033c-.009.009-.009.018-.017.018l-.017.008c-.07.027-.07-.096-.026-.122C.332.763.4.37.453.056c0-.061.103-.087.094 0z"/>
        <path id="cr" d="M.147.048c0 .035-.018.07-.043.088L.06.153C.026.17.01.136 0 .109 0 .074.017.04.043.022L.086.005c.035-.018.052.017.06.043z"/>
        <path id="cs" d="M.126.05c.06.034.156.052.208.069.112.044.224.087.336.14.078.034.156.052.216.113.026.026.155.148.138.157.069-.035.069.105.009.13l-.018.01C.998.677.981.669.972.65.852.451.618.381.412.302.29.26.108.232.013.128-.02.093.014.032.05.014L.066.006c.043-.018.06.008.06.043z"/>
        <path id="ct" d="M.094.031l.009.026c.026 0 .034.026.043.044C.146.136.13.17.103.188L.086.197C.06.205.043.188.034.17L.008.11C-.027.04.06-.048.094.03z"/>
        <path id="cu" d="M.333.017L.35.034C.385.051.385.095.367.13c.044.183 0 .384-.069.558C.264.776.186.941.091.958-.073.995.031.663.048.602.118.41.1.165.255.017c.026-.018.06-.027.078 0z"/>
        <path id="cv" d="M3.739 3.997c-.035-.105-.06-.227-.138-.314-.052-.052-.138-.122-.225-.131-.095-.009-.215.105-.31.14-.19.087-.527.026-.579-.219-.06-.261.113-.41.311-.532-.026-.27-.069-.872-.483-.698-.164.07-.31.166-.458.027-.112-.114-.103-.367-.051-.515.086-.21.25-.236.44-.297.078-.026.207-.06.198-.166-.008-.113-.138-.174-.224-.174-.199-.009-.397.052-.596.035-.19-.018-.267-.2-.241-.393.034-.192.164-.27.31-.366.121-.079.311-.21.225-.384-.07.026-.147-.018-.216-.009-.078.009-.19.035-.267.061-.156.053-.346.096-.475.21C.9.324.84.385.822.472.805.542.83.612.805.69c-.07.184-.242.297-.389.376-.13.07-.362.122-.405.287-.06.227.146.297.328.27.31-.043.776-.252.992.114.25.42-.526.541-.716.716-.121.104-.138.392-.052.514.086.123.354.123.466.114.19-.026.302-.175.492-.2.112-.018.31.095.38.2.224.323-.26.68-.484.829-.155.104-.37.14-.38.357-.008.201.096.367.285.445.328.14.656-.157.967-.244.13-.035.31-.061.406.044.112.113.095.305.31.279.164-.018.285-.105.406-.192.112-.079.293-.122.362-.244.087-.122 0-.245-.034-.358z"/>
        <path id="cw" d="M1.056.627a.287.287 0 0 1-.078.306c-.112.122-.233.087-.388.087-.225 0-.544.044-.587-.262-.035-.27.25-.462.431-.593.26-.174.389-.288.544.07l.078.392z"/>
        <path id="cx" d="M.532.217c.06.149.112.245-.034.35C.386.644.16.68.049.6-.149.453.308-.167.48.043l.052.174z"/>
        <path id="cy" d="M.196.156C.127.235.127.357.231.401.265.418.3.418.335.427.188.471.032.462.007.348c-.06-.2.31-.41.5-.331-.13-.018-.233.044-.31.14z"/>
        <path id="cz" d="M.488.005C.463.014.428.023.402.031a.687.687 0 0 0-.19.166c-.06.07-.043.166 0 .244L.29.468A.343.343 0 0 1 .057.44C-.081.363.066.171.143.12.23.058.35-.021.471.005c.009-.009.017 0 .017 0z"/>
        <path id="cA" d="M.372.01a.253.253 0 0 1 .18.017C.424.053.209.087.174.236.147.366.285.41.415.428a.777.777 0 0 1-.311.026C-.181.41.19.053.372.009z"/>
        <path id="cB" d="M.517.01a1.26 1.26 0 0 0-.293.13C.12.203.112.334.232.386L.31.411c-.043 0-.078.01-.112 0a.267.267 0 0 1-.155-.06c-.07-.053-.044-.123 0-.175C.129.089.293.045.413.01c.035-.017.07-.009.104 0z"/>
        <path id="cC" d="M.237.101C.297.058.435-.02.547.005a.674.674 0 0 0-.336.2C.064.373.289.45.427.477.306.52.099.564.02.433-.065.267.133.18.237.1z"/>
        <path id="cD" d="M.155.23C.07.378.181.448.302.474.198.5.078.49.026.404-.07.247.12.16.216.09.268.055.38-.015.475.003.354.055.225.107.155.23z"/>
        <path id="cE" d="M.152.21C.048.386.186.439.324.439.23.49.117.534.048.464-.064.359.04.158.16.08A.478.478 0 0 1 .436 0C.324.045.221.097.152.211z"/>
        <path id="cF" d="M.537.014C.408.05.27.102.192.224.115.337.218.38.322.39.235.433.14.468.072.442-.119.38.122.189.183.119.27.032.425-.029.537.014z"/>
        <path id="cG" d="M.535.009C.483.026.43.044.379.069.371.07.371.08.362.088.242.174.12.357.198.497c.009.009.017.009.026.018C.24.523.267.532.293.54a.282.282 0 0 1-.12 0C-.018.523-.053.366.076.236.147.157.345.017.474 0 .5 0 .517 0 .534.009z"/>
        <path id="cH" d="M.18.17C.113.25.113.388.216.432c.035.017.07.017.113.009C.24.5.043.58.008.449-.026.32.051.18.172.083A.338.338 0 0 1 .44.004.63.63 0 0 0 .18.17z"/>
        <path id="cI" d="M.001.263C.027.132.148.053.286.01a.352.352 0 0 1 .19.008C.39.062.304.097.217.158c-.103.07-.069.166 0 .235-.095 0-.233-.026-.216-.13z"/>
        <path id="cJ" d="M.552.033a.66.66 0 0 0-.328.104C.121.2.138.303.233.373.259.39.285.399.31.408.215.417.12.408.06.356-.18.155.37-.09.552.033z"/>
        <path id="cK" d="M.58.084a.37.37 0 0 0-.301.14C.227.285.175.381.2.46c.008.052.06.078.103.095C.097.617-.162.582.132.207A.824.824 0 0 1 .313.04c.078-.053.199-.07.268.043z"/>
        <path id="cL" d="M.194.332c-.052.13.078.174.207.183C.29.55.142.558.056.515-.108.427.134.253.203.192.254.148.453 0 .557 0 .41.07.254.166.194.332z"/>
        <path id="cM" d="M.2.132C.312.062.554-.077.658.054l.008.009a.69.69 0 0 0-.362.14C.2.272.148.42.269.507a.065.065 0 0 0 .035.017c-.095.009-.19 0-.26-.061C-.084.377.098.194.2.132z"/>
        <path id="cN" d="M.193.16C.055.3.185.37.314.404a.421.421 0 0 1-.207.009C.037.396-.013.352.003.273.021.221.055.16.098.133.21.048.408-.048.547.03a.523.523 0 0 0-.354.13z"/>
        <path id="cO" d="M.007.381c-.06-.21.302-.419.509-.375C.473.015.42.023.378.04.248.119.128.233.136.39a.316.316 0 0 0 .155.096C.153.512.033.486.007.38z"/>
        <path id="cP" d="M.153.227C.024.454.335.437.49.41.36.48.18.54.059.48-.088.4.076.218.17.13A.517.517 0 0 1 .438 0a.496.496 0 0 0-.285.227z"/>
        <path id="cQ" d="M.069.393C-.173.218.284-.052.5.009.38.035.215.087.155.175c-.07.104.034.209.12.244.01 0 .018.009.018.009C.207.445.129.436.069.393z"/>
        <path id="cR" d="M0 .346C0 .32.009.302.009.276A.37.37 0 0 1 .139.11C.223.05.336-.02.448.006c.017 0 .026.008.043.017a.568.568 0 0 0-.173.052.401.401 0 0 0-.146.149C.113.32.138.398.198.468A.233.233 0 0 1 .06.433C.017.407 0 .381 0 .346z"/>
        <path id="cS" d="M.209.195C.13.273.149.378.226.448.234.456.252.465.26.474.148.5.02.49.001.387-.016.238.131.134.234.072.312.03.442-.023.528.012a.698.698 0 0 0-.32.183z"/>
        <path id="cT" d="M.172.015C.181.024.181.032.189.04.19.05.198.06.198.067c0 .018 0 .026-.009.044 0 .017 0 .043-.017.06a.178.178 0 0 1-.07.07c-.008 0-.008 0-.016.01C.077.258.068.258.06.267.043.277.025.268.017.25-.018.198.008.128.034.085.06.032.12-.03.172.015z"/>
        <path id="cU" d="M.211.037C.22.055.22.063.22.081.22.133.185.185.142.22.108.246.073.28.03.246-.022.212.004.133.03.09A.265.265 0 0 1 .16.002C.184-.006.201.011.21.037z"/>
        <path id="cV" d="M.188.005c.035-.018.052.017.06.043 0 .018 0 .035-.008.044C.24.1.232.109.223.118c0 .009-.009.018-.017.026C.197.17.18.197.17.214a.16.16 0 0 1-.069.061C.085.284.042.301.025.284-.062.197.102.048.17.014.18.003.18.003.188.003c-.008 0 0 0 0 0z"/>
        <path id="cW" d="M.1.03C.126.09.04.178.005.1-.021.047.065-.05.1.03z"/>
        <path id="cX" d="M.111.028C.13.046.13.072.137.098.163.16.077.247.042.168L.025.133C-.018.116-.001.028.042.011L.051.002c.034-.008.06.009.06.026z"/>
        <path id="cY" d="M.143.01A.099.099 0 0 1 .16.148C.152.166.143.184.126.192.09.21.066.227.03.22-.004.209-.004.166.005.14A.141.141 0 0 1 .039.08C.048.061.065.052.074.043.082.018.117-.016.143.01z"/>
        <path id="cZ" d="M.217.001C.243.001.26.02.26.045l.009.009.008.008C.286.08.277.106.27.124.269.132.26.14.26.14.243.193.191.228.14.246.086.272.01.272 0 .193-.008.133.036.08.08.045.113.028.174-.007.217.001z"/>
        <path id="da" d="M.218.002C.244-.006.26.011.269.028v.01c0 .008 0 .017.01.017v.069C.268.142.26.16.26.168A.479.479 0 0 1 .2.247C.156.29.087.343.027.299-.032.255.019.159.054.116A.46.46 0 0 1 .218.002z"/>
        <path id="db" d="M.166.009C.192-.01.218 0 .236.035a.075.075 0 0 1 0 .061.067.067 0 0 1-.018.044.18.18 0 0 1-.095.113c.018-.009 0 0-.008 0-.009 0-.009.009-.018.009a.159.159 0 0 1-.06.017C-.023.262.002.157.028.122A.332.332 0 0 1 .158.01h.008z"/>
        <path id="dc" d="M.25.045l.01.01.008.008c.009.017 0 .043-.009.06A.239.239 0 0 1 .2.238C.164.272.095.325.044.307-.034.281.009.177.044.124A.348.348 0 0 1 .199.002C.225-.007.242.019.25.045z"/>
        <path id="dd" d="M.1.031C.126.092.04.18.005.101-.021.04.065-.047.1.031z"/>
        <path id="de" d="M.177 0h.025s.01 0 .01.009L.22.017c0 .01 0 .01.008.018V.062C.211.147.108.191.03.173-.022.166.004.08.03.052.073.035.125.017.177 0z"/>
        <path id="df" d="M.29.007c.025.008.034.06.017.096a.19.19 0 0 1-.104.113C.143.25.1.277.031.268-.004.26-.004.208.005.19.022.146.057.12.09.094A.548.548 0 0 1 .246.007c.018-.01.035-.01.044 0z"/>
        <path id="dg" d="M.078.03c.01 0 .01 0 0 0C.088.03.096.023.104.023.122.013.13.013.147.005.182-.013.2.022.207.048c0 .035-.016.07-.042.088C.122.153.044.196.009.144-.008.118.001.074.018.048.035.022.061.013.078.031z"/>
        <path id="dh" d="M.062 0c.034 0 .043.035.043.061a.08.08 0 0 1-.026.061C.062.14.027.148.01.122-.007.096.001.07.01.044.019.026.036 0 .062 0z"/>
        <path id="di" d="M.159.004c.017-.009.025 0 .034 0C.21.004.228.03.236.047c0 .018 0 .035-.008.053C.219.117.21.126.202.143c0 0 0 .01-.009.01C.184.16.184.17.167.17a.066.066 0 0 1-.043.017.175.175 0 0 1-.095 0A.07.07 0 0 1 .003.11C.02.039.098.02.16.004z"/>
        <path id="dj" d="M.057.002c.026-.009.052.017.06.043a.086.086 0 0 1 .01.079.176.176 0 0 1-.035.07C.066.22.032.22.014.184A.147.147 0 0 1 .006.08V.072c0-.035.017-.062.051-.07z"/>
        <path id="dk" d="M.135.009C.153 0 .161.009.17.017c.017 0 .026.01.034.027.009.026.009.043 0 .06a.166.166 0 0 1-.06.097C.109.236.049.253.014.209-.02.166.015.105.04.07A.377.377 0 0 1 .1.018C.11.01.119.01.128 0l.008.009z"/>
        <path id="dl" d="M.173.005c.034-.018.051.017.06.043 0 .035-.017.07-.043.079a.94.94 0 0 0-.13.07C.035.214.01.179 0 .153 0 .118.017.083.043.074.06.066.078.048.095.04.12.022.147.013.173.005z"/>
        <path id="dm" d="M.139.046C.156.003.208-.024.234.03.25.064.26.09.25.125.242.142.234.177.216.204.182.264.104.299.044.308.018.308 0 .282 0 .265-.008.177.06.09.139.046z"/>
        <path id="dn" d="M.1.031C.126.092.04.18.005.101-.021.04.065-.047.1.031z"/>
        <path id="do" d="M.225.012c.017 0 .034.027.034.044 0 .017 0 .035-.008.052C.25.117.242.126.242.134.225.187.182.222.147.257.121.283.061.335.027.3-.026.257.008.17.043.126A.538.538 0 0 1 .199.004c.009-.01.017 0 .026.008z"/>
        <path id="dp" d="M.224.035A.2.2 0 0 1 .25.13C.25.174.224.209.207.244.173.288.104.34.052.323.017.314 0 .27 0 .236 0 .2.017.174.035.14.043.113.078.079.095.06A.23.23 0 0 1 .147.017C.173 0 .207-.017.224.035z"/>
        <path id="dq" d="M.23.009c.008.008.008.008.008.017C.264.096.203.157.16.201.126.227.074.253.03.244-.003.236-.003.192.006.166.03.07.108.035.186 0c.017 0 .035 0 .043.009z"/>
        <path id="dr" d="M.1.026C.124.087.038.174.003.096-.02.043.074-.044.1.026z"/>
        <path id="ds" d="M.1.03C.126.09.04.178.005.1-.021.047.065-.05.1.03z"/>
        <path id="dt" d="M.181.002c.035-.009.052.017.06.043 0 .01 0 .027-.008.035 0 .018-.009.035-.017.053C.207.15.19.176.164.185.147.194.129.21.104.21h-.07C.018.211.01.185 0 .167.009.063.112.027.181.002z"/>
        <path id="du" d="M.309.03C.326.075.283.136.249.136c.008.01.008.018.008.027.009.008.009.017.009.026 0 .026-.009.06-.035.078C.214.293.188.301.162.32A.295.295 0 0 1 .05.345C-.028.336-.002.223.04.188.058.17.084.17.111.162a.077.077 0 0 1 .042-.01.066.066 0 0 0 .044-.017h.025C.222.127.214.127.214.118.188.04.283-.048.309.031z"/>
        <path id="dv" d="M.194.003c.026-.008.052 0 .06.026.01.01 0 .027 0 .044 0 .018-.008.035-.008.052a.181.181 0 0 1-.052.088.257.257 0 0 1-.146.104C.03.317.013.3.005.282-.013.222.022.16.065.117a.276.276 0 0 1 .13-.114z"/>
    </defs>
</svg>
