<svg width="145" height="14" viewBox="0 0 145 14" version="1.1" xmlns="http://www.w3.org/2000/svg" xmlns:xlink="http://www.w3.org/1999/xlink">
<g id="Canvas" fill="none">
<g id="Developed by">
<g id="Developed by_2">
<path d="M 1.44942 4.459L 3.54242 4.459C 4.84242 4.459 5.83042 4.82733 6.50642 5.564C 7.19108 6.30067 7.53342 7.345 7.53342 8.697C 7.53342 10.049 7.19108 11.1063 6.50642 11.869C 5.83042 12.623 4.85542 13 3.58142 13L 1.44942 13L 1.44942 4.459ZM 3.46442 12.207C 4.48708 12.207 5.25408 11.9037 5.76542 11.297C 6.28542 10.6817 6.54542 9.815 6.54542 8.697C 6.54542 7.59633 6.28542 6.747 5.76542 6.149C 5.25408 5.551 4.48708 5.252 3.46442 5.252L 2.41142 5.252L 2.41142 12.207L 3.46442 12.207ZM 14.1411 9.49C 14.1411 9.71533 14.1281 9.906 14.1021 10.062L 9.74707 10.062C 9.79041 10.7987 10.0157 11.3707 10.4231 11.778C 10.8391 12.1853 11.3461 12.389 11.9441 12.389C 12.4987 12.389 13.0317 12.22 13.5431 11.882L 13.8941 12.506C 13.5821 12.7053 13.2614 12.8657 12.9321 12.987C 12.6027 13.0997 12.2344 13.156 11.8271 13.156C 11.2724 13.156 10.7654 13.026 10.3061 12.766C 9.85541 12.4973 9.49574 12.1117 9.22707 11.609C 8.96707 11.1063 8.83707 10.5213 8.83707 9.854C 8.83707 9.19533 8.96707 8.61467 9.22707 8.112C 9.49574 7.60933 9.84674 7.22367 10.2801 6.955C 10.7134 6.67767 11.1727 6.539 11.6581 6.539C 12.4381 6.539 13.0447 6.80333 13.4781 7.332C 13.9201 7.852 14.1411 8.57133 14.1411 9.49ZM 13.2961 9.373C 13.2961 8.70567 13.1531 8.19433 12.8671 7.839C 12.5811 7.48367 12.1824 7.306 11.6711 7.306C 11.2031 7.306 10.7871 7.48367 10.4231 7.839C 10.0591 8.19433 9.84241 8.70567 9.77307 9.373L 13.2961 9.373ZM 14.8694 6.695L 15.8444 6.695L 17.0924 10.374L 17.6904 12.22L 17.7424 12.22L 18.3404 10.374L 19.5884 6.695L 20.5244 6.695L 18.2624 13L 17.1704 13L 14.8694 6.695ZM 26.5571 9.49C 26.5571 9.71533 26.5441 9.906 26.5181 10.062L 22.1631 10.062C 22.2064 10.7987 22.4318 11.3707 22.8391 11.778C 23.2551 12.1853 23.7621 12.389 24.3601 12.389C 24.9148 12.389 25.4478 12.22 25.9591 11.882L 26.3101 12.506C 25.9981 12.7053 25.6774 12.8657 25.3481 12.987C 25.0188 13.0997 24.6504 13.156 24.2431 13.156C 23.6884 13.156 23.1814 13.026 22.7221 12.766C 22.2714 12.4973 21.9118 12.1117 21.6431 11.609C 21.3831 11.1063 21.2531 10.5213 21.2531 9.854C 21.2531 9.19533 21.3831 8.61467 21.6431 8.112C 21.9118 7.60933 22.2628 7.22367 22.6961 6.955C 23.1294 6.67767 23.5888 6.539 24.0741 6.539C 24.8541 6.539 25.4608 6.80333 25.8941 7.332C 26.3361 7.852 26.5571 8.57133 26.5571 9.49ZM 25.7121 9.373C 25.7121 8.70567 25.5691 8.19433 25.2831 7.839C 24.9971 7.48367 24.5984 7.306 24.0871 7.306C 23.6191 7.306 23.2031 7.48367 22.8391 7.839C 22.4751 8.19433 22.2584 8.70567 22.1891 9.373L 25.7121 9.373ZM 29.1725 13.156C 28.8172 13.156 28.5572 13.0477 28.3925 12.831C 28.2279 12.6057 28.1455 12.2763 28.1455 11.843L 28.1455 3.718L 29.0815 3.718L 29.0815 11.921C 29.0815 12.0683 29.1075 12.181 29.1595 12.259C 29.2202 12.3283 29.2939 12.363 29.3805 12.363C 29.4499 12.363 29.5279 12.3543 29.6145 12.337L 29.7445 13.065C 29.5799 13.1257 29.3892 13.156 29.1725 13.156ZM 33.8005 13.156C 33.2805 13.156 32.7995 13.026 32.3575 12.766C 31.9155 12.4973 31.5602 12.116 31.2915 11.622C 31.0315 11.1193 30.9015 10.53 30.9015 9.854C 30.9015 9.178 31.0315 8.58867 31.2915 8.086C 31.5602 7.58333 31.9155 7.202 32.3575 6.942C 32.7995 6.67333 33.2805 6.539 33.8005 6.539C 34.3205 6.539 34.8015 6.67333 35.2435 6.942C 35.6855 7.202 36.0365 7.58333 36.2965 8.086C 36.5652 8.58867 36.6995 9.178 36.6995 9.854C 36.6995 10.53 36.5652 11.1193 36.2965 11.622C 36.0365 12.116 35.6855 12.4973 35.2435 12.766C 34.8015 13.026 34.3205 13.156 33.8005 13.156ZM 33.8005 12.363C 34.1732 12.363 34.5025 12.259 34.7885 12.051C 35.0832 11.843 35.3129 11.5483 35.4775 11.167C 35.6422 10.7857 35.7245 10.348 35.7245 9.854C 35.7245 9.36 35.6422 8.92233 35.4775 8.541C 35.3129 8.15967 35.0832 7.865 34.7885 7.657C 34.5025 7.44033 34.1732 7.332 33.8005 7.332C 33.4279 7.332 33.0942 7.44033 32.7995 7.657C 32.5135 7.865 32.2882 8.15967 32.1235 8.541C 31.9675 8.92233 31.8895 9.36 31.8895 9.854C 31.8895 10.608 32.0672 11.2147 32.4225 11.674C 32.7779 12.1333 33.2372 12.363 33.8005 12.363ZM 38.416 6.695L 39.196 6.695L 39.274 7.449L 39.313 7.449C 40.0497 6.84233 40.73 6.539 41.354 6.539C 42.16 6.539 42.7754 6.82933 43.2 7.41C 43.6334 7.982 43.85 8.762 43.85 9.75C 43.85 10.4433 43.7244 11.05 43.473 11.57C 43.2217 12.0813 42.888 12.4757 42.472 12.753C 42.056 13.0217 41.6054 13.156 41.12 13.156C 40.5567 13.156 39.9587 12.909 39.326 12.415L 39.352 13.533L 39.352 15.704L 38.416 15.704L 38.416 6.695ZM 40.964 12.35C 41.328 12.35 41.653 12.246 41.939 12.038C 42.2337 11.8213 42.4634 11.518 42.628 11.128C 42.7927 10.738 42.875 10.283 42.875 9.763C 42.875 9.009 42.732 8.41967 42.446 7.995C 42.1687 7.56167 41.731 7.345 41.133 7.345C 40.6044 7.345 40.0107 7.64833 39.352 8.255L 39.352 11.661C 39.638 11.9037 39.9197 12.0813 40.197 12.194C 40.4744 12.298 40.73 12.35 40.964 12.35ZM 50.3989 9.49C 50.3989 9.71533 50.3859 9.906 50.3599 10.062L 46.0049 10.062C 46.0482 10.7987 46.2736 11.3707 46.6809 11.778C 47.0969 12.1853 47.6039 12.389 48.2019 12.389C 48.7566 12.389 49.2896 12.22 49.8009 11.882L 50.1519 12.506C 49.8399 12.7053 49.5192 12.8657 49.1899 12.987C 48.8606 13.0997 48.4922 13.156 48.0849 13.156C 47.5302 13.156 47.0232 13.026 46.5639 12.766C 46.1132 12.4973 45.7536 12.1117 45.4849 11.609C 45.2249 11.1063 45.0949 10.5213 45.0949 9.854C 45.0949 9.19533 45.2249 8.61467 45.4849 8.112C 45.7536 7.60933 46.1046 7.22367 46.5379 6.955C 46.9712 6.67767 47.4306 6.539 47.9159 6.539C 48.6959 6.539 49.3026 6.80333 49.7359 7.332C 50.1779 7.852 50.3989 8.57133 50.3989 9.49ZM 49.5539 9.373C 49.5539 8.70567 49.4109 8.19433 49.1249 7.839C 48.8389 7.48367 48.4402 7.306 47.9289 7.306C 47.4609 7.306 47.0449 7.48367 46.6809 7.839C 46.3169 8.19433 46.1002 8.70567 46.0309 9.373L 49.5539 9.373ZM 54.1063 13.156C 53.309 13.156 52.6763 12.8657 52.2083 12.285C 51.749 11.7043 51.5193 10.894 51.5193 9.854C 51.5193 9.19533 51.645 8.61467 51.8963 8.112C 52.1477 7.60933 52.4813 7.22367 52.8973 6.955C 53.322 6.67767 53.777 6.539 54.2623 6.539C 54.6003 6.539 54.9037 6.59967 55.1723 6.721C 55.441 6.84233 55.7357 7.02867 56.0563 7.28L 56.0173 6.188L 56.0173 3.718L 56.9533 3.718L 56.9533 13L 56.1733 13L 56.0953 12.233L 56.0563 12.233C 55.7877 12.5103 55.4843 12.7357 55.1463 12.909C 54.817 13.0737 54.4703 13.156 54.1063 13.156ZM 54.3143 12.35C 54.6177 12.35 54.9037 12.2763 55.1723 12.129C 55.4497 11.9817 55.7313 11.7563 56.0173 11.453L 56.0173 8.034C 55.74 7.79133 55.4713 7.618 55.2113 7.514C 54.9513 7.40133 54.6827 7.345 54.4053 7.345C 54.05 7.345 53.725 7.45333 53.4303 7.67C 53.1443 7.88667 52.9147 8.18567 52.7413 8.567C 52.5767 8.94833 52.4943 9.37733 52.4943 9.854C 52.4943 10.634 52.6503 11.245 52.9623 11.687C 53.283 12.129 53.7337 12.35 54.3143 12.35ZM 64.4667 13.156C 64.172 13.156 63.8644 13.0867 63.5437 12.948C 63.223 12.8007 62.924 12.6013 62.6467 12.35L 62.6077 12.35L 62.5167 13L 61.7627 13L 61.7627 3.718L 62.6987 3.718L 62.6987 6.292L 62.6727 7.449C 63.3747 6.84233 64.0507 6.539 64.7007 6.539C 65.5067 6.539 66.122 6.82933 66.5467 7.41C 66.98 7.982 67.1967 8.762 67.1967 9.75C 67.1967 10.4433 67.071 11.05 66.8197 11.57C 66.5684 12.0813 66.2347 12.4757 65.8187 12.753C 65.4027 13.0217 64.952 13.156 64.4667 13.156ZM 64.3107 12.35C 64.6747 12.35 64.9997 12.246 65.2857 12.038C 65.5804 11.8213 65.81 11.518 65.9747 11.128C 66.1394 10.738 66.2217 10.283 66.2217 9.763C 66.2217 9.009 66.0787 8.41967 65.7927 7.995C 65.5154 7.56167 65.0777 7.345 64.4797 7.345C 63.9424 7.345 63.3487 7.64833 62.6987 8.255L 62.6987 11.661C 62.976 11.895 63.2534 12.0683 63.5307 12.181C 63.8167 12.2937 64.0767 12.35 64.3107 12.35ZM 68.8978 15.756C 68.6378 15.756 68.3995 15.7127 68.1828 15.626L 68.3648 14.859C 68.5381 14.9283 68.7028 14.963 68.8588 14.963C 69.2055 14.963 69.5001 14.833 69.7428 14.573C 69.9855 14.313 70.1805 13.962 70.3278 13.52L 70.4838 13.039L 67.9358 6.695L 68.9108 6.695L 70.2628 10.309L 70.8868 12.077L 70.9388 12.077C 71.0601 11.713 71.1858 11.3143 71.3158 10.881L 71.4848 10.309L 72.6678 6.695L 73.5908 6.695L 71.1988 13.585C 70.9561 14.261 70.6528 14.7897 70.2888 15.171C 69.9335 15.561 69.4698 15.756 68.8978 15.756Z" transform="translate(-1 -2)" fill="white"/>
</g>
<g id="globalbit_grey">
<g id="Globalbit">
<path d="M 7.85886 5.54494L 4.32425 5.54494L 4.32425 7.11798L 6.16676 7.11798L 6.16676 8.84831C 6.16676 10.4607 5.82834 10.8539 4.39945 10.8539L 3.57221 10.8539C 2.06812 10.8539 1.6921 10.4213 1.6921 8.69101L 1.6921 3.73595C 1.6921 2.00562 2.06812 1.57303 3.57221 1.57303L 4.24905 1.57303C 5.37711 1.57303 5.67793 1.73034 6.16676 2.71348L 7.52044 1.88764C 6.80599 0.47191 6.01635 0 4.21144 0L 3.57221 0C 1.05286 0 0 1.10112 0 3.73595L 0 8.69101C 0 11.3652 1.05286 12.427 3.57221 12.427L 4.39945 12.427C 6.80599 12.427 7.85886 11.3652 7.85886 8.80899L 7.85886 5.54494ZM 9.92698 0.157303L 9.92698 12.309L 11.5439 12.309L 11.5439 0.157303L 9.92698 0.157303ZM 16.921 10.9326C 16.0937 10.9326 15.7553 10.8539 15.4921 10.5787C 15.2665 10.3427 15.2289 10.0674 15.2289 8.88764L 15.2289 7.11798C 15.2289 5.97753 15.2665 5.70225 15.4921 5.42697C 15.7177 5.19101 16.0937 5.07303 16.921 5.07303L 17.1466 5.07303C 17.9738 5.07303 18.3123 5.15168 18.5755 5.42697C 18.8011 5.66292 18.8387 5.9382 18.8387 7.11798L 18.8387 8.88764C 18.8387 10.0281 18.8011 10.3034 18.5755 10.5787C 18.3499 10.8146 17.9738 10.9326 17.1466 10.9326L 16.921 10.9326ZM 13.612 8.84831C 13.612 10.3427 13.8 11.0506 14.3264 11.6011C 14.8905 12.191 15.5297 12.3876 16.8834 12.3876L 17.1466 12.3876C 18.5003 12.3876 19.1395 12.191 19.7035 11.6011C 20.2676 11.0112 20.418 10.3427 20.418 8.84831L 20.418 7.19663C 20.418 5.70225 20.23 4.99438 19.7035 4.44382C 19.1395 3.85393 18.5003 3.6573 17.1466 3.6573L 16.921 3.6573C 15.5673 3.6573 14.9281 3.85393 14.364 4.44382C 13.8 5.03371 13.6496 5.70225 13.6496 7.19663L 13.6496 8.84831L 13.612 8.84831ZM 22.5613 12.2697L 23.915 12.2697L 24.1406 11.7978C 24.5918 12.2303 25.2311 12.427 25.8327 12.3876L 26.0583 12.3876C 27.412 12.3876 28.0888 12.191 28.6529 11.6011C 29.1793 11.0112 29.3673 10.3427 29.3673 8.84831L 29.3673 7.19663C 29.3673 5.70225 29.1793 4.99438 28.6529 4.44382C 28.0888 3.85393 27.4496 3.6573 26.0583 3.6573L 25.8327 3.6573C 25.2311 3.61798 24.6294 3.85393 24.1406 4.24719L 24.1406 0.157303L 22.5613 0.157303L 22.5613 12.2697ZM 25.8327 10.9326C 24.3286 10.9326 24.1406 10.6966 24.1406 8.92697L 24.1406 7.1573C 24.1406 5.38764 24.3662 5.15169 25.8327 5.15169L 26.0583 5.15169C 26.8856 5.15169 27.224 5.23034 27.4872 5.50562C 27.7128 5.7809 27.7504 6.01685 27.7504 7.19663L 27.7504 8.96629C 27.7504 10.1067 27.7128 10.382 27.4872 10.6573C 27.2616 10.8933 26.8856 11.0112 26.0583 11.0112L 25.8327 11.0112L 25.8327 10.9326ZM 37.8654 12.2697L 37.8654 7.19663C 37.8654 5.70225 37.6774 4.99438 37.151 4.44382C 36.6245 3.85393 35.9477 3.6573 34.594 3.6573L 34.5188 3.6573C 32.8643 3.6573 32.1123 4.08989 31.5482 5.34831L 32.8267 6.0955C 33.2027 5.30899 33.5035 5.15169 34.5188 5.15169L 34.594 5.15169C 35.4213 5.15169 35.7597 5.23034 36.0229 5.50562C 36.2861 5.7809 36.2861 5.97753 36.3237 6.88202L 34.594 6.88202C 33.3155 6.88202 32.6763 7.07865 32.0747 7.58989C 31.5482 8.10112 31.2474 8.84831 31.3226 9.63483C 31.3226 11.5225 32.3379 12.4663 34.4812 12.4663L 34.5564 12.4663C 35.158 12.5056 35.7597 12.2697 36.2109 11.8764L 36.2485 11.8764L 36.4741 12.3483L 37.8654 12.2697ZM 36.2485 8.29775L 36.2485 9.35955C 36.2485 10.1461 36.2109 10.3427 35.9853 10.5787C 35.7221 10.8933 35.4589 10.9719 34.594 10.9719C 33.2403 10.9719 32.8643 10.6966 32.8643 9.71348C 32.8643 8.65168 33.2779 8.29775 34.5564 8.29775L 36.2485 8.29775ZM 40.0087 0.157303L 40.0087 12.309L 41.6256 12.309L 41.6256 0.157303L 40.0087 0.157303ZM 43.8065 12.2697L 45.1602 12.2697L 45.3858 11.7978C 45.8371 12.2303 46.4763 12.427 47.0779 12.3876L 47.3035 12.3876C 48.6572 12.3876 49.3341 12.191 49.8981 11.6011C 50.4245 11.0112 50.6125 10.3427 50.6125 8.84831L 50.6125 7.19663C 50.6125 5.70225 50.4245 4.99438 49.8981 4.44382C 49.3341 3.85393 48.6948 3.6573 47.3035 3.6573L 47.0779 3.6573C 46.4763 3.61798 45.8747 3.85393 45.3858 4.24719L 45.3858 0.157303L 43.7689 0.157303L 43.7689 12.2697L 43.8065 12.2697ZM 47.0779 10.9326C 45.5738 10.9326 45.3858 10.6966 45.3858 8.92697L 45.3858 7.1573C 45.3858 5.38764 45.6114 5.15169 47.0779 5.15169L 47.3035 5.15169C 48.1308 5.15169 48.4692 5.23034 48.7324 5.50562C 48.958 5.7809 48.9956 6.01685 48.9956 7.19663L 48.9956 8.96629C 48.9956 10.1067 48.958 10.382 48.7324 10.6573C 48.5068 10.8933 48.1308 11.0112 47.3035 11.0112L 47.0779 11.0112L 47.0779 10.9326ZM 53.5455 0.393258C 52.9439 0.393258 52.455 0.865168 52.455 1.49438C 52.455 2.1236 52.9063 2.63483 53.5079 2.63483C 54.1095 2.63483 54.5984 2.16292 54.5984 1.53371C 54.5984 0.904494 54.1095 0.432584 53.5455 0.393258ZM 52.7183 12.2697L 54.3351 12.2697L 54.3351 3.77528L 52.7183 3.77528L 52.7183 12.2697ZM 58.3962 1.53371L 56.7793 1.53371L 56.7793 3.77528L 55.8768 3.77528L 55.8768 5.23034L 56.7793 5.23034L 56.7793 8.92697C 56.7793 10.382 56.9673 11.0112 57.4937 11.6011C 58.0202 12.191 58.6594 12.3483 60.0507 12.3483L 60.3515 12.3483L 60.3515 10.8146L 60.0507 10.8146C 59.2234 10.8146 58.885 10.736 58.6594 10.5C 58.4338 10.264 58.3962 10.0281 58.3962 9.00562L 58.3962 5.26966L 59.9003 5.26966L 59.9003 3.77528L 58.3962 3.77528L 58.3962 1.53371Z" transform="translate(76 0)" fill="white"/>
</g>
<g id="Vector">
<path d="M -2.29505e-06 1.2191L 7.93406 1.2191L 7.93406 6.00065e-07L -2.29505e-06 6.00065e-07L -2.29505e-06 1.25843L -2.29505e-06 1.2191Z" transform="translate(137.066 12.7415)" fill="#FF9600"/>
</g>
</g>
</g>
</g>
</svg>

