<svg xmlns="http://www.w3.org/2000/svg" xmlns:xlink="http://www.w3.org/1999/xlink" width="145" height="18" viewBox="0 0 145 18">
    <g fill="none" data-name="Developed by">
        <use fill="#46474D" data-name="Developed by" transform="translate(-1)" xlink:href="#a"/>
        <g data-name="globalbit_grey">
            <use fill="#666870" data-name="Globalbit" transform="translate(76 2)" xlink:href="#b"/>
            <use fill="#FF9600" data-name="Vector" transform="translate(137.066 14.742)" xlink:href="#c"/>
        </g>
    </g>
    <defs>
        <path id="a" d="M1.45 4.459h2.092c1.3 0 2.288.368 2.964 1.105.685.737 1.027 1.781 1.027 3.133s-.342 2.41-1.027 3.172C5.83 12.623 4.856 13 3.581 13H1.45V4.459zm2.014 7.748c1.023 0 1.79-.303 2.301-.91.52-.615.78-1.482.78-2.6 0-1.1-.26-1.95-.78-2.548-.51-.598-1.278-.897-2.3-.897H2.41v6.955h1.053zM14.141 9.49c0 .225-.013.416-.039.572H9.747c.043.737.269 1.309.676 1.716.416.407.923.611 1.521.611.555 0 1.088-.169 1.6-.507l.35.624c-.312.2-.633.36-.962.481a3.4 3.4 0 0 1-1.105.169c-.555 0-1.062-.13-1.52-.39a2.904 2.904 0 0 1-1.08-1.157c-.26-.503-.39-1.088-.39-1.755 0-.659.13-1.24.39-1.742.269-.503.62-.888 1.053-1.157a2.514 2.514 0 0 1 1.378-.416c.78 0 1.387.264 1.82.793.442.52.663 1.24.663 2.158zm-.845-.117c0-.667-.143-1.179-.429-1.534-.286-.355-.685-.533-1.196-.533-.468 0-.884.178-1.248.533-.364.355-.58.867-.65 1.534h3.523zm1.573-2.678h.975l1.248 3.679.598 1.846h.052l.598-1.846 1.248-3.679h.936L18.262 13H17.17l-2.3-6.305zM26.557 9.49c0 .225-.013.416-.039.572h-4.355c.043.737.269 1.309.676 1.716.416.407.923.611 1.521.611.555 0 1.088-.169 1.6-.507l.35.624c-.312.2-.633.36-.962.481-.33.113-.698.169-1.105.169-.555 0-1.062-.13-1.52-.39a2.904 2.904 0 0 1-1.08-1.157c-.26-.503-.39-1.088-.39-1.755 0-.659.13-1.24.39-1.742.269-.503.62-.888 1.053-1.157a2.514 2.514 0 0 1 1.378-.416c.78 0 1.387.264 1.82.793.442.52.663 1.24.663 2.158zm-.845-.117c0-.667-.143-1.179-.429-1.534-.286-.355-.685-.533-1.196-.533-.468 0-.884.178-1.248.533-.364.355-.58.867-.65 1.534h3.523zm3.46 3.783c-.355 0-.615-.108-.78-.325-.164-.225-.247-.555-.247-.988V3.718h.936v8.203c0 .147.027.26.079.338.06.07.134.104.22.104.07 0 .148-.009.235-.026l.13.728a1.65 1.65 0 0 1-.573.091zm4.628 0c-.52 0-1-.13-1.442-.39a2.958 2.958 0 0 1-1.066-1.144c-.26-.503-.39-1.092-.39-1.768 0-.676.13-1.265.39-1.768.268-.503.623-.884 1.066-1.144a2.727 2.727 0 0 1 1.443-.403c.52 0 1 .134 1.442.403.442.26.793.641 1.053 1.144.27.503.404 1.092.404 1.768 0 .676-.135 1.265-.404 1.768-.26.494-.61.875-1.053 1.144-.442.26-.922.39-1.443.39zm0-.793c.373 0 .703-.104.989-.312.294-.208.524-.503.688-.884.165-.381.248-.819.248-1.313s-.083-.932-.248-1.313a2.038 2.038 0 0 0-.688-.884 1.592 1.592 0 0 0-.989-.325c-.372 0-.706.108-1 .325-.286.208-.512.503-.676.884a3.445 3.445 0 0 0-.235 1.313c0 .754.178 1.36.534 1.82.355.46.814.689 1.377.689zm4.616-5.668h.78l.078.754h.039c.737-.607 1.417-.91 2.041-.91.806 0 1.421.29 1.846.871.433.572.65 1.352.65 2.34 0 .693-.126 1.3-.377 1.82-.251.511-.585.906-1.001 1.183a2.444 2.444 0 0 1-1.352.403c-.563 0-1.161-.247-1.794-.741l.026 1.118v2.171h-.936V6.695zm2.548 5.655c.364 0 .689-.104.975-.312.295-.217.524-.52.689-.91.165-.39.247-.845.247-1.365 0-.754-.143-1.343-.429-1.768-.277-.433-.715-.65-1.313-.65-.529 0-1.122.303-1.781.91v3.406c.286.243.568.42.845.533a2.2 2.2 0 0 0 .767.156zm9.435-2.86c0 .225-.013.416-.04.572h-4.354c.043.737.269 1.309.676 1.716.416.407.923.611 1.52.611.556 0 1.089-.169 1.6-.507l.35.624c-.311.2-.632.36-.961.481-.33.113-.698.169-1.105.169-.555 0-1.062-.13-1.521-.39a2.904 2.904 0 0 1-1.08-1.157c-.26-.503-.39-1.088-.39-1.755 0-.659.13-1.24.39-1.742.27-.503.62-.888 1.054-1.157a2.514 2.514 0 0 1 1.378-.416c.78 0 1.387.264 1.82.793.442.52.663 1.24.663 2.158zm-.845-.117c0-.667-.143-1.179-.43-1.534-.285-.355-.684-.533-1.195-.533-.468 0-.884.178-1.248.533-.364.355-.58.867-.65 1.534h3.523zm4.552 3.783c-.797 0-1.43-.29-1.898-.871-.459-.58-.689-1.391-.689-2.431 0-.659.126-1.24.377-1.742.252-.503.585-.888 1.001-1.157.425-.277.88-.416 1.365-.416.338 0 .642.06.91.182.269.121.564.308.884.559l-.039-1.092v-2.47h.936V13h-.78l-.078-.767h-.039a3.454 3.454 0 0 1-.91.676c-.329.165-.676.247-1.04.247zm.208-.806c.304 0 .59-.074.858-.221.278-.147.56-.373.845-.676V8.034a2.868 2.868 0 0 0-.806-.52 2.007 2.007 0 0 0-.806-.169c-.355 0-.68.108-.975.325a2.281 2.281 0 0 0-.689.897c-.164.381-.247.81-.247 1.287 0 .78.156 1.391.468 1.833.321.442.772.663 1.352.663zm10.153.806c-.295 0-.603-.07-.923-.208a3.522 3.522 0 0 1-.897-.598h-.04l-.09.65h-.754V3.718h.936v2.574l-.026 1.157c.702-.607 1.378-.91 2.028-.91.806 0 1.421.29 1.846.871.433.572.65 1.352.65 2.34 0 .693-.126 1.3-.377 1.82-.252.511-.585.906-1.001 1.183a2.444 2.444 0 0 1-1.352.403zm-.156-.806c.364 0 .689-.104.975-.312.294-.217.524-.52.689-.91.164-.39.247-.845.247-1.365 0-.754-.143-1.343-.43-1.768-.277-.433-.714-.65-1.312-.65-.538 0-1.131.303-1.781.91v3.406c.277.234.554.407.832.52.286.113.546.169.78.169zm4.587 3.406c-.26 0-.498-.043-.715-.13l.182-.767c.173.07.338.104.494.104.347 0 .641-.13.884-.39s.438-.611.585-1.053l.156-.481-2.548-6.344h.975l1.352 3.614.624 1.768h.052c.121-.364.247-.763.377-1.196l.169-.572 1.183-3.614h.923l-2.392 6.89c-.243.676-.546 1.205-.91 1.586-.356.39-.82.585-1.391.585z"/>
        <path id="b" d="M7.859 5.545H4.324v1.573h1.843v1.73c0 1.613-.339 2.006-1.768 2.006h-.827c-1.504 0-1.88-.433-1.88-2.163V3.736c0-1.73.376-2.163 1.88-2.163h.677c1.128 0 1.429.157 1.918 1.14l1.353-.825C6.806.472 6.016 0 4.211 0h-.639C1.052 0 0 1.101 0 3.736v4.955c0 2.674 1.053 3.736 3.572 3.736H4.4c2.407 0 3.46-1.062 3.46-3.618V5.545zM9.927.157V12.31h1.617V.157H9.927zm6.994 10.776c-.827 0-1.166-.08-1.429-.354-.226-.236-.263-.512-.263-1.691v-1.77c0-1.14.038-1.416.263-1.691.226-.236.602-.354 1.429-.354h.226c.827 0 1.165.079 1.429.354.225.236.263.511.263 1.691v1.77c0 1.14-.038 1.415-.263 1.69-.226.237-.602.355-1.43.355h-.225zm-3.309-2.085c0 1.495.188 2.203.714 2.753.564.59 1.204.787 2.557.787h.264c1.353 0 1.993-.197 2.556-.787.565-.59.715-1.258.715-2.753V7.197c0-1.495-.188-2.203-.715-2.753-.563-.59-1.203-.787-2.556-.787h-.226c-1.354 0-1.993.197-2.557.787-.564.59-.714 1.258-.714 2.753v1.651h-.038zm8.95 3.422h1.353l.226-.472c.45.432 1.09.629 1.692.59h.225c1.354 0 2.03-.197 2.595-.787.526-.59.714-1.258.714-2.753V7.197c0-1.495-.188-2.203-.714-2.753-.564-.59-1.203-.787-2.595-.787h-.225c-.602-.039-1.204.197-1.692.59V.157h-1.58V12.27zm3.27-1.337c-1.503 0-1.691-.236-1.691-2.006v-1.77c0-1.77.225-2.005 1.692-2.005h.225c.828 0 1.166.078 1.43.354.225.275.262.51.262 1.69v1.77c0 1.14-.037 1.416-.263 1.691-.225.236-.601.354-1.429.354h-.225v-.078zm12.033 1.337V7.197c0-1.495-.188-2.203-.714-2.753-.527-.59-1.203-.787-2.557-.787h-.075c-1.655 0-2.407.433-2.97 1.691l1.278.748c.376-.787.677-.944 1.692-.944h.075c.827 0 1.166.078 1.429.354.263.275.263.472.3 1.376h-1.729c-1.279 0-1.918.197-2.52.708a2.522 2.522 0 0 0-.751 2.045c0 1.888 1.015 2.831 3.158 2.831h.075c.602.04 1.204-.196 1.655-.59h.038l.225.472 1.391-.078zm-1.617-3.972V9.36c0 .786-.037.983-.263 1.219-.263.314-.526.393-1.391.393-1.354 0-1.73-.275-1.73-1.259 0-1.061.414-1.415 1.692-1.415h1.693zm3.76-8.14v12.151h1.618V.157h-1.617zm3.798 12.112h1.354l.226-.472c.451.432 1.09.629 1.692.59h.225c1.354 0 2.031-.197 2.595-.787.526-.59.714-1.258.714-2.753V7.197c0-1.495-.188-2.203-.714-2.753-.564-.59-1.203-.787-2.595-.787h-.225c-.602-.039-1.203.197-1.692.59V.157h-1.617V12.27h.038zm3.272-1.337c-1.504 0-1.692-.236-1.692-2.006v-1.77c0-1.77.225-2.005 1.692-2.005h.225c.828 0 1.166.078 1.43.354.225.275.263.51.263 1.69v1.77c0 1.14-.038 1.416-.264 1.691-.225.236-.601.354-1.428.354h-.226v-.078zM53.545.393c-.601 0-1.09.472-1.09 1.101 0 .63.451 1.14 1.053 1.14.601 0 1.09-.471 1.09-1.1 0-.63-.489-1.101-1.053-1.14zm-.827 11.877h1.617V3.775h-1.617v8.495zm5.678-10.736H56.78v2.241h-.902V5.23h.902v3.697c0 1.455.188 2.084.715 2.674.526.59 1.165.747 2.557.747h.3v-1.533h-.3c-.828 0-1.166-.079-1.392-.315-.225-.236-.263-.472-.263-1.494V5.27H59.9V3.775h-1.504V1.534z"/>
        <path id="c" d="M0 1.22h7.934V0H0v1.258-.039z"/>
    </defs>
</svg>
