<svg xmlns="http://www.w3.org/2000/svg" xmlns:xlink="http://www.w3.org/1999/xlink" width="135" height="40" viewBox="0 0 135 40">
    <desc>
        Created using Figma
    </desc>
    <use xlink:href="#a"/>
    <use fill="#A6A6A6" xlink:href="#b"/>
    <g fill="#FFF">
        <g transform="translate(41.4 6.9)">
            <use xlink:href="#c"/>
            <use xlink:href="#d"/>
        </g>
        <g transform="translate(48.5 7)">
            <use xlink:href="#e"/>
            <use xlink:href="#f"/>
        </g>
        <g transform="translate(52.8 7)">
            <use xlink:href="#g"/>
            <use xlink:href="#h"/>
        </g>
        <g transform="translate(59.9 7)">
            <use xlink:href="#i"/>
            <use xlink:href="#j"/>
        </g>
        <g transform="translate(61.6 7)">
            <use xlink:href="#k"/>
            <use xlink:href="#l"/>
        </g>
        <g transform="translate(68.3 6.9)">
            <use xlink:href="#m"/>
            <use xlink:href="#n"/>
        </g>
        <g transform="translate(75.6 7)">
            <use xlink:href="#o"/>
            <use xlink:href="#p"/>
        </g>
    </g>
    <use fill="#FFF" transform="translate(41.1 17.1)" xlink:href="#q"/>
    <use fill="url(#s)" transform="translate(10 7.5)" xlink:href="#r"/>
    <use fill="url(#u)" transform="translate(22.9 15.8)" xlink:href="#t"/>
    <use fill="url(#w)" transform="translate(10.4 20)" xlink:href="#v"/>
    <use fill="url(#y)" transform="translate(10.4 7.17)" xlink:href="#x"/>
    <use opacity=".2" transform="translate(10.4 24.1)" xlink:href="#z"/>
    <use opacity=".12" transform="translate(10 30.9)" xlink:href="#A"/>
    <use opacity=".12" transform="translate(27 20)" xlink:href="#B"/>
    <g opacity=".25" transform="translate(-4106 -6713)">
        <use fill="#FFF" transform="translate(4116 6720.15)" xlink:href="#C"/>
    </g>
    <defs>
        <linearGradient id="s" x2="1" gradientTransform="scale(-23.7339 23.7339) rotate(45 .293 -.325)" gradientUnits="userSpaceOnUse">
            <stop offset="0" stop-color="#00A0FF"/>
            <stop offset=".007" stop-color="#00A1FF"/>
            <stop offset=".26" stop-color="#00BEFF"/>
            <stop offset=".512" stop-color="#00D2FF"/>
            <stop offset=".76" stop-color="#00DFFF"/>
            <stop offset="1" stop-color="#00E3FF"/>
        </linearGradient>
        <linearGradient id="u" x2="1" gradientTransform="matrix(-24.1969 0 0 24.1969 10.934 -7.897)" gradientUnits="userSpaceOnUse">
            <stop offset="0" stop-color="#FFE000"/>
            <stop offset=".409" stop-color="#FFBD00"/>
            <stop offset=".775" stop-color="#FFA500"/>
            <stop offset="1" stop-color="#FF9C00"/>
        </linearGradient>
        <linearGradient id="w" x2="1" gradientTransform="scale(-32.1851 32.1851) rotate(45 .293 -.255)" gradientUnits="userSpaceOnUse">
            <stop offset="0" stop-color="#FF3A44"/>
            <stop offset="1" stop-color="#C31162"/>
        </linearGradient>
        <linearGradient id="y" x2="1" gradientTransform="scale(14.372 -14.372) rotate(-45 -.124 .754)" gradientUnits="userSpaceOnUse">
            <stop offset="0" stop-color="#32A071"/>
            <stop offset=".069" stop-color="#2DA771"/>
            <stop offset=".476" stop-color="#15CF74"/>
            <stop offset=".801" stop-color="#06E775"/>
            <stop offset="1" stop-color="#00F076"/>
        </linearGradient>
        <path id="a" d="M130 40H5c-2.8 0-5-2.3-5-5V5c0-2.8 2.3-5 5-5h125c2.8 0 5 2.3 5 5v30c0 2.8-2.2 5-5 5z"/>
        <path id="b" d="M130 .8c2.3 0 4.2 1.9 4.2 4.2v30c0 2.3-1.9 4.2-4.2 4.2H5C2.7 39.2.8 37.3.8 35V5C.8 2.7 2.7.8 5 .8h125zm0-.8H5C2.3 0 0 2.3 0 5v30c0 2.8 2.3 5 5 5h125c2.8 0 5-2.3 5-5V5c0-2.7-2.2-5-5-5z"/>
        <path id="c" d="M6 3.3c0 .8-.2 1.5-.7 2-.6.6-1.3.9-2.2.9-.9 0-1.6-.3-2.2-.9C.3 4.7 0 4 0 3.1 0 2.2.3 1.5.9.9 1.5.3 2.2 0 3.1 0c.4 0 .8.1 1.2.3.4.2.7.4.9.7l-.5.5C4.3 1 3.8.8 3.1.8c-.6 0-1.2.2-1.6.7-.5.4-.7 1-.7 1.7s.2 1.3.7 1.7c.5.4 1 .7 1.6.7.7 0 1.2-.2 1.7-.7.3-.3.5-.7.5-1.2H3.1v-.8H6v.4z"/>
        <path id="d" d="M5.2 1l.07.07.059-.057-.046-.068L5.2 1zm-.5.5l-.078.062.07.088.079-.08L4.7 1.5zm-3.2 0l.062.078.01-.007.006-.009L1.5 1.5zm3.8 2.2h.1v-.1h-.1v.1zm-2.2 0H3v.1h.1v-.1zm0-.8v-.1H3v.1h.1zm2.9 0h.1v-.1H6v.1zm-.1.4c0 .785-.196 1.455-.67 1.93l.14.14c.526-.525.73-1.255.73-2.07h-.2zm-.67 1.93c-.582.58-1.256.87-2.13.87v.2c.926 0 1.652-.31 2.27-.93l-.14-.14zM3.1 6.1c-.874 0-1.548-.29-2.13-.87l-.14.14c.618.62 1.344.93 2.27.93v-.2zM.97 5.23C.39 4.647.1 3.973.1 3.1h-.2c0 .926.31 1.652.93 2.27l.14-.14zM.1 3.1c0-.874.29-1.548.87-2.13L.83.83C.21 1.447-.1 2.173-.1 3.1h.2zM.97.97C1.553.39 2.227.1 3.1.1v-.2C2.174-.1 1.448.21.83.83l.14.14zM3.1.1c.388 0 .765.094 1.155.29l.09-.18A2.805 2.805 0 0 0 3.1-.1v.2zm1.155.29c.396.197.677.388.862.665l.166-.11C5.068.622 4.75.413 4.345.21l-.09.178zm.874.54l-.5.5.142.14.5-.5-.142-.14zm-.35.508C4.354.909 3.823.7 3.1.7v.2c.676 0 1.145.191 1.522.662l.156-.124zM3.1.7c-.621 0-1.254.207-1.678.738l.156.124C1.954 1.092 2.521.9 3.1.9V.7zm-1.662.722C.906 1.847.7 2.482.7 3.2h.2c0-.682.194-1.247.662-1.622l-.124-.156zM.7 3.2c0 .718.206 1.353.738 1.778l.124-.156C1.094 4.447.9 3.882.9 3.2H.7zm.738 1.778c.504.403 1.027.722 1.662.722v-.2c-.565 0-1.042-.281-1.538-.678l-.124.156zM3.1 5.7c.726 0 1.252-.21 1.77-.73l-.14-.14c-.482.48-.956.67-1.63.67v.2zm1.77-.73c.317-.316.53-.74.53-1.27h-.2c0 .47-.187.846-.47 1.13l.14.14zM5.3 3.6H3.1v.2h2.2v-.2zm-2.1.1v-.8H3v.8h.2zM3.1 3H6v-.2H3.1V3zm2.8-.1v.4h.2v-.4h-.2z"/>
        <path id="e" d="M3.5.7H.8v1.9h2.5v.7H.8v1.9h2.7V6H0V0h3.5v.7z"/>
        <path id="f" d="M3.5.7v.1h.1V.7h-.1zM.8.7V.6H.7v.1h.1zm0 1.9H.7v.1h.1v-.1zm2.5 0h.1v-.1h-.1v.1zm0 .7v.1h.1v-.1h-.1zm-2.5 0v-.1H.7v.1h.1zm0 1.9H.7v.1h.1v-.1zm2.7 0h.1v-.1h-.1v.1zm0 .8v.1h.1V6h-.1zM0 6h-.1v.1H0V6zm0-6v-.1h-.1V0H0zm3.5 0h.1v-.1h-.1V0zm0 .6H.8v.2h2.7V.6zM.7.7v1.9h.2V.7H.7zm.1 2h2.5v-.2H.8v.2zm2.4-.1v.7h.2v-.7h-.2zm.1.6H.8v.2h2.5v-.2zm-2.6.1v1.9h.2V3.3H.7zm.1 2h2.7v-.2H.8v.2zm2.6-.1V6h.2v-.8h-.2zm.1.7H0v.2h3.5v-.2zM.1 6V0h-.2v6h.2zM0 .1h3.5v-.2H0v.2zM3.4 0v.7h.2V0h-.2z"/>
        <path id="g" d="M2.5 6h-.8V.7H0V0h4.2v.7H2.5V6z"/>
        <path id="h" d="M2.5 6v.1h.1V6h-.1zm-.8 0h-.1v.1h.1V6zm0-5.3h.1V.6h-.1v.1zM0 .7h-.1v.1H0V.7zM0 0v-.1h-.1V0H0zm4.2 0h.1v-.1h-.1V0zm0 .7v.1h.1V.7h-.1zM2.5.7V.6h-.1v.1h.1zm0 5.2h-.8v.2h.8v-.2zm-.7.1V.7h-.2V6h.2zM1.7.6H0v.2h1.7V.6zM.1.7V0h-.2v.7h.2zM0 .1h4.2v-.2H0v.2zM4.1 0v.7h.2V0h-.2zm.1.6H2.5v.2h1.7V.6zM2.4.7V6h.2V.7h-.2z"/>
        <path id="i" d="M0 6V0h.8v6H0z"/>
        <path id="j" d="M0 6h-.1v.1H0V6zm0-6v-.1h-.1V0H0zm.8 0h.1v-.1H.8V0zm0 6v.1h.1V6H.8zM.1 6V0h-.2v6h.2zM0 .1h.8v-.2H0v.2zM.7 0v6h.2V0H.7zm.1 5.9H0v.2h.8v-.2z"/>
        <path id="k" d="M2.5 6h-.8V.7H0V0h4.1v.7H2.4V6h.1z"/>
        <path id="l" d="M1.7 6h-.1v.1h.1V6zm0-5.3h.1V.6h-.1v.1zM0 .7h-.1v.1H0V.7zM0 0v-.1h-.1V0H0zm4.1 0h.1v-.1h-.1V0zm0 .7v.1h.1V.7h-.1zM2.4.7V.6h-.1v.1h.1zm0 5.3h-.1v.1h.1V6zm.1-.1h-.8v.2h.8v-.2zm-.7.1V.7h-.2V6h.2zM1.7.6H0v.2h1.7V.6zM.1.7V0h-.2v.7h.2zM0 .1h4.1v-.2H0v.2zM4 0v.7h.2V0H4zm.1.6H2.4v.2h1.7V.6zM2.3.7V6h.2V.7h-.2zm.1 5.4h.1v-.2h-.1v.2z"/>
        <path id="m" d="M5.3 5.3c-.6.6-1.3.9-2.2.9-.9 0-1.6-.3-2.2-.9C.3 4.7 0 4 0 3.1 0 2.2.3 1.5.9.9 1.5.3 2.2 0 3.1 0 4 0 4.7.3 5.3.9c.6.6.9 1.3.9 2.2 0 .9-.3 1.6-.9 2.2zm-3.8-.5c.4.4 1 .7 1.6.7.6 0 1.2-.2 1.6-.7.4-.4.7-1 .7-1.7s-.2-1.3-.7-1.7C4.3 1 3.7.7 3.1.7c-.6 0-1.2.2-1.6.7-.4.4-.7 1-.7 1.7s.2 1.3.7 1.7z"/>
        <path id="n" d="M1.5 4.8l.071-.071-.009-.007L1.5 4.8zm3.2 0l-.071-.071-.007.009.078.062zm0-3.4l-.071.071.009.007L4.7 1.4zm-3.2 0l.071.071.007-.009L1.5 1.4zm3.73 3.83c-.582.58-1.256.87-2.13.87v.2c.926 0 1.652-.31 2.27-.93l-.14-.14zM3.1 6.1c-.874 0-1.548-.29-2.13-.87l-.14.14c.618.62 1.344.93 2.27.93v-.2zM.97 5.23C.39 4.647.1 3.973.1 3.1h-.2c0 .926.31 1.652.93 2.27l.14-.14zM.1 3.1c0-.874.29-1.548.87-2.13L.83.83C.21 1.447-.1 2.173-.1 3.1h.2zM.97.97C1.553.39 2.227.1 3.1.1v-.2C2.174-.1 1.448.21.83.83l.14.14zM3.1.1c.874 0 1.548.29 2.13.87l.14-.14C4.753.21 4.027-.1 3.1-.1v.2zm2.13.87c.58.582.87 1.256.87 2.13h.2c0-.926-.31-1.652-.93-2.27l-.14.14zM6.1 3.1c0 .874-.29 1.548-.87 2.13l.14.14c.62-.618.93-1.344.93-2.27h-.2zM1.43 4.87c.414.416 1.039.73 1.67.73v-.2c-.569 0-1.144-.286-1.53-.67l-.14.14zm1.67.73c.621 0 1.254-.207 1.678-.738l-.156-.124c-.376.47-.943.662-1.522.662v.2zm1.67-.73c.418-.416.73-1.041.73-1.77h-.2c0 .671-.288 1.246-.67 1.63l.14.14zM5.5 3.1c0-.718-.206-1.353-.738-1.778l-.124.156c.468.375.662.94.662 1.622h.2zm-.73-1.77C4.357.913 3.732.6 3.1.6v.2c.569 0 1.144.286 1.53.67l.14-.14zM3.1.6c-.621 0-1.254.207-1.678.738l.156.124C1.954.992 2.521.8 3.1.8V.6zm-1.67.73A2.513 2.513 0 0 0 .7 3.1h.2c0-.671.288-1.246.67-1.63l-.14-.14zM.7 3.1c0 .718.206 1.353.738 1.778l.124-.156C1.094 4.347.9 3.782.9 3.1H.7z"/>
        <path id="o" d="M0 6V0h.9l2.9 4.7V0h.8v6h-.8L.7 1.1V6H0z"/>
        <path id="p" d="M0 6h-.1v.1H0V6zm0-6v-.1h-.1V0H0zm.9 0l.085-.053L.955-.1H.9V0zm2.9 4.7l-.085.053.185.3V4.7h-.1zm0-4.7v-.1h-.1V0h.1zm.8 0h.1v-.1h-.1V0zm0 6v.1h.1V6h-.1zm-.8 0l-.085.053.03.047H3.8V6zM.7 1.1l.085-.053L.6.755V1.1h.1zM.7 6v.1h.1V6H.7zM.1 6V0h-.2v6h.2zM0 .1h.9v-.2H0v.2zM.815.053l2.9 4.7.17-.106-2.9-4.7-.17.106zM3.9 4.7V3.5h-.2v1.2h.2zm0-1.2V0h-.2v3.5h.2zM3.8.1h.8v-.2h-.8v.2zm.7-.1v6h.2V0h-.2zm.1 5.9h-.8v.2h.8v-.2zm-.715.047l-3.1-4.9-.17.106 3.1 4.9.17-.106zM.6 1.1v1.2h.2V1.1H.6zm0 1.2V6h.2V2.3H.6zm.1 3.6H0v.2h.7v-.2z"/>
        <path id="q" d="M27 4.7c-2.4 0-4.3 1.8-4.3 4.3 0 2.4 1.9 4.3 4.3 4.3s4.3-1.8 4.3-4.3c0-2.6-1.9-4.3-4.3-4.3zm0 6.8c-1.3 0-2.4-1.1-2.4-2.6s1.1-2.6 2.4-2.6c1.3 0 2.4 1 2.4 2.6 0 1.5-1.1 2.6-2.4 2.6zm-9.3-6.8c-2.4 0-4.3 1.8-4.3 4.3 0 2.4 1.9 4.3 4.3 4.3S22 11.5 22 9c0-2.6-1.9-4.3-4.3-4.3zm0 6.8c-1.3 0-2.4-1.1-2.4-2.6s1.1-2.6 2.4-2.6c1.3 0 2.4 1 2.4 2.6 0 1.5-1.1 2.6-2.4 2.6zM6.6 6v1.8h4.3c-.1 1-.5 1.8-1 2.3-.6.6-1.6 1.3-3.3 1.3-2.7 0-4.7-2.1-4.7-4.8 0-2.7 2.1-4.8 4.7-4.8 1.4 0 2.5.6 3.3 1.3l1.3-1.3C10.1.8 8.7 0 6.7 0 3.1 0 0 3 0 6.6c0 3.6 3.1 6.6 6.7 6.6 2 0 3.4-.6 4.6-1.9 1.2-1.2 1.6-2.9 1.6-4.2 0-.4 0-.8-.1-1.1H6.6zM52 7.4c-.4-1-1.4-2.7-3.6-2.7s-4 1.7-4 4.3c0 2.4 1.8 4.3 4.2 4.3 1.9 0 3.1-1.2 3.5-1.9l-1.4-1c-.5.7-1.1 1.2-2.1 1.2s-1.6-.4-2.1-1.3l5.7-2.4-.2-.5zm-5.8 1.4c0-1.6 1.3-2.5 2.2-2.5.7 0 1.4.4 1.6.9l-3.8 1.6zm-4.7 4.1h1.9V.4h-1.9v12.5zm-3-7.3c-.5-.5-1.3-1-2.3-1-2.1 0-4.1 1.9-4.1 4.3s1.9 4.2 4.1 4.2c1 0 1.8-.5 2.2-1h.1v.6c0 1.6-.9 2.5-2.3 2.5-1.1 0-1.9-.8-2.1-1.5l-1.6.7c.5 1.1 1.7 2.5 3.8 2.5 2.2 0 4-1.3 4-4.4V4.9h-1.8v.7zm-2.2 5.9c-1.3 0-2.4-1.1-2.4-2.6s1.1-2.6 2.4-2.6c1.3 0 2.3 1.1 2.3 2.6s-1 2.6-2.3 2.6zM60.7.4h-4.5v12.5h1.9V8.2h2.6c2.1 0 4.1-1.5 4.1-3.9S62.8.4 60.7.4zm.1 6h-2.7V2.1h2.7c1.4 0 2.2 1.2 2.2 2.1-.1 1.1-.9 2.2-2.2 2.2zm11.5-1.8c-1.4 0-2.8.6-3.3 1.9l1.7.7c.4-.7 1-.9 1.7-.9 1 0 1.9.6 2 1.6V8c-.3-.2-1.1-.5-1.9-.5-1.8 0-3.6 1-3.6 2.8 0 1.7 1.5 2.8 3.1 2.8 1.3 0 1.9-.6 2.4-1.2h.1v1h1.8V8.1c-.2-2.2-1.9-3.5-4-3.5zm-.2 6.9c-.6 0-1.5-.3-1.5-1.1 0-1 1.1-1.3 2-1.3.8 0 1.2.2 1.7.4-.2 1.2-1.2 2-2.2 2zm10.5-6.6l-2.1 5.4h-.1l-2.2-5.4h-2l3.3 7.6-1.9 4.2h1.9l5.1-11.8h-2zm-16.8 8h1.9V.4h-1.9v12.5z"/>
        <path id="r" d="M.4 0C.1.3 0 .8 0 1.4v22.1c0 .6.2 1.1.5 1.4l.1.1L13 12.6v-.2L.4 0z"/>
        <path id="t" d="M4.1 8.5L0 4.4V4.1L4.1 0l.1.1 4.9 2.8c1.4.8 1.4 2.1 0 2.9l-5 2.7z"/>
        <path id="v" d="M16.7 4.2L12.5 0 0 12.5c.5.5 1.2.5 2.1.1l14.6-8.4z"/>
        <path id="x" d="M16.7 8.629L2.1.329c-.9-.5-1.6-.4-2.1.1l12.5 12.4 4.2-4.2z"/>
        <path id="z" d="M16.6 0L2.1 8.2c-.8.5-1.5.4-2 0l-.1.1.1.1c.5.4 1.2.5 2 0L16.6 0z"/>
        <path id="A" d="M.4 1.4C.1 1.1 0 .6 0 0v.1c0 .6.2 1.1.5 1.4v-.1H.4z"/>
        <path id="B" d="M5 1.3L0 4.1l.1.1L5 1.4C5.7 1 6 .5 6 0c0 .5-.4.9-1 1.3z"/>
        <path id="C" d="M2.5.453l19.5 11.1c.6.4 1 .8 1 1.3 0-.5-.3-1-1-1.4L2.5.353c-1.4-.8-2.5-.2-2.5 1.4v.1c0-1.5 1.1-2.2 2.5-1.4z"/>
    </defs>
</svg>
