<svg width="80" height="80" viewBox="0 0 80 80" version="1.1" xmlns="http://www.w3.org/2000/svg" xmlns:xlink="http://www.w3.org/1999/xlink">
    <g id="Canvas" fill="none">
        <g id="Icon 2.2">
            <g id="Vector">
                <path d="M 0 80L 6.88 59.3614C 3.39034 53.4897 1.37931 46.6372 1.37931 39.3103C 1.37931 17.6 18.9793 0 40.6897 0C 62.4 0 80 17.6 80 39.3103C 80 61.0207 62.4 78.6207 40.6897 78.6207C 34.0841 78.6207 27.8634 76.9834 22.4 74.1062L 0 80Z" fill="url(#paint0_radial)"/>
            </g>
            <g id="Polygon" filter="url(#filter0_d)">
                <path d="M 24.374 1.94497C 25.1746 0.946857 26.6936 0.946859 27.4942 1.94498L 45.7856 24.7486C 46.8357 26.0577 45.9037 28 44.2255 28L 7.64267 28C 5.96445 28 5.03248 26.0577 6.08255 24.7486L 24.374 1.94497Z" transform="matrix(0 1 -1 0 59.5557 14.0659)" fill="white"/>
            </g>
        </g>
    </g>
    <defs>
        <filter id="filter0_d" x="27.5557" y="16.7048" width="38.8036" height="52.5903" filterUnits="userSpaceOnUse" color-interpolation-filters="sRGB">
            <feFlood flood-opacity="0" result="BackgroundImageFix"/>
            <feColorMatrix in="SourceAlpha" type="matrix" values="0 0 0 0 0 0 0 0 0 0 0 0 0 0 0 0 0 0 255 0"/>
            <feOffset dx="2" dy="3"/>
            <feGaussianBlur stdDeviation="3"/>
            <feColorMatrix type="matrix" values="0 0 0 0 0 0 0 0 0 0 0 0 0 0 0 0 0 0 0.19 0"/>
            <feBlend mode="normal" in2="BackgroundImageFix" result="effect1_dropShadow"/>
            <feBlend mode="normal" in="SourceGraphic" in2="effect1_dropShadow" result="shape"/>
        </filter>

        <radialGradient id="paint0_radial" cx="0.5" cy="0.5" r="0.5" gradientUnits="userSpaceOnUse" gradientTransform="matrix(82.6667 117.802 -117.802 80.8598 35.3455 -87.4629)">
            <stop stop-color="#FF8E26"/>
            <stop offset="1" stop-color="#ED6402"/>
        </radialGradient>

    </defs>
</svg>

