<svg xmlns="http://www.w3.org/2000/svg" xmlns:xlink="http://www.w3.org/1999/xlink" width="62" height="62" viewBox="0 0 62 62">
    <desc>
        Created using Figma
    </desc>
    <use fill="#FF949A" xlink:href="#a"/>
    <use fill="#F2D385" transform="translate(14.08 37.11)" xlink:href="#b"/>
    <use fill="#EBBC59" transform="translate(14.2 36.98)" xlink:href="#c"/>
    <use fill="#F6E1AC" opacity=".5" transform="translate(14.08 44.3)" xlink:href="#d"/>
    <use fill="#FCF7F0" transform="translate(14.08 34.04)" xlink:href="#e"/>
    <use fill="#EDE6D3" transform="translate(14.2 33.9)" xlink:href="#f"/>
    <use fill="#9E6444" opacity=".5" transform="translate(14.08 41.21)" xlink:href="#g"/>
    <use fill="#EFDBD3" transform="translate(34.06 38.21)" xlink:href="#h"/>
    <use fill="#EFDBD3" transform="translate(18.45 41.52)" xlink:href="#i"/>
    <use fill="#EFDBD3" transform="translate(23.21 39.9)" xlink:href="#j"/>
    <use fill="#EFDBD3" transform="translate(28.88 39.5)" xlink:href="#k"/>
    <use fill="#EFDBD3" transform="translate(36.46 37.23)" xlink:href="#l"/>
    <use fill="#EFDBD3" transform="translate(43.68 35.19)" xlink:href="#m"/>
    <use fill="#EFDBD3" transform="translate(20.69 41.71)" xlink:href="#n"/>
    <use fill="#EFDBD3" transform="translate(42.02 36.1)" xlink:href="#o"/>
    <use fill="#EFDBD3" transform="translate(43.84 36.87)" xlink:href="#p"/>
    <use fill="#EFDBD3" transform="translate(26.74 40.2)" xlink:href="#q"/>
    <use fill="#EFDBD3" transform="translate(34.19 37.35)" xlink:href="#r"/>
    <use fill="#EFDBD3" transform="translate(22.38 40.51)" xlink:href="#s"/>
    <use fill="#EFDBD3" transform="translate(15.15 42.36)" xlink:href="#t"/>
    <use fill="#EFDBD3" transform="translate(17.38 42.25)" xlink:href="#u"/>
    <use fill="#EFDBD3" transform="translate(44.77 36.35)" xlink:href="#v"/>
    <use fill="#EFDBD3" transform="translate(30.83 37.89)" xlink:href="#w"/>
    <use fill="#EFDBD3" transform="translate(25.03 39.06)" xlink:href="#x"/>
    <use fill="#EFDBD3" transform="translate(40.33 36.6)" xlink:href="#y"/>
    <g>
        <use fill="#F2D385" transform="translate(14.08 30.94)" xlink:href="#z"/>
        <use fill="#EBBC59" transform="translate(14.2 30.8)" xlink:href="#A"/>
        <use fill="#F6E1AC" opacity=".5" transform="translate(14.08 38.11)" xlink:href="#B"/>
    </g>
    <g>
        <use fill="#FCF7F0" transform="translate(14.08 27.84)" xlink:href="#C"/>
        <use fill="#EDE6D3" transform="translate(14.2 27.69)" xlink:href="#D"/>
        <use fill="#9E6444" opacity=".5" transform="translate(14.08 35.02)" xlink:href="#E"/>
    </g>
    <g>
        <use fill="#EFDBD3" transform="translate(43.45 30.12)" xlink:href="#F"/>
        <use fill="#EFDBD3" transform="translate(20.73 34.58)" xlink:href="#G"/>
        <use fill="#EFDBD3" transform="translate(33.52 31.79)" xlink:href="#H"/>
        <use fill="#EFDBD3" transform="translate(34.87 31.8)" xlink:href="#I"/>
        <use fill="#EFDBD3" transform="translate(27.39 33.54)" xlink:href="#J"/>
        <use fill="#EFDBD3" transform="translate(30.3 32.74)" xlink:href="#K"/>
        <use fill="#EFDBD3" transform="translate(15.7 35.77)" xlink:href="#L"/>
        <use fill="#EFDBD3" transform="translate(45.42 29.86)" xlink:href="#M"/>
        <use fill="#EFDBD3" transform="translate(25.03 33.25)" xlink:href="#N"/>
        <use fill="#EFDBD3" transform="translate(43.72 29.07)" xlink:href="#O"/>
        <use fill="#EFDBD3" transform="translate(39.05 30.32)" xlink:href="#P"/>
        <use fill="#EFDBD3" transform="translate(29.3 32.19)" xlink:href="#Q"/>
        <use fill="#EFDBD3" transform="translate(35.9 31.61)" xlink:href="#R"/>
        <use fill="#EFDBD3" transform="translate(38.08 30.26)" xlink:href="#S"/>
        <use fill="#EFDBD3" transform="translate(26.93 34.12)" xlink:href="#T"/>
        <use fill="#EFDBD3" transform="translate(47.2 29.16)" xlink:href="#U"/>
        <use fill="#EFDBD3" transform="translate(17.28 36.39)" xlink:href="#V"/>
        <use fill="#EFDBD3" transform="translate(17.51 35.17)" xlink:href="#W"/>
    </g>
    <g>
        <use fill="#F2D385" transform="translate(14.08 24.84)" xlink:href="#X"/>
        <use fill="#EBBC59" transform="translate(14.19 24.71)" xlink:href="#Y"/>
        <use fill="#F6E1AC" opacity=".5" transform="translate(14.08 32.02)" xlink:href="#Z"/>
    </g>
    <g>
        <use fill="#EBBC59" transform="translate(24.71 37.3)" xlink:href="#aa"/>
        <use fill="#EBBC59" transform="translate(32.78 34.97)" xlink:href="#ab"/>
        <use fill="#EBBC59" transform="translate(41.46 33.21)" xlink:href="#ac"/>
        <use fill="#EBBC59" transform="translate(42.88 33.29)" xlink:href="#ad"/>
        <use fill="#EBBC59" transform="translate(36.91 33.41)" xlink:href="#ae"/>
        <use fill="#EBBC59" transform="translate(36.23 34.48)" xlink:href="#af"/>
        <use fill="#EBBC59" transform="translate(45.43 33.11)" xlink:href="#ag"/>
        <use fill="#EBBC59" transform="translate(39.88 34.81)" xlink:href="#ah"/>
        <use fill="#EBBC59" transform="translate(31.37 34.77)" xlink:href="#ai"/>
        <use fill="#EBBC59" transform="translate(23.12 36.51)" xlink:href="#aj"/>
        <use fill="#EBBC59" transform="translate(30.21 36.83)" xlink:href="#ak"/>
        <use fill="#EBBC59" transform="translate(26.09 37.81)" xlink:href="#al"/>
        <use fill="#EBBC59" transform="translate(27.13 35.76)" xlink:href="#am"/>
        <use fill="#EBBC59" transform="translate(30.28 35.12)" xlink:href="#an"/>
        <use fill="#EBBC59" transform="translate(45.3 31.73)" xlink:href="#ao"/>
        <use fill="#EBBC59" transform="translate(17.8 38.17)" xlink:href="#ap"/>
        <use fill="#EBBC59" transform="translate(15.53 39.49)" xlink:href="#aq"/>
        <use fill="#EBBC59" transform="translate(18.76 38.55)" xlink:href="#ar"/>
    </g>
    <g>
        <use fill="#FFC406" transform="translate(14 18.34)" xlink:href="#as"/>
        <use fill="#FEDB3E" transform="translate(14.21 18.58)" xlink:href="#at"/>
        <use fill="#FFFF9C" transform="translate(14.26 23.92)" xlink:href="#au"/>
        <use fill="#FEE678" transform="translate(21.19 19.52)" xlink:href="#av"/>
        <use fill="#FEE678" transform="translate(16.26 22.32)" xlink:href="#aw"/>
    </g>
    <g>
        <use fill="#EBBC59" transform="translate(24.57 31.31)" xlink:href="#ax"/>
        <use fill="#EBBC59" transform="translate(43.45 27.74)" xlink:href="#ay"/>
        <use fill="#EBBC59" transform="translate(44.93 27.66)" xlink:href="#az"/>
        <use fill="#EBBC59" transform="translate(30.35 30.88)" xlink:href="#aA"/>
        <use fill="#EBBC59" transform="translate(31.56 29.37)" xlink:href="#aB"/>
        <use fill="#EBBC59" transform="translate(22.52 31.35)" xlink:href="#aC"/>
        <use fill="#EBBC59" transform="translate(31.21 30.13)" xlink:href="#aD"/>
        <use fill="#EBBC59" transform="translate(39.57 28.74)" xlink:href="#aE"/>
        <use fill="#EBBC59" transform="translate(22.29 32.01)" xlink:href="#aF"/>
        <use fill="#EBBC59" transform="translate(45 26.1)" xlink:href="#aG"/>
        <use fill="#EBBC59" transform="translate(40.84 27.07)" xlink:href="#aH"/>
        <use fill="#EBBC59" transform="translate(41.52 28.35)" xlink:href="#aI"/>
        <use fill="#EBBC59" transform="translate(22.97 30.77)" xlink:href="#aJ"/>
        <use fill="#EBBC59" transform="translate(21.4 31.06)" xlink:href="#aK"/>
        <use fill="#EBBC59" transform="translate(25.49 30.52)" xlink:href="#aL"/>
        <use fill="#EBBC59" transform="translate(34.52 29.75)" xlink:href="#aM"/>
        <use fill="#EBBC59" transform="translate(28.43 29.91)" xlink:href="#aN"/>
        <use fill="#EBBC59" transform="translate(16.11 32.59)" xlink:href="#aO"/>
        <use fill="#EBBC59" transform="translate(35 28.33)" xlink:href="#aP"/>
        <use fill="#EBBC59" transform="translate(14.93 33.92)" xlink:href="#aQ"/>
        <use fill="#EBBC59" transform="translate(19.8 32.63)" xlink:href="#aR"/>
        <use fill="#EBBC59" transform="translate(17.98 31.94)" xlink:href="#aS"/>
    </g>
    <g>
        <use fill="#EBBC59" transform="translate(24.57 43.37)" xlink:href="#aT"/>
        <use fill="#EBBC59" transform="translate(43.45 39.8)" xlink:href="#aU"/>
        <use fill="#EBBC59" transform="translate(44.93 39.73)" xlink:href="#aV"/>
        <use fill="#EBBC59" transform="translate(30.35 42.95)" xlink:href="#aW"/>
        <use fill="#EBBC59" transform="translate(31.56 41.43)" xlink:href="#aX"/>
        <use fill="#EBBC59" transform="translate(22.52 43.41)" xlink:href="#aY"/>
        <use fill="#EBBC59" transform="translate(31.21 42.2)" xlink:href="#aZ"/>
        <use fill="#EBBC59" transform="translate(39.57 40.8)" xlink:href="#ba"/>
        <use fill="#EBBC59" transform="translate(22.29 44.07)" xlink:href="#bb"/>
        <use fill="#EBBC59" transform="translate(46.55 38.61)" xlink:href="#bc"/>
        <use fill="#EBBC59" transform="translate(40.84 39.14)" xlink:href="#bd"/>
        <use fill="#EBBC59" transform="translate(41.52 40.41)" xlink:href="#be"/>
        <use fill="#EBBC59" transform="translate(22.97 42.84)" xlink:href="#bf"/>
        <use fill="#EBBC59" transform="translate(21.4 43.12)" xlink:href="#bg"/>
        <use fill="#EBBC59" transform="translate(25.49 42.58)" xlink:href="#bh"/>
        <use fill="#EBBC59" transform="translate(34.52 41.81)" xlink:href="#bi"/>
        <use fill="#EBBC59" transform="translate(28.43 41.98)" xlink:href="#bj"/>
        <use fill="#EBBC59" transform="translate(16.11 44.65)" xlink:href="#bk"/>
        <use fill="#EBBC59" transform="translate(37 40.61)" xlink:href="#bl"/>
        <use fill="#EBBC59" transform="translate(14.93 45.99)" xlink:href="#bm"/>
        <use fill="#EBBC59" transform="translate(19.8 44.69)" xlink:href="#bn"/>
        <use fill="#EBBC59" transform="translate(18.15 44.88)" xlink:href="#bo"/>
    </g>
    <g>
        <use fill="#FF4D66" transform="translate(26.4 16.14)" xlink:href="#bp"/>
        <use fill="#EB3955" transform="translate(32.36 20.68)" xlink:href="#bq"/>
        <use fill="#EB3955" transform="translate(31.67 19.15)" xlink:href="#br"/>
        <use fill="#EB3955" transform="translate(31.11 17.67)" xlink:href="#bs"/>
        <use fill="#EB3955" transform="translate(33.28 19.08)" xlink:href="#bt"/>
        <use fill="#EB3955" transform="translate(32.79 17.86)" xlink:href="#bu"/>
        <use fill="#EB3955" transform="translate(32.31 16.67)" xlink:href="#bv"/>
        <use fill="#EB3955" transform="translate(29.87 19.09)" xlink:href="#bw"/>
        <use fill="#EB3955" transform="translate(29.49 17.89)" xlink:href="#bx"/>
        <use fill="#EB3955" transform="translate(31.25 22.29)" xlink:href="#by"/>
        <use fill="#EB3955" transform="translate(30.51 20.42)" xlink:href="#bz"/>
        <use fill="#EB3955" transform="translate(29.54 21.84)" xlink:href="#bA"/>
        <use fill="#EB3955" transform="translate(28.81 20.19)" xlink:href="#bB"/>
        <use fill="#EB3955" transform="translate(28.28 19)" xlink:href="#bC"/>
        <use fill="#EB3955" transform="translate(27.21 20.8)" xlink:href="#bD"/>
        <use fill="#EB3955" transform="translate(27.66 22.13)" xlink:href="#bE"/>
        <use fill="#EB3955" transform="translate(28.41 23.53)" xlink:href="#bF"/>
        <use fill="#EB3955" transform="translate(30.22 23.6)" xlink:href="#bG"/>
        <use fill="#EB3955" transform="translate(32.33 23.6)" xlink:href="#bH"/>
        <use fill="#EB3955" transform="translate(34.95 22.31)" xlink:href="#bI"/>
        <use fill="#EB3955" transform="translate(34.05 20.6)" xlink:href="#bJ"/>
        <use fill="#EB3955" transform="translate(33.16 22.33)" xlink:href="#bK"/>
        <use fill="#EB3955" transform="translate(26.43 16.15)" xlink:href="#bL"/>
        <use fill="#FFC91C" transform="translate(34.99 22.49)" xlink:href="#bM"/>
        <use fill="#FFC91C" transform="translate(34.14 20.8)" xlink:href="#bN"/>
        <use fill="#FFC91C" transform="translate(28.89 20.36)" xlink:href="#bO"/>
        <use fill="#FFC91C" transform="translate(33.37 19.23)" xlink:href="#bP"/>
        <use fill="#FFC91C" transform="translate(32.88 18.01)" xlink:href="#bQ"/>
        <use fill="#FFC91C" transform="translate(30.28 23.76)" xlink:href="#bR"/>
        <use fill="#FFC91C" transform="translate(33.24 22.54)" xlink:href="#bS"/>
        <use fill="#FFC91C" transform="translate(28.34 19.13)" xlink:href="#bT"/>
        <use fill="#FFC91C" transform="translate(32.43 16.81)" xlink:href="#bU"/>
        <use fill="#FFC91C" transform="translate(27.26 20.88)" xlink:href="#bV"/>
        <use fill="#FFC91C" transform="translate(32.42 20.86)" xlink:href="#bW"/>
        <use fill="#FFC91C" transform="translate(31.72 19.3)" xlink:href="#bX"/>
        <use fill="#FFC91C" transform="translate(29.59 22.03)" xlink:href="#bY"/>
        <use fill="#FFC91C" transform="translate(31.17 17.82)" xlink:href="#bZ"/>
        <use fill="#FFC91C" transform="translate(28.47 23.65)" xlink:href="#ca"/>
        <use fill="#FFC91C" transform="translate(32.41 23.76)" xlink:href="#cb"/>
        <use fill="#FFC91C" transform="translate(31.31 22.46)" xlink:href="#cc"/>
        <use fill="#FFC91C" transform="translate(27.74 22.24)" xlink:href="#cd"/>
        <use fill="#FFC91C" transform="translate(30.57 20.56)" xlink:href="#ce"/>
        <use fill="#FFC91C" transform="translate(29.91 19.16)" xlink:href="#cf"/>
        <use fill="#FFC91C" transform="translate(29.54 18.01)" xlink:href="#cg"/>
        <use fill="#6BAD61" transform="translate(35.77 19.15)" xlink:href="#ch"/>
        <use fill="#6BAD61" transform="translate(34.48 18.87)" xlink:href="#ci"/>
        <use fill="#609655" transform="translate(34.35 19.19)" xlink:href="#cj"/>
        <use fill="#6BAD61" transform="translate(33.63 15)" xlink:href="#ck"/>
        <use fill="#6BAD61" transform="translate(33.77 16.91)" xlink:href="#cl"/>
        <use fill="#609655" transform="translate(33.71 16.62)" xlink:href="#cm"/>
        <use fill="#6BAD61" transform="translate(35.88 16.99)" xlink:href="#cn"/>
        <use fill="#7AC761" transform="translate(36.17 19.37)" xlink:href="#co"/>
        <use fill="#7AC761" transform="translate(36.6 21.68)" xlink:href="#cp"/>
        <use fill="#7AC761" transform="translate(35.11 17.19)" xlink:href="#cq"/>
        <use fill="#7AC761" transform="translate(37.62 17.1)" xlink:href="#cr"/>
        <use fill="#7AC761" transform="translate(37.31 18.42)" xlink:href="#cs"/>
        <use fill="#7AC761" transform="translate(34.51 17.96)" xlink:href="#ct"/>
        <use fill="#7AC761" transform="translate(36.82 22.54)" xlink:href="#cu"/>
        <use fill="#7AC761" transform="translate(35.6 19.19)" xlink:href="#cv"/>
        <use fill="#FF7287" transform="translate(31.1 17.36)" xlink:href="#cw"/>
        <use fill="#FF7287" transform="translate(30.69 21.05)" xlink:href="#cx"/>
        <use fill="#FF7287" transform="translate(30.58 19.56)" xlink:href="#cy"/>
        <use fill="#FFA112" transform="translate(34.15 20.81)" xlink:href="#cz"/>
        <use fill="#FFA112" transform="translate(29.59 22.03)" xlink:href="#cA"/>
        <use fill="#FFA112" transform="translate(32.41 20.86)" xlink:href="#cB"/>
        <use fill="#FFA112" transform="translate(28.47 23.65)" xlink:href="#cC"/>
        <use fill="#FFA112" transform="translate(31.31 22.47)" xlink:href="#cD"/>
        <use fill="#FFA112" transform="translate(27.74 22.25)" xlink:href="#cE"/>
        <use fill="#FFA112" transform="translate(28.34 19.13)" xlink:href="#cF"/>
        <use fill="#FFA112" transform="translate(29.54 18)" xlink:href="#cG"/>
        <use fill="#FFA112" transform="translate(30.56 20.56)" xlink:href="#cH"/>
        <use fill="#FFA112" transform="translate(27.26 20.89)" xlink:href="#cI"/>
        <use fill="#FFA112" transform="translate(32.42 16.81)" xlink:href="#cJ"/>
        <use fill="#FFA112" transform="translate(30.28 23.76)" xlink:href="#cK"/>
        <use fill="#FFA112" transform="translate(35 22.49)" xlink:href="#cL"/>
        <use fill="#FFA112" transform="translate(32.41 23.76)" xlink:href="#cM"/>
        <use fill="#FFA112" transform="translate(33.24 22.55)" xlink:href="#cN"/>
        <use fill="#FFA112" transform="translate(31.16 17.81)" xlink:href="#cO"/>
        <use fill="#FFA112" transform="translate(28.89 20.36)" xlink:href="#cP"/>
        <use fill="#FFA112" transform="translate(29.91 19.17)" xlink:href="#cQ"/>
        <use fill="#FFA112" transform="translate(32.88 18.02)" xlink:href="#cR"/>
        <use fill="#FFA112" transform="translate(31.73 19.3)" xlink:href="#cS"/>
        <use fill="#FFA112" transform="translate(33.37 19.23)" xlink:href="#cT"/>
        <use fill="#FFE670" transform="translate(35.43 22.66)" xlink:href="#cU"/>
        <use fill="#FFE670" transform="translate(34.54 20.88)" xlink:href="#cV"/>
        <use fill="#FFE670" transform="translate(33.72 22.68)" xlink:href="#cW"/>
        <use fill="#FFE670" transform="translate(33.56 22.95)" xlink:href="#cX"/>
        <use fill="#FFE670" transform="translate(32.99 23.85)" xlink:href="#cY"/>
        <use fill="#FFE670" transform="translate(32.83 24)" xlink:href="#cZ"/>
        <use fill="#FFE670" transform="translate(31.75 22.61)" xlink:href="#da"/>
        <use fill="#FFE670" transform="translate(30.98 20.67)" xlink:href="#db"/>
        <use fill="#FFE670" transform="translate(32.84 20.95)" xlink:href="#dc"/>
        <use fill="#FFE670" transform="translate(32.08 19.39)" xlink:href="#dd"/>
        <use fill="#FFE670" transform="translate(33.95 19.32)" xlink:href="#de"/>
        <use fill="#FFE670" transform="translate(33.69 19.48)" xlink:href="#df"/>
        <use fill="#FFE670" transform="translate(33.23 18.11)" xlink:href="#dg"/>
        <use fill="#FFE670" transform="translate(32.97 16.92)" xlink:href="#de"/>
        <use fill="#FFE670" transform="translate(32.71 17.01)" xlink:href="#dh"/>
        <use fill="#FFE670" transform="translate(31.72 17.93)" xlink:href="#di"/>
        <use fill="#FFE670" transform="translate(31.44 17.98)" xlink:href="#dj"/>
        <use fill="#FFE670" transform="translate(30.45 19.26)" xlink:href="#dk"/>
        <use fill="#FFE670" transform="translate(30.18 19.34)" xlink:href="#dl"/>
        <use fill="#FFE670" transform="translate(29.97 18.09)" xlink:href="#dm"/>
        <use fill="#FFE670" transform="translate(29.32 20.46)" xlink:href="#dn"/>
        <use fill="#FFE670" transform="translate(29.17 20.68)" xlink:href="#do"/>
        <use fill="#FFE670" transform="translate(28.68 19.2)" xlink:href="#dp"/>
        <use fill="#FFE670" transform="translate(29.98 22.12)" xlink:href="#dq"/>
        <use fill="#FFE670" transform="translate(30.7 23.87)" xlink:href="#dr"/>
        <g transform="translate(-4227 -5947)">
            <use fill="#FFE670" transform="translate(4257.55 5970.99)" xlink:href="#ds"/>
        </g>
        <g transform="translate(-4227 -5947)">
            <use fill="#FFE670" transform="translate(4256.04 5970.77)" xlink:href="#dt"/>
        </g>
        <g transform="translate(-4227 -5947)">
            <use fill="#FFE670" transform="translate(4255.73 5970.81)" xlink:href="#du"/>
        </g>
        <g transform="translate(-4227 -5947)">
            <use fill="#FFE670" transform="translate(4255.06 5969.33)" xlink:href="#dv"/>
        </g>
        <g transform="translate(-4227 -5947)">
            <use fill="#FFE670" transform="translate(4254.56 5967.96)" xlink:href="#dw"/>
        </g>
    </g>
    <defs>
        <path id="a" fill-rule="evenodd" d="M31 62c17.12 0 31-13.88 31-31C62 13.88 48.12 0 31 0 13.88 0 0 13.88 0 31c0 17.12 13.88 31 31 31z"/>
        <path id="b" d="M.513 7.237C-.331 7.717.12 8.5.12 9.4c0 .793-.089 1.165.853.979 1.658-.323 4.905-1.41 6.327-1.577 1.834-.215 4.336-1.057 6.15-1.42 3.747-.744 5.16-1.028 9.368-1.87 2.943-.587 4.267-1.312 7.26-1.596a16.952 16.952 0 0 0 3.197-.617c.608-.137.55-.97.569-1.606.03-1.351-.52-1.106-.716-1.351-.353-.46-.942-.294-1.226-.343L.513 7.237z"/>
        <path id="c" d="M33.852 1.946c-.03-.343.157-1.322-.04-1.577-.352-.46-.814-.372-1.226-.343L.402 7.371C.157 7.508.04 7.86 0 8.3l.059.03c.265-.549 1.255-.46 1.736-.52.697-.088 1.393-.088 2.02-.323C5.249 6.94 6.7 6.45 8.23 6.333c.951-.069 3.963-.96 4.64-1.136 1.658-.421 3.59-.803 5.218-1.107 1.53-.284 2.894-.49 4.444-.998.736-.245 1.481-.098 2.217-.236.706-.137 3.364-.989 3.992-1.096 1.187-.196 2.188-.44 2.56-.48.658-.069 2.09-.666 2.09-.05 0 2.194.02 2.126-3.14 2.42-1.363.127-3.727.793-5.06 1.087-.658.147-1.354.147-1.992.352-.706.235-1.471.402-2.178.539-1.53.293-3.188.548-4.698.852-1.433.284-2.875.666-4.267 1.057-.677.196-1.452.04-2.09.304-.618.254-1.226.45-1.824.656-.716.245-1.315.333-2.09.333-.804 0-1.255.059-1.932.411-.628.333-1.56.52-2.207.803-.373.167-1.04.225-1.442.529.108 0 .225-.01.382-.04 1.658-.322 4.905-1.41 6.327-1.576 1.835-.215 4.336-1.057 6.15-1.42 3.748-.744 5.16-1.028 9.369-1.87 2.942-.588 5.071-1.41 8.063-1.704 1.089-.108 2.737-.353 2.894-.568.166-.225.245-.813.196-1.45z"/>
        <path id="d" d="M.117 2.213c0 .793-.089 1.165.853.98.177-.03.363-.079.57-.118-.315-.079-.658-.118-.884-.314C.225 2.38.696 1.488.646.97.54-.137-.128.97.901.137L.735 0 .509.049C-.325.529.117 1.312.117 2.213z"/>
        <path id="e" d="M.513 7.237C-.331 7.717.12 8.5.12 9.4c0 .793-.089 1.165.853.979 1.658-.323 4.905-1.41 6.327-1.577 1.834-.215 4.336-1.057 6.15-1.42 3.747-.744 5.16-1.028 9.368-1.87 2.943-.587 4.267-1.312 7.26-1.596a16.952 16.952 0 0 0 3.197-.617c.608-.137.55-.97.569-1.606.03-1.351-.52-1.106-.716-1.351-.353-.46-.942-.294-1.226-.343L.513 7.237z"/>
        <path id="f" d="M33.852 1.946c-.03-.343.157-1.322-.04-1.577-.352-.46-.814-.372-1.226-.343L.402 7.371C.157 7.508.04 7.86 0 8.3l.059.03c.265-.549 1.255-.46 1.736-.52.697-.088 1.393-.088 2.02-.323C5.249 6.94 6.7 6.45 8.23 6.333c.951-.069 3.963-.96 4.64-1.136 1.658-.421 3.59-.803 5.218-1.107 1.53-.284 2.894-.49 4.444-.998.736-.245 1.481-.098 2.217-.236.706-.137 3.364-.989 3.992-1.096 1.187-.196 2.188-.44 2.56-.48.658-.069 2.09-.666 2.09-.05 0 2.194.02 2.126-3.14 2.42-1.363.127-3.727.793-5.06 1.087-.658.147-1.354.147-1.992.352-.706.235-1.471.402-2.178.539-1.53.293-3.188.548-4.698.852-1.433.284-2.875.666-4.267 1.057-.677.196-1.452.04-2.09.304-.618.254-1.226.45-1.824.656-.716.245-1.315.333-2.09.333-.804 0-1.255.059-1.932.411-.628.333-1.56.52-2.207.803-.373.167-1.04.225-1.442.529.108 0 .225-.01.382-.04 1.658-.322 4.905-1.41 6.327-1.576 1.835-.215 4.336-1.057 6.15-1.42 3.748-.744 5.16-1.028 9.369-1.87 2.942-.588 5.071-1.41 8.063-1.704 1.089-.108 2.737-.353 2.894-.568.166-.225.245-.813.196-1.45z"/>
        <path id="g" d="M.117 2.223c0 .793-.089 1.165.853.98.177-.03.363-.08.57-.128-.315-.079-.658-.118-.884-.314C.225 2.38.696 1.488.646.97.54-.137-.128.97.901.137L.735 0 .509.049C-.325.539.117 1.332.117 2.223z"/>
        <path id="h" d="M.48.372C.558.097.136-.177.019.146-.1.46.372.724.479.372z"/>
        <path id="i" d="M.477.372C.556.097.134-.177.017.146c-.109.314.352.578.46.226z"/>
        <path id="j" d="M.345.271C.405.076.1-.13.012.105-.067.33.267.526.345.271z"/>
        <path id="k" d="M.306 1.166c.697.401 1.53-.421.854-1-.677-.587-1.668.53-.854 1z"/>
        <path id="l" d="M.244.927c.55.313 1.217-.333.677-.793-.54-.47-1.324.42-.677.793z"/>
        <path id="m" d="M.267 1.006c.598.343 1.324-.362.736-.862-.589-.509-1.442.46-.736.862z"/>
        <path id="n" d="M.406.775C.848.59.877-.096.367.011c-.51.108-.48.99.04.764z"/>
        <path id="o" d="M.078.642C.372.926.764.192.42.025.107-.122-.13.426.078.642z"/>
        <path id="p" d="M.083.639C.378.923.77.189.427.022.103-.115-.133.433.083.639z"/>
        <path id="q" d="M.021.17c-.157.353.618.45.647.098C.698-.055.138-.084.021.17z"/>
        <path id="r" d="M.801.696C1.233.363.331-.284.056.138-.2.53.487.941.8.696z"/>
        <path id="s" d="M.801.696C1.233.363.331-.284.056.138-.2.53.487.941.8.696z"/>
        <path id="t" d="M.804.696C1.236.363.334-.284.06.138-.206.53.49.941.804.696z"/>
        <path id="u" d="M.026.403c-.245.724 1.315.773 1.305.068C1.32-.175.203-.116.026.403z"/>
        <path id="v" d="M0 .668c.02.763 1.491.284 1.246-.372C1.03-.312-.01.119 0 .668z"/>
        <path id="w" d="M0 .674c.02.764 1.491.284 1.246-.372C1.03-.315-.01.116 0 .674z"/>
        <path id="x" d="M0 .668c.02.763 1.491.284 1.246-.372C1.02-.312-.01.119 0 .668z"/>
        <path id="y" d="M0 .32C.01.682.706.457.589.144.49-.15 0 .056 0 .32z"/>
        <path id="z" d="M.513 7.237C-.331 7.717.12 8.5.12 9.4c0 .793-.089 1.165.853.979 1.658-.323 4.905-1.41 6.327-1.577 1.834-.215 4.336-1.057 6.15-1.42 3.747-.744 5.16-1.028 9.368-1.87 2.943-.587 4.267-1.312 7.26-1.596a16.952 16.952 0 0 0 3.197-.617c.608-.137.55-.97.569-1.606.03-1.351-.52-1.106-.716-1.351-.353-.46-.942-.294-1.226-.343L.513 7.237z"/>
        <path id="A" d="M33.852 1.946c-.03-.343.157-1.322-.04-1.577-.352-.46-.814-.372-1.226-.343L.402 7.371C.157 7.508.04 7.86 0 8.3l.049.03c.265-.549 1.256-.46 1.736-.52.697-.088 1.393-.088 2.021-.323C5.238 6.94 6.69 6.45 8.22 6.333c.952-.069 3.963-.96 4.64-1.136 1.658-.421 3.59-.803 5.218-1.107 1.53-.284 2.894-.49 4.444-.998.736-.245 1.481-.098 2.217-.236.706-.137 3.365-.989 3.992-1.096 1.187-.196 2.188-.44 2.56-.48.658-.069 2.09-.666 2.09-.05 0 2.194.02 2.126-3.139 2.42-1.364.127-3.727.793-5.062 1.087-.657.147-1.353.147-1.99.352-.707.235-1.472.402-2.178.539-1.53.293-3.189.548-4.7.852-1.431.284-2.873.666-4.266 1.057-.677.196-1.452.04-2.09.304-.618.254-1.226.45-1.824.646-.716.245-1.315.333-2.09.333-.804 0-1.255.059-1.932.411-.628.333-1.56.52-2.207.803-.373.167-1.04.225-1.442.53.108 0 .226-.01.383-.04C2.5 10.2 5.748 9.114 7.17 8.947c1.834-.215 4.335-1.057 6.15-1.42 3.747-.744 5.16-1.028 9.368-1.87 2.943-.587 5.071-1.41 8.063-1.704 1.089-.107 2.737-.352 2.894-.568.176-.205.255-.803.206-1.44z"/>
        <path id="B" d="M.117 2.223c0 .793-.089 1.165.853.98.177-.03.363-.08.57-.128-.315-.079-.658-.118-.884-.314C.225 2.38.696 1.488.646.97.54-.137-.128.97.901.137L.735 0 .509.049C-.325.539.117 1.332.117 2.223z"/>
        <path id="C" d="M.513 7.237C-.331 7.717.12 8.5.12 9.4c0 .793-.089 1.165.853.979 1.658-.323 4.905-1.41 6.327-1.577 1.834-.215 4.336-1.057 6.15-1.42 3.747-.744 5.16-1.028 9.368-1.87 2.943-.587 4.267-1.312 7.26-1.596a16.952 16.952 0 0 0 3.197-.617c.608-.137.55-.97.569-1.606.03-1.351-.52-1.106-.716-1.351-.353-.46-.942-.294-1.226-.343L.513 7.237z"/>
        <path id="D" d="M33.852 1.946c-.03-.343.157-1.322-.04-1.577-.352-.46-.814-.372-1.226-.343L.402 7.371C.157 7.508.04 7.86 0 8.3l.059.03c.265-.549 1.255-.46 1.736-.52.697-.088 1.393-.088 2.02-.323C5.249 6.94 6.7 6.45 8.23 6.343c.951-.069 3.963-.96 4.64-1.136 1.658-.421 3.59-.803 5.218-1.107 1.53-.284 2.894-.49 4.444-.999.736-.245 1.481-.098 2.217-.235.706-.137 3.364-.989 3.992-1.096 1.187-.196 2.188-.441 2.56-.48.658-.069 2.09-.666 2.09-.05 0 2.194.02 2.126-3.14 2.42-1.363.127-3.727.793-5.06 1.086-.658.147-1.354.147-1.992.353-.706.235-1.471.401-2.178.539-1.53.293-3.188.548-4.698.851-1.433.284-2.875.666-4.267 1.058-.677.196-1.452.04-2.09.304-.618.254-1.226.45-1.824.646-.716.245-1.315.333-2.09.333-.804 0-1.255.059-1.932.411-.628.333-1.56.52-2.207.803-.373.167-1.04.225-1.442.529.108 0 .225-.01.382-.04 1.658-.322 4.905-1.41 6.327-1.576 1.835-.215 4.336-1.057 6.15-1.42 3.748-.744 5.16-1.028 9.369-1.87 2.942-.588 5.071-1.41 8.063-1.704 1.089-.108 2.737-.353 2.894-.568.166-.215.245-.813.196-1.45z"/>
        <path id="E" d="M.117 2.223c0 .793-.089 1.165.853.98.177-.03.363-.08.57-.128-.315-.079-.658-.118-.884-.314C.225 2.38.696 1.488.646.97.54-.137-.128.97.901.137L.735 0 .509.049C-.325.529.117 1.322.117 2.223z"/>
        <path id="F" d="M.477.372C.555.097.134-.177.016.146-.092.46.379.724.477.372z"/>
        <path id="G" d="M.48.372C.558.097.136-.177.019.146-.1.46.372.724.479.372z"/>
        <path id="H" d="M.348.271C.407.076.103-.13.014.105-.074.34.27.535.348.271z"/>
        <path id="I" d="M.518.404C.606.11.145-.194.018.159-.1.5.41.785.518.404z"/>
        <path id="J" d="M.345.271C.405.076.1-.13.012.105c-.079.235.255.43.333.166z"/>
        <path id="K" d="M.267 1.006c.598.343 1.324-.362.736-.862-.589-.509-1.442.46-.736.862z"/>
        <path id="L" d="M.207.79c.47.264 1.03-.284.579-.676C.325-.288-.342.476.206.79z"/>
        <path id="M" d="M.207.79c.47.264 1.03-.284.579-.676C.325-.288-.342.476.206.79z"/>
        <path id="N" d="M.11.846c.392.381.911-.598.45-.813C.14-.163-.175.57.11.846z"/>
        <path id="O" d="M.577.874C1.117.767.597-.213.155.042c-.392.235.04.91.422.832z"/>
        <path id="P" d="M.11.846c.392.381.911-.598.45-.813C.14-.163-.175.57.11.846z"/>
        <path id="Q" d="M.801.696C1.233.363.331-.284.056.138-.2.53.487.941.8.696z"/>
        <path id="R" d="M0 .67c.02.764 1.491.284 1.246-.372C1.02-.31-.01.112 0 .67z"/>
        <path id="S" d="M0 .32C.01.682.706.457.589.144.49-.15 0 .056 0 .32z"/>
        <path id="T" d="M.113.519C.485.773.937.176.505.029.103-.118-.162.333.113.519z"/>
        <path id="U" d="M.113.516C.485.77.937.173.505.026.103-.111-.162.33.113.516z"/>
        <path id="V" d="M.555.142C.486-.191-.132.132.025.406c.157.255.58-.02.53-.264z"/>
        <path id="W" d="M.845.22C.747-.3-.205.21.04.62.276 1.013.923.592.845.22z"/>
        <path id="X" d="M.513 7.237C-.331 7.717.12 8.5.12 9.4c0 .793-.089 1.165.853.979 1.658-.323 4.905-1.41 6.327-1.577 1.834-.215 4.336-1.057 6.15-1.42 3.747-.744 5.16-1.028 9.368-1.87 2.943-.587 4.267-1.312 7.26-1.596a16.952 16.952 0 0 0 3.197-.617c.137-.421.049-1.126.01-1.586-.05-.637.049.842 0 .205-.03-.342.03-1.322-.167-1.576-.353-.46-.942-.294-1.226-.343L.513 7.237z"/>
        <path id="Y" d="M33.862 1.946c-.03-.343.157-1.322-.04-1.577-.353-.46-.814-.372-1.226-.343L.402 7.371C.157 7.508.04 7.86 0 8.3l.059.03c.265-.549 1.255-.46 1.736-.52.697-.088 1.393-.088 2.02-.323C5.249 6.94 6.7 6.45 8.23 6.343c.951-.069 1.923-.177 2.874-.177.697 0 1.413-.254 2.09-.43a75.706 75.706 0 0 1 4.855-1.048c1.53-.284 3.021-.725 4.571-1.234.736-.245 1.403-.45 2.129-.588.706-.137 2.256-.137 2.982-.205a4.62 4.62 0 0 0 1.736-.52c.265-.136.52-.323.814-.41.344-.108.667-.05 1.04-.089.657-.068 1.805-.264 1.687.353-.304 1.635-1.815 1.087-3.001 1.351-1.335.304-3.473 1.107-4.807 1.41-.657.147-1.354.147-1.991.353-.706.235-1.472.401-2.178.538-1.53.294-3.188.549-4.698.852-1.433.284-2.875.666-4.268 1.058-.676.196-1.451.039-2.089.303-.618.255-1.226.45-1.824.647-.717.245-1.315.333-2.09.333-.804 0-1.255.058-1.932.41-.628.334-1.56.52-2.207.804-.373.166-1.04.225-1.442.529.108 0 .225-.01.382-.04 1.658-.323 4.905-1.41 6.327-1.576 1.835-.216 4.336-1.058 6.15-1.42 3.748-.744 5.16-1.028 9.369-1.87 2.942-.588 5.07-1.41 8.063-1.704 1.088-.108 2.736-.353 2.894-.568.166-.235.245-.833.196-1.46z"/>
        <path id="Z" d="M.117 2.223c0 .793-.089 1.165.853.98.177-.03.363-.08.57-.128-.315-.079-.658-.118-.884-.314C.225 2.38.696 1.488.646.97.54-.137-.128.97.901.137L.735 0 .509.049C-.325.539.117 1.322.117 2.223z"/>
        <path id="aa" d="M.477.372C.555.097.134-.177.016.146-.092.46.379.724.477.372z"/>
        <path id="ab" d="M.345.271C.405.076.1-.13.012.105-.067.33.267.526.345.271z"/>
        <path id="ac" d="M.345.271C.405.076.1-.13.012.105c-.079.235.255.43.333.166z"/>
        <path id="ad" d="M.345.271C.405.076.1-.13.012.105c-.079.235.255.43.333.166z"/>
        <path id="ae" d="M.312 1.165c.697.401 1.53-.421.854-1-.687-.587-1.678.54-.854 1z"/>
        <path id="af" d="M.137.521C.45.697.823.335.519.071.215-.184-.226.316.137.52z"/>
        <path id="ag" d="M.137.521C.45.697.823.335.519.071.215-.184-.226.316.137.52z"/>
        <path id="ah" d="M.137.521C.45.697.823.335.519.071.215-.184-.226.316.137.52z"/>
        <path id="ai" d="M.244.927c.55.313 1.217-.333.677-.793-.54-.47-1.324.42-.677.793z"/>
        <path id="aj" d="M.267 1.006c.598.343 1.324-.362.736-.862-.589-.509-1.442.46-.736.862z"/>
        <path id="ak" d="M.078.634C.372.918.764.184.42.027.107-.129-.13.43.078.634z"/>
        <path id="al" d="M.021.174c-.157.352.618.45.647.097C.688-.06.128-.08.021.174z"/>
        <path id="am" d="M.047.331c-.334.695 1.226.94 1.304.235C1.43-.1.291-.178.047.331z"/>
        <path id="an" d="M.801.696C1.233.363.331-.284.056.138-.2.53.487.931.8.696z"/>
        <path id="ao" d="M0 .67c.02.764 1.491.284 1.246-.372C1.02-.31-.01.112 0 .67z"/>
        <path id="ap" d="M.113.515C.485.77.937.172.505.025.103-.111-.162.34.113.516z"/>
        <path id="aq" d="M.845.22C.747-.3-.205.21.04.62c.226.392.883-.02.805-.401z"/>
        <path id="ar" d="M.845.22C.747-.3-.205.21.04.62.266 1.003.913.592.845.22z"/>
        <path id="as" d="M33.754 6.753c.225-.235.353-.94.196-1.46-.128-.45-3.414-1.047-4.777-1.38-1.678-.411-3.384-1.018-4.983-1.723-1.668-.735-3.6-.755-5.386-.911-2.118-.186-5.905-1.9-6.768-1.038-.608.607-2.178 2.115-2.658 2.761A33.804 33.804 0 0 1 6.347 6.47C5.248 7.556 4.208 8.643 2.992 9.593 2.05 10.327 0 12.305 0 12.785c0 .235.069 1.204.255 1.322.402.255 2.511-.392 3.59-.744 1.423-.46 2.825-.93 4.307-1.254 2.913-.627 5.924-.97 8.916-1.557 2.845-.568 5.582-1.214 8.456-1.948.853-.206 8.004-1.616 8.23-1.851z"/>
        <path id="at" d="M11.965.274c-.609.607-2.168 1.939-2.649 2.585-.912 1.214-2.08 2.272-3.168 3.359C5.039 7.315 4.137 8.48 2.91 9.43c-.942.734-3.267 2.908-2.865 3.163.402.254 2.472-.51 3.551-.862 1.423-.46 2.855-.813 4.346-1.136 2.913-.627 5.895-1.116 8.887-1.714a160.708 160.708 0 0 0 8.456-1.909c1.226-.313 8.396-1.273 8.426-1.743.03-.47-3.502-1.087-4.866-1.42a29.45 29.45 0 0 1-4.904-1.645c-1.668-.735-3.541-.98-5.327-1.136-2.128-.186-5.787-1.616-6.65-.754z"/>
        <path id="au" d="M33.518 0c-.961.5-7.16 1.342-8.298 1.626-2.874.734-5.611 1.341-8.456 1.91-2.982.596-5.974 1.086-8.887 1.713-1.481.323-2.913.675-4.346 1.136C2.462 6.737.421 7.49 0 7.256c.255.44 2.443-.42 3.522-.773 1.422-.46 2.874-.637 4.355-.95 2.913-.627 5.954-1.293 8.936-1.89 2.845-.568 5.533-1.009 8.407-1.743 1.236-.304 8.23-1.371 8.298-1.9z"/>
        <path id="av" d="M16.44 1.302C14.89.617 13.135.392 11.467.245c-.432-.04-.932-.127-1.462-.245C9.3.166 8.573.49 7.896.685c-1.628.47-3.344.598-4.963 1.087a2.007 2.007 0 0 0-.147.186C1.98 3.026.97 3.966 0 4.926c.098-.02.196-.04.284-.069 1.442-.323 2.875-.46 4.356-.607 1.157-.118 2.276-.304 3.404-.627 1.765-.509 3.55-1.067 5.385-1.214.637-.049 1.295-.333 1.932-.333.422 0 .932.049 1.374.088a5.17 5.17 0 0 0 1.687-.088 30.68 30.68 0 0 1-1.982-.774z"/>
        <path id="aw" d="M28.643.705C27.77.51 26.868.323 26.328.195c-.245-.058-.49-.126-.726-.195-.48.059-.961.118-1.432.166-2.276.235-4.61.431-6.808 1.058-2.785.783-5.561 1.41-8.455 1.763-1.197.147-2.403-.06-3.58.264-.815.225-1.58.539-2.345.862-.5.529-1.02 1.038-1.609 1.508C1.03 5.885.5 6.345 0 6.835c1.805-.176 3.62-.264 5.395-.774C6.69 5.69 7.77 4.808 9.054 4.465c.745-.205 1.52-.235 2.266-.391.559-.108 1.108-.333 1.677-.392 1.246-.137 2.384-.362 3.61-.617 2.001-.421 3.953-.97 5.974-1.302 1.079-.177 2.168-.314 3.237-.52.951-.215 1.874-.362 2.825-.538z"/>
        <path id="ax" d="M.477.372C.555.097.134-.177.016.146-.092.46.379.734.477.372z"/>
        <path id="ay" d="M.477.372C.555.097.134-.177.016.146-.092.47.379.734.477.372z"/>
        <path id="az" d="M.477.372C.555.097.134-.177.016.146-.092.46.379.724.477.372z"/>
        <path id="aA" d="M.477.372C.556.097.134-.177.017.146c-.109.314.352.578.46.226z"/>
        <path id="aB" d="M.652.508C.76.136.182-.246.025.204c-.157.431.48.794.627.304z"/>
        <path id="aC" d="M.345.271C.404.076.1-.13.012.105-.067.33.276.526.345.271z"/>
        <path id="aD" d="M.345.271C.404.076.1-.13.012.105-.067.34.276.526.345.271z"/>
        <path id="aE" d="M.345.271C.405.076.1-.13.012.105-.067.34.267.526.345.271z"/>
        <path id="aF" d="M.306 1.166c.697.401 1.53-.421.854-1-.677-.587-1.668.53-.854 1z"/>
        <path id="aG" d="M.312 1.166c.697.401 1.53-.421.854-1-.687-.587-1.678.53-.854 1z"/>
        <path id="aH" d="M.248.93c.55.314 1.217-.332.677-.793C.385-.343-.409.56.248.931z"/>
        <path id="aI" d="M.149.556C.482.742.875.36.56.076.227-.198-.244.341.149.556z"/>
        <path id="aJ" d="M.406.775C.848.59.867-.096.367.011c-.51.108-.48.98.04.764z"/>
        <path id="aK" d="M.406.775C.848.59.877-.096.367.011c-.51.108-.48.98.04.764z"/>
        <path id="aL" d="M.155 1.185C.695 1.714 1.42.343.783.049.194-.235-.247.793.155 1.185z"/>
        <path id="aM" d="M.11.849C.501 1.23 1.02.25.56.036.14-.17-.175.565.11.849z"/>
        <path id="aN" d="M.804.696C1.236.363.334-.284.06.138-.206.53.49.941.804.696z"/>
        <path id="aO" d="M.026.41c-.245.725 1.315.774 1.305.069C1.33-.177.213-.12.026.41z"/>
        <path id="aP" d="M.026.406c-.245.725 1.315.774 1.305.069C1.33-.171.203-.122.026.406z"/>
        <path id="aQ" d="M.113.515C.485.77.937.172.505.025.103-.111-.162.34.113.516z"/>
        <path id="aR" d="M.555.142C.486-.191-.132.132.025.406c.157.255.58-.02.53-.264z"/>
        <path id="aS" d="M.555.142C.486-.191-.132.132.025.406c.157.255.58-.02.53-.264z"/>
        <path id="aT" d="M.477.372C.555.097.134-.177.016.146-.092.46.379.734.477.372z"/>
        <path id="aU" d="M.477.372C.555.097.134-.177.016.146-.092.47.379.734.477.372z"/>
        <path id="aV" d="M.477.372C.555.097.134-.177.016.146-.092.46.379.724.477.372z"/>
        <path id="aW" d="M.477.372C.556.097.134-.177.017.146c-.109.314.352.578.46.226z"/>
        <path id="aX" d="M.652.508C.76.136.182-.246.025.204c-.157.431.48.794.627.304z"/>
        <path id="aY" d="M.345.271C.404.076.1-.13.012.105-.067.33.276.526.345.271z"/>
        <path id="aZ" d="M.345.271C.404.076.1-.13.012.105-.067.34.276.526.345.271z"/>
        <path id="ba" d="M.345.271C.405.076.1-.13.012.105-.067.34.267.526.345.271z"/>
        <path id="bb" d="M.306 1.166c.697.401 1.53-.421.854-1-.677-.587-1.668.53-.854 1z"/>
        <path id="bc" d="M.306 1.166c.697.401 1.53-.421.854-1-.677-.587-1.668.53-.854 1z"/>
        <path id="bd" d="M.248.93c.55.314 1.217-.332.677-.793C.385-.343-.409.56.248.931z"/>
        <path id="be" d="M.149.556C.482.742.875.36.56.076.227-.198-.244.34.149.556z"/>
        <path id="bf" d="M.406.775C.848.59.867-.096.367.011c-.51.108-.48.98.04.764z"/>
        <path id="bg" d="M.406.775C.848.59.877-.096.367.011c-.51.108-.48.98.04.764z"/>
        <path id="bh" d="M.155 1.185C.695 1.714 1.42.343.783.049.194-.235-.247.793.155 1.185z"/>
        <path id="bi" d="M.11.849C.501 1.23 1.02.25.56.036.14-.17-.175.565.11.849z"/>
        <path id="bj" d="M.804.696C1.236.363.334-.284.06.138-.206.53.49.941.804.696z"/>
        <path id="bk" d="M.026.41c-.245.725 1.315.774 1.305.069C1.33-.177.213-.12.026.41z"/>
        <path id="bl" d="M.026.403c-.245.724 1.315.773 1.305.068C1.32-.175.203-.116.026.403z"/>
        <path id="bm" d="M.113.515C.485.77.937.172.505.025.103-.111-.162.34.113.516z"/>
        <path id="bn" d="M.555.142C.486-.191-.132.132.025.406c.157.255.58-.02.53-.264z"/>
        <path id="bo" d="M.555.142C.486-.191-.132.132.025.406c.157.255.58-.02.53-.264z"/>
        <path id="bp" d="M4.648 8.954c1.265-.03 2.874-.284 4.002-.911.932-.529 1.648-1.557 1.716-2.644.079-1.312-.735-2.693-1.393-3.77C8.297.522 7.581-.134 6.217.023 4.854.189 3.588 1.13 2.568 1.991 1.588 2.814.645 3.842.184 5.046c-.412 1.078-.137 2.243.864 3.036.47.382 2.236.901 3.6.872z"/>
        <path id="bq" d="M.573.001c.176.01.294.177.255.333v.02C.818.599.573.716.357.746.269.756.112.756.043.677-.016.589-.006.501.023.403.102.178.337-.018.573 0z"/>
        <path id="br" d="M.502 0c.196 0 .304.118.285.284.02.01.03.03.02.059C.766.539.57.685.374.715.188.735-.057.627.012.4A.524.524 0 0 1 .502 0z"/>
        <path id="bs" d="M.873.298v.01C.863.63.108.866.009.504-.108.073.912-.27.873.298z"/>
        <path id="bt" d="M.868.207c0 .02 0 .039-.01.049C.927.412.721.589.603.657.436.745.093.804.015.57-.123.14.75-.253.868.207z"/>
        <path id="bu" d="M.462.004c.226-.029.412.089.412.324v.02c.01.019 0 .038-.01.058C.787.582.562.7.375.709.168.72-.018.563.001.357.021.151.276.034.462.004z"/>
        <path id="bv" d="M.542.001c.274-.02.421.245.274.46C.69.647.404.638.198.608A.225.225 0 0 1 .061.57C-.018.52-.008.403.02.334.092.138.346.011.542.001z"/>
        <path id="bw" d="M.8.089C.977.236.87.48.76.608a.516.516 0 0 1-.578.137C.123.725.084.676.055.618A.217.217 0 0 1 .005.51C-.033.334.144.157.27.089c.167-.098.373-.137.53 0z"/>
        <path id="bx" d="M.594 0a.267.267 0 0 1 .274.226C.888.392.741.549.613.618.486.696.29.784.143.745.014.705-.035.588.024.47.035.44.055.42.074.392.133.187.378.01.594.001z"/>
        <path id="by" d="M.036.63C.026.61.026.58.016.56-.092.268.37.042.586.003c.293-.039.42.294.293.51C.83.61.722.678.634.737.448.855.124.865.036.63z"/>
        <path id="bz" d="M.814.092c.03.04.07.088.079.147v.088C.913.503.746.65.599.738.47.817.089.885.019.69.01.65 0 .621 0 .592-.01.317.236.082.49.024.6-.026.747.004.815.092z"/>
        <path id="bA" d="M.598 0c.137 0 .225.118.245.245.01.03 0 .068 0 .098C.873.539.617.695.47.754.274.823-.06.754.01.46.057.215.342 0 .597 0z"/>
        <path id="bB" d="M.034.382C.162.176.427 0 .682 0c.186 0 .343.235.225.392a.594.594 0 0 1-.5.401C.201.813-.103.617.034.382z"/>
        <path id="bC" d="M.825.134c.01.02.01.049 0 .078v.01c.01.362-.687.822-.814.323C-.05.33.148.144.315.065c.167-.078.392-.117.51.069z"/>
        <path id="bD" d="M.773.126c0 .01.01.01.01.02l.01.01C.92.477.301.957.046.683-.09.527.106.234.224.135.38-.002.645-.08.773.125z"/>
        <path id="bE" d="M.922.281c0 .02 0 .04-.01.059C.932.516.677.673.56.74.392.83.01.791 0 .536 0 .27.216.134.432.046c.245-.098.46-.049.49.235z"/>
        <path id="bF" d="M.802.115c.02.02.02.05.01.088l.01.01C1 .605.224.84.028.517-.08.34.155.154.283.076c.176-.098.372-.117.52.04z"/>
        <path id="bG" d="M.903.23c.01.02 0 .04 0 .059l.01.02c.01.02.01.039 0 .058 0 .147-.246.255-.354.284C.403.691.01.671 0 .436-.02.034.775-.201.903.23z"/>
        <path id="bH" d="M.805.048c.059.04.088.098.088.166.02.05.02.108 0 .167C.883.557.707.714.55.792.393.861-.019.861 0 .587.02.322.325.165.53.028a.273.273 0 0 1 .275.02z"/>
        <path id="bI" d="M.57 0C.61 0 .64 0 .67.02h.02c.098.029.137.205.147.293a.412.412 0 0 1-.079.275C.737.617.698.627.68.656A.634.634 0 0 1 .6.744.624.624 0 0 1 .277.92.178.178 0 0 1 .149.891C-.037.851-.018.597.041.451.15.224.316.02.571 0z"/>
        <path id="bJ" d="M.75 0c.176 0 .196.196.137.323 0 .01-.01.02-.02.03A.502.502 0 0 1 .77.588C.641.744.396.783.2.774a.179.179 0 0 1-.108-.04.26.26 0 0 1-.059-.049C.023.675.023.675.013.656c-.01-.01-.01-.02-.01-.03-.009-.029 0-.058.02-.087v-.06C.033.314.2.197.328.128.445.07.602 0 .749 0z"/>
        <path id="bK" d="M.555.03c.157-.06.333-.04.392.146a.41.41 0 0 1-.04.304C.81.783.438.98.144.793-.28.52.349.108.555.03z"/>
        <path id="bL" d="M.999 3.58c.049-.069.098-.128.156-.196.01-.02.03-.04.04-.05l.176-.205c.363-.411.765-.793 1.168-1.136C3.569 1.131 4.824.191 6.188.025c.304-.04.578-.03.824.01h.01l.166.03h.01c.108.028.206.058.304.097h.01a.897.897 0 0 1 .157.078c.04.02.069.04.108.06.46.283.834.734 1.187 1.311.657 1.077 1.471 2.458 1.393 3.77-.04.715-.373 1.4-.854 1.94-.01.01-.02.019-.02.029-.02.02-.029.039-.049.049a.26.26 0 0 0-.049.058l-.029.03a3.373 3.373 0 0 1-.706.538c-1.119.627-2.727.882-4.002.911-.344.01-.707-.02-1.08-.069h-.01c-.127-.02-.264-.039-.392-.068-.02 0-.039-.01-.058-.01l-.138-.03c-.03-.009-.049-.009-.078-.019a.506.506 0 0 0-.108-.02c-.03-.01-.059-.01-.079-.019-.039-.01-.068-.02-.098-.02-.03-.01-.059-.01-.088-.02-.03-.009-.059-.019-.088-.019-.03-.01-.06-.02-.089-.02a.287.287 0 0 0-.088-.019l-.088-.03c-.03-.01-.05-.019-.079-.019L2 8.524a.479.479 0 0 1-.069-.029.676.676 0 0 1-.078-.029c-.01 0-.01 0-.02-.01-.353-.127-.637-.254-.784-.372C.047 7.291-.228 6.126.184 5.048c.157-.42.383-.822.648-1.204 0-.01.01-.01.01-.02.049-.068.098-.137.147-.195-.02-.02-.01-.04.01-.05zm-.56 1.44c-.068.195.05.43.197.596.117.137.353.06.45.196.099.137-.176.44-.225.568-.088.245.059.343.255.46.177.108.451.089.618.216.216.176.01.333-.098.49-.294.43.216.685.667.773.393.078.657-.108.863-.088.187.02.314.166.422.294.334.382.795.137 1.128-.098.167-.118.314-.206.53-.196.265.02.255.215.422.343.157.117.51.049.677.02.206-.04.421-.157.608-.265a1.38 1.38 0 0 0 .47-.45c.118-.187.177-.382.373-.49a.474.474 0 0 1 .58.059c.166.156.293.205.529.078.176-.088.304-.284.412-.45.451-.764-.02-1.264-.088-1.646-.03-.156-.04-.391-.197-.509-.127-.088-.304-.068-.431-.127-.324-.157-.589-.5-.716-.823-.079-.176-.128-.411-.03-.597.108-.196.236-.274.157-.52a1.013 1.013 0 0 0-.333-.47 1.958 1.958 0 0 1-.383-.42c-.216-.323-.216-.637-.04-.99.285-.577-.293-.734-.46-.773-.216-.049-.422-.078-.638-.01-.176.06-.46.157-.588.284-.147.157-.108.343-.177.53-.118.371-.706.538-1.05.567-.402.04-.892-.137-1.255.118-.314.215-.294.666-.628.852-.373.205-.637.186-.863.45-.226.264.02.411-.206.852-.255.48-.628.264-.952 1.175z"/>
        <path id="bM" d="M.154.233A.933.933 0 0 1 .36.047c.108-.069.284-.088.343.127.05.167-.068.284-.147.362C.4.674-.307.82.154.233z"/>
        <path id="bN" d="M.007.392C-.072.118.566-.166.684.118.8.42.085.676.007.392z"/>
        <path id="bO" d="M.008.426C-.08.122.606-.181.744.132.87.445.086.73.008.426z"/>
        <path id="bP" d="M.472.483C.365.523.031.62.002.433-.018.268.149.15.266.082.394.013.6-.065.698.091.796.258.62.424.472.483z"/>
        <path id="bQ" d="M.08.446C-.215.24.384-.093.61.024 1.001.24.344.622.08.446z"/>
        <path id="bR" d="M.068.408c-.274-.225.354-.51.56-.372C1 .28.314.604.068.408z"/>
        <path id="bS" d="M.565.53C.39.62.193.639.045.53-.091.424.116.218.233.15.359.07.634-.086.752.06.879.217.722.452.565.53z"/>
        <path id="bT" d="M.182.089C.33 0 .506-.038.643.049.781.139.604.335.516.403.408.481.182.637.055.52-.073.402.045.177.182.089z"/>
        <path id="bU" d="M.326.01C.17.05.032.149.002.296-.027.442.218.45.326.432.444.412.7.363.7.207.699.04.473-.028.326.01z"/>
        <path id="bV" d="M.195.09C.068.199-.03.356.01.503c.039.157.274.049.373-.01C.489.414.705.257.637.101.558-.046.313-.017.195.09z"/>
        <path id="bW" d="M.605.4C.487.517.27.527.124.508c-.334-.05.088-.45.304-.5C.644-.04.869.135.605.4z"/>
        <path id="bX" d="M.06.476C-.087.388.07.192.158.124.257.055.384-.023.512.006c.108.03.186.128.166.235C.63.467.247.584.06.476z"/>
        <path id="bY" d="M.065.495C-.092.407.075.192.163.133.26.065.398-.024.536.006c.107.03.186.127.166.245C.663.486.261.613.065.495z"/>
        <path id="bZ" d="M.573.385C.435.425.259.493.122.464.043.444-.016.395.004.307.024.248.063.18.112.15.239.052.465-.055.622.033.769.11.73.336.572.385z"/>
        <path id="ca" d="M.474.009C.336.048.15.097.052.195c-.06.059-.079.127 0 .196C.1.43.169.459.228.459.385.47.64.43.718.273.789.126.632-.04.475.01z"/>
        <path id="cb" d="M.75.12C.858.279.672.484.534.553.417.61.181.64.064.582-.123.482.152.286.23.218.3.169.613-.075.691.023l.06.098z"/>
        <path id="cc" d="M.745.106C.863.312.686.449.51.527.382.586.118.644.03.487-.08.303.136.195.264.107c.088-.059.363-.206.48 0z"/>
        <path id="cd" d="M.696.102C.804.297.647.425.481.493.363.543.118.601.029.454-.078.278.137.18.245.102c.079-.06.344-.196.451 0z"/>
        <path id="ce" d="M.647.47a.593.593 0 0 1-.451.137C-.02.587-.06.412.088.265.166.177.392.02.539 0c.147-.01.402.226.108.47z"/>
        <path id="cf" d="M.567.458C.42.536.204.615.067.536-.1.448.087.243.194.145.312.037.518-.061.645.047.773.145.724.37.567.458z"/>
        <path id="cg" d="M.503.371C.385.421.21.538.081.5-.135.43.141.215.21.136.317.02.532-.059.669.058.847.195.632.313.504.371z"/>
        <path id="ch" d="M.489.066c.255.137.48.764.56 1.008.146.45.127.95.176 1.42.039.431-.03 1 .166 1.41.187.392.775.265.775.45 0 .187-.833.216-1.265-.126C.44 3.865.185 3.218.077 2.729-.06 2.083-.001 1.623.155.986.215.761.116-.267.49.066c.108.059 0 0 0 0z"/>
        <path id="ci" d="M1.678 1.147a1.066 1.066 0 0 1-.206.372c-.098.098-.177.176-.255.284-.059.088-.167.235-.275.274-.157.049-.255-.098-.304-.225a6.362 6.362 0 0 0-.216-.45c-.078-.128-.166-.246-.245-.373C.128.951.1.872.06.794 0 .686-.029.657.04.539.129.363.306.295.492.236c.333-.108.785-.382 1.128-.137.284.205.167.773.059 1.048z"/>
        <path id="cj" d="M1.08 1.744c-.138.02-.245-.205-.285-.313a1.047 1.047 0 0 1-.039-.392A1.91 1.91 0 0 1 .874.59c.059-.137.167-.216.274-.314.06-.058.246-.235.07-.274-.05-.01-.158.04-.207.05C.942.07.893.07.815.07.53.04.246-.087.06.217c-.216.352.215.617.323.9.363.911.697.627.697.627z"/>
        <path id="ck" d="M2.407 3.907c.02-.274-.01-.49-.108-.754a3.756 3.756 0 0 0-.51-.88c-.275-.353-.657-.618-.971-.931-.236-.245-.53-.588-.49-.97C.346.216.542.05.454.01.357-.039.219.098.16.265c-.108.254-.481.763.49 1.733.245.245.53.392.667.715.137.313.255.646.442.92.058.088.117.196.215.255a.98.98 0 0 0 .285.098l.147-.079z"/>
        <path id="cl" d="M1.982 2.088c-.059-.206-.412-.196-.569-.216-.166-.02-.333-.029-.5-.058-.275-.05-.598-.128-.755-.382C-.01 1.167-.03.912.03.609.06.482.207-.037.383.002c.06.01.147.176.167.216C.6.306.63.413.668.502c.098.195.186.372.363.509.166.127.343.196.52.293.078.04.157.089.225.138.138.117.138.274.206.42v.226z"/>
        <path id="cm" d="M.227 1.726C.12 1.638.1 1.383.11 1.256A.785.785 0 0 1 .247.864C.414.6.737.472 1.022.384 1.238.316 1.07.227.962.16.856.1.719-.017.59.002.296.052.14.374.06.63.031.746-.008.874.002.99c0 .059 0 .147.02.196.019.098.058.225.097.313l.108.226z"/>
        <path id="cn" d="M.235 2.235c.58-.127 1.09-.352 1.52-.773.236-.225.403-.45.53-.744.05-.118.197-.51.108-.627-.039-.059-.186-.059-.245-.069-.117-.029-.206-.039-.323.03-.187.098-.079.352-.108.548-.069.47-.432.881-.873 1.068a1.928 1.928 0 0 1-.452.166c-.088.02-.363.01-.392.059l.235.342z"/>
        <path id="co" d="M.618 1.245c.05.255.07.656-.058.891-.02.04-.06.05-.089.02C.246 1.9.216 1.49.157 1.176.01.345-.019.032.01.012c.285-.127.54.852.608 1.234z"/>
        <path id="cp" d="M.105.004c.02.01.04.02.05.039.039.02.068.059.088.088 0 .01.01.01.01.02.01.029.02.068.029.097.01.04.02.069.02.108v.03c.01.029.01.068.01.097 0 .02-.03.079-.02.098.02.06-.05.147-.088.108C.086.68.037.444.017.356a.27.27 0 0 1-.01-.088.238.238 0 0 1 0-.117c0-.04.02-.079.05-.118 0-.03.029-.04.048-.03z"/>
        <path id="cq" d="M.079 0C.216.02.412.315.45.433c.04.137.138.274.206.401.05.118.05.255.099.363.01.029 0 .068-.02.088-.02.029-.05.039-.069.01-.039-.04-.117-.07-.137-.108C.47 1.078.432.96.383.853.275.598.088.373.01.109-.02.069.02-.01.079 0z"/>
        <path id="cr" d="M.622.063C.554.455.465.934.102 1.16c-.01.01-.01.02-.02.02l-.019.009c-.078.03-.078-.108-.03-.137C.378.856.457.415.515.062c0-.068.118-.097.108 0z"/>
        <path id="cs" d="M.167.054a.12.12 0 0 1-.05.098L.07.172C.029.192.009.152 0 .122 0 .085.02.045.049.026l.05-.02c.038-.02.058.02.068.05z"/>
        <path id="ct" d="M.144.055c.068.04.176.059.235.079C.507.182.634.23.762.29c.088.04.176.059.245.128.03.029.177.166.157.176.078-.04.078.117.01.147l-.02.01c-.02.01-.04 0-.049-.02C.968.506.703.427.467.339.33.29.124.261.017.143c-.04-.039 0-.107.038-.127l.02-.01c.05-.02.069.01.069.05z"/>
        <path id="cu" d="M.107.035l.01.03c.03 0 .04.029.049.048a.12.12 0 0 1-.049.098l-.02.01C.067.23.048.21.04.19L.009.123C-.03.045.068-.053.107.035z"/>
        <path id="cv" d="M.378.019l.02.02c.04.019.04.068.02.107.049.205 0 .43-.079.627-.04.097-.127.284-.235.303-.187.04-.069-.333-.05-.401.08-.216.06-.49.236-.656.03-.02.069-.03.088 0z"/>
        <path id="cw" d="M4.25 4.486c-.04-.117-.069-.254-.157-.352-.059-.06-.157-.137-.255-.147-.108-.01-.245.117-.353.157-.216.097-.599.029-.658-.245-.068-.294.128-.46.354-.598-.03-.303-.079-.979-.55-.783-.186.078-.353.186-.52.03-.127-.128-.117-.412-.059-.578.099-.235.285-.265.5-.333.089-.03.236-.069.226-.186-.01-.128-.157-.196-.255-.196-.225-.01-.45.058-.677.039-.215-.02-.304-.225-.274-.44.04-.216.186-.304.353-.412.137-.088.353-.235.255-.43-.078.028-.167-.02-.245-.01-.089.01-.216.038-.304.068-.177.059-.393.108-.54.235C1.023.364.954.432.934.53c-.02.078.01.157-.02.245-.078.206-.274.333-.44.421-.148.078-.413.137-.462.323-.069.255.167.333.373.304.353-.05.883-.284 1.128.127.284.47-.598.607-.814.803-.138.117-.157.44-.059.578.098.137.402.137.53.127.215-.03.343-.196.559-.225.127-.02.353.108.431.225.255.362-.294.764-.549.93-.176.118-.422.157-.432.402a.497.497 0 0 0 .324.5c.373.156.746-.177 1.099-.275.147-.04.353-.069.46.049.128.127.109.343.354.313.186-.02.324-.117.461-.215.128-.088.334-.137.412-.274.098-.137 0-.274-.04-.402z"/>
        <path id="cx" d="M1.2.704a.32.32 0 0 1-.088.343c-.128.137-.265.098-.442.098-.255 0-.618.049-.667-.294C-.036.548.288.332.493.185c.295-.196.442-.323.619.079l.088.44z"/>
        <path id="cy" d="M.605.244C.674.41.733.518.565.636.439.724.184.763.056.675-.17.508.35-.187.547.048l.059.196z"/>
        <path id="cz" d="M.223.176C.145.264.145.4.263.45.302.47.34.47.38.48.213.527.037.517.007.39-.06.166.361-.069.577.02.428-.001.311.068.222.176z"/>
        <path id="cA" d="M.555.006l-.098.03A.778.778 0 0 0 .241.22C.173.3.192.407.241.495l.089.03a.394.394 0 0 1-.265-.03C-.092.407.075.192.163.133.26.065.398-.024.536.006c.01-.01.02 0 .02 0z"/>
        <path id="cB" d="M.422.01a.29.29 0 0 1 .206.02C.481.06.236.098.197.265.167.412.324.46.47.48a.894.894 0 0 1-.353.03C-.206.46.216.06.422.01z"/>
        <path id="cC" d="M.588.011C.47.051.362.09.254.158.137.227.127.374.264.432l.089.03c-.05 0-.089.01-.128 0A.306.306 0 0 1 .048.393C-.03.334 0 .256.048.197.147.1.333.05.47.011c.04-.02.079-.01.118 0z"/>
        <path id="cD" d="M.27.114C.337.064.494-.024.621.006A.768.768 0 0 0 .24.23C.073.417.328.505.485.535.348.584.112.633.025.485-.075.3.151.203.268.115z"/>
        <path id="cE" d="M.177.258C.078.424.206.503.343.532.226.562.088.552.03.454-.078.277.137.179.245.1.305.061.432-.016.54.003.402.062.255.121.177.258z"/>
        <path id="cF" d="M.172.237C.055.432.212.49.37.49.26.55.133.6.055.521-.073.402.045.177.182.09A.548.548 0 0 1 .496 0C.37.051.251.11.172.237z"/>
        <path id="cG" d="M.611.016C.464.056.307.114.219.251.13.38.248.427.366.437.268.487.16.525.08.496-.135.427.141.212.21.134.307.036.483-.033.61.016z"/>
        <path id="cH" d="M.608.01C.548.03.49.049.43.078c-.01 0-.01.01-.02.02C.274.196.137.4.225.558c.01.01.02.01.03.02.02.01.049.02.078.03a.325.325 0 0 1-.137 0C-.02.587-.06.41.088.263.166.176.392.02.539 0c.03 0 .049 0 .069.01z"/>
        <path id="cI" d="M.206.191C.127.28.127.436.245.485c.039.02.078.02.127.01C.274.563.05.65.01.505-.03.357.06.2.196.092A.388.388 0 0 1 .5.005a.718.718 0 0 0-.294.186z"/>
        <path id="cJ" d="M.002.295C.032.148.168.06.325.01a.405.405 0 0 1 .216.01C.443.068.345.108.247.176.129.255.168.363.247.442.139.442-.018.412.002.295z"/>
        <path id="cK" d="M.628.037a.758.758 0 0 0-.373.117C.137.223.157.34.265.42c.029.02.058.03.088.039-.108.01-.216 0-.285-.059-.274-.225.354-.5.56-.362z"/>
        <path id="cL" d="M.66.095A.423.423 0 0 0 .317.25C.257.32.199.428.228.516c.01.059.069.088.118.107C.111.692-.184.653.15.232A.933.933 0 0 1 .356.046C.444-.013.58-.033.66.095z"/>
        <path id="cM" d="M.22.372C.163.52.31.568.457.578.328.617.162.627.064.578-.123.48.152.284.23.215.29.166.515 0 .633 0 .466.078.289.186.22.372z"/>
        <path id="cN" d="M.228.149C.355.07.63-.086.748.06l.01.01a.79.79 0 0 0-.413.156C.228.305.17.472.306.57c.01.01.03.02.04.02C.236.6.13.59.05.52-.096.424.11.218.228.15z"/>
        <path id="cO" d="M.22.18C.063.336.21.415.357.454a.485.485 0 0 1-.235.01C.043.444-.016.395.004.307.024.248.063.18.112.15.239.052.465-.055.622.033A.6.6 0 0 0 .22.18z"/>
        <path id="cP" d="M.008.428C-.061.193.35-.042.586.007.537.017.478.027.43.046.282.134.145.26.155.437A.36.36 0 0 0 .33.545C.174.575.037.545.008.428z"/>
        <path id="cQ" d="M.174.255C.027.509.38.49.557.46.41.54.204.607.067.54-.1.45.087.245.194.147A.59.59 0 0 1 .498 0a.563.563 0 0 0-.324.255z"/>
        <path id="cR" d="M.078.44C-.197.246.323-.058.568.01.431.04.245.098.176.196.098.313.216.43.313.47c.01 0 .02.01.02.01C.235.5.147.49.078.44z"/>
        <path id="cS" d="M0 .388C0 .358.01.34.01.31A.416.416 0 0 1 .157.124C.255.055.383-.023.51.006c.02 0 .03.01.05.02a.652.652 0 0 0-.197.059.453.453 0 0 0-.167.166C.128.36.156.447.226.525A.268.268 0 0 1 .069.486C.019.456 0 .427 0 .388z"/>
        <path id="cT" d="M.237.218C.149.307.168.424.257.502c.01.01.03.02.039.03C.168.562.02.552.002.434-.018.267.149.15.266.08.355.032.502-.026.6.013a.796.796 0 0 0-.363.205z"/>
        <path id="cU" d="M.195.017c.01.01.01.02.02.03 0 .009.01.019.01.028 0 .02 0 .03-.01.05 0 .019 0 .048-.02.068-.02.03-.039.059-.078.078-.01 0-.01 0-.02.01s-.02.01-.029.02C.048.31.028.3.018.28-.02.222.01.144.039.095.069.036.138-.032.196.017z"/>
        <path id="cV" d="M.24.042c.01.02.01.03.01.049C.25.149.21.208.162.247c-.04.03-.079.069-.128.03C-.025.237.004.149.034.1A.301.301 0 0 1 .181.003c.03-.01.05.01.059.039z"/>
        <path id="cW" d="M.214.005c.04-.02.06.02.069.05 0 .019 0 .038-.01.048 0 .01-.01.02-.02.03 0 .01-.01.02-.02.029C.225.192.205.221.196.24A.182.182 0 0 1 .116.31c-.02.01-.069.03-.088.01C-.07.22.116.054.195.015c.01-.01.01-.01.02-.01-.01 0 0 0 0 0z"/>
        <path id="cX" d="M.113.033C.143.102.045.2.005.112-.024.053.075-.055.113.033z"/>
        <path id="cY" d="M.127.032c.02.02.02.049.029.078C.186.18.087.277.048.19l-.02-.04C-.02.13 0 .032.048.012l.01-.01c.04-.01.069.01.069.03z"/>
        <path id="cZ" d="M.162.01a.11.11 0 0 1 .02.157c-.01.02-.02.04-.04.049-.038.02-.068.04-.107.03-.04-.01-.04-.06-.03-.089.01-.03.02-.049.04-.068.01-.02.03-.03.039-.04C.094.02.133-.018.162.01z"/>
        <path id="da" d="M.246.002c.03 0 .05.02.05.049l.01.01.01.01c.009.019 0 .048-.01.068 0 .01-.01.02-.01.02C.276.216.217.255.158.275.1.306.011.306.001.217-.009.148.041.09.09.051.129.03.197-.01.246 0z"/>
        <path id="db" d="M.247.003c.03-.01.05.01.06.029v.01c0 .01 0 .02.01.02V.14c-.01.02-.02.039-.02.049-.02.029-.04.058-.07.088C.18.326.1.385.033.336-.038.286.022.179.06.13A.523.523 0 0 1 .247.003z"/>
        <path id="dc" d="M.19.01C.218-.01.247 0 .267.04c.01.019.01.048 0 .068 0 .02-.01.039-.02.049A.203.203 0 0 1 .14.284c.02-.01 0 0-.01 0s-.01.01-.02.01a.182.182 0 0 1-.068.02C-.027.293.002.175.032.136A.376.376 0 0 1 .18.01h.01z"/>
        <path id="dd" d="M.285.05l.01.01.01.01c.01.02 0 .05-.01.069a.267.267 0 0 1-.069.127C.186.306.108.364.049.345-.039.315.01.198.05.139A.395.395 0 0 1 .226.002c.03-.01.05.02.059.049z"/>
        <path id="de" d="M.113.035C.143.104.045.201.005.113-.024.045.075-.053.113.035z"/>
        <path id="df" d="M.2 0h.03s.01 0 .01.01l.01.01c0 .01 0 .01.01.02V.068C.24.166.122.215.034.196c-.059-.01-.03-.108 0-.137C.083.039.142.019.201 0z"/>
        <path id="dg" d="M.33.007c.029.01.038.069.019.108A.215.215 0 0 1 .23.242C.162.282.113.311.035.302c-.04-.01-.04-.07-.03-.089.02-.049.06-.078.099-.108A.625.625 0 0 1 .28.007c.02-.01.04-.01.05 0z"/>
        <path id="dh" d="M.09.035c.009 0 .009 0 0 0 .009 0 .019-.01.029-.01.02-.01.029-.01.049-.02.039-.02.058.02.068.05a.12.12 0 0 1-.049.097C.138.172.05.221.011.162-.01.132 0 .084.02.054S.07.015.089.034z"/>
        <path id="di" d="M.07 0c.04 0 .05.04.05.069C.12.098.11.118.09.137c-.02.02-.06.03-.079 0-.02-.03-.01-.059 0-.088C.021.029.041 0 .071 0z"/>
        <path id="dj" d="M.18.004c.02-.01.03 0 .04 0 .02 0 .039.03.049.05 0 .019 0 .038-.01.058-.01.02-.02.03-.03.049 0 0 0 .01-.01.01C.21.18.21.19.19.19.18.2.16.21.141.21a.2.2 0 0 1-.108 0 .079.079 0 0 1-.03-.088C.024.044.113.024.18.004z"/>
        <path id="dk" d="M.065.002c.03-.01.06.02.069.049.02.03.02.059.01.088a.197.197 0 0 1-.04.078C.076.247.037.247.017.207A.164.164 0 0 1 .006.09V.08c0-.039.02-.068.06-.078z"/>
        <path id="dl" d="M.154.01c.02-.01.03 0 .04.01.019 0 .029.01.038.029.01.03.01.049 0 .069a.186.186 0 0 1-.068.107c-.04.04-.108.059-.147.01-.04-.049 0-.117.029-.157C.066.058.086.04.115.02.125.01.135.01.144 0l.01.01z"/>
        <path id="dm" d="M.196.005c.04-.02.059.02.069.05 0 .038-.02.078-.05.087C.168.162.119.192.07.221.039.24.009.2 0 .17 0 .134.02.094.049.085c.02-.01.04-.03.059-.04.03-.02.059-.029.088-.039z"/>
        <path id="dn" d="M.158.052c.02-.049.078-.078.108-.02.02.04.03.07.02.108-.01.02-.02.06-.04.088C.206.297.12.336.05.346.02.346 0 .316 0 .297-.008.199.07.101.159.052z"/>
        <path id="do" d="M.113.035C.143.104.045.201.005.113-.024.045.075-.053.113.035z"/>
        <path id="dp" d="M.256.014c.02 0 .039.03.039.049 0 .02 0 .039-.01.059 0 .01-.01.02-.01.029C.255.21.207.249.167.288.137.318.07.376.03.337-.029.288.01.19.05.141A.61.61 0 0 1 .226.004c.01-.01.02 0 .03.01z"/>
        <path id="dq" d="M.255.04c.02.038.03.068.03.107 0 .049-.03.088-.05.127C.196.324.118.382.06.362.019.352 0 .304 0 .264 0 .225.02.196.04.157A.305.305 0 0 1 .107.069a.26.26 0 0 1 .059-.05C.197 0 .235-.02.255.04z"/>
        <path id="dr" d="M.26.01c.01.01.01.01.01.02C.3.107.231.175.182.224c-.04.03-.098.059-.147.05-.04-.01-.04-.06-.03-.089C.035.078.123.04.211 0c.02 0 .04 0 .05.01z"/>
        <path id="ds" d="M.113.03C.143.097.044.195.005.106-.025.05.084-.049.113.03z"/>
        <path id="dt" d="M.113.033C.143.102.045.2.005.112-.024.053.075-.055.113.033z"/>
        <path id="du" d="M.206.002c.04-.01.059.02.069.049 0 .01 0 .03-.01.04 0 .019-.01.038-.02.058-.01.02-.03.049-.059.059-.02.01-.039.029-.068.029H.039C.02.237.01.207 0 .188.01.07.128.031.206.002z"/>
        <path id="dv" d="M.35.035C.37.084.323.152.283.152c.01.01.01.02.01.03.01.01.01.019.01.029 0 .03-.01.068-.04.088-.019.03-.048.04-.078.059a.34.34 0 0 1-.127.03C-.032.377-.003.25.047.21.067.19.096.19.125.18c.02-.01.03-.01.05-.01.019 0 .039-.01.048-.019h.03c0-.01-.01-.01-.01-.02C.213.044.322-.054.351.035z"/>
        <path id="dw" d="M.221.004c.03-.01.059 0 .069.029.01.01 0 .03 0 .049 0 .02-.01.04-.01.059A.203.203 0 0 1 .22.239a.292.292 0 0 1-.167.117C.034.356.015.336.005.317-.015.248.025.18.074.131A.312.312 0 0 1 .22.004z"/>
    </defs>
</svg>
