<svg xmlns="http://www.w3.org/2000/svg" xmlns:xlink="http://www.w3.org/1999/xlink" width="132" height="60" viewBox="0 0 132 60">
    <g fill="none" data-name="Splash Logo">
        <use fill="url(#b)" data-name="Tellyou" transform="translate(120.151 20.533)" xlink:href="#a"/>
        <use fill="#FF6B01" data-name="Tellyou" transform="translate(115.234 20.533)" xlink:href="#c"/>
        <use fill="url(#e)" data-name="Tellyou" transform="translate(20.1 20.533)" xlink:href="#d"/>
        <use fill="url(#g)" data-name="Tellyou" transform="translate(37.965)" xlink:href="#f"/>
        <use fill="url(#i)" data-name="Tellyou" transform="translate(43.317)" xlink:href="#h"/>
        <use fill="url(#j)" data-name="Tellyou" transform="translate(52.705)" xlink:href="#f"/>
        <use fill="url(#k)" data-name="Tellyou" transform="translate(58.056)" xlink:href="#h"/>
        <use fill="url(#m)" data-name="Tellyou" transform="translate(63.87 20.533)" xlink:href="#l"/>
        <use fill="#FF6B01" data-name="Tellyou" transform="translate(66.103 20.533)" xlink:href="#c"/>
        <use fill="#FF6B00" data-name="Tellyou" transform="translate(0 4.017)" xlink:href="#n"/>
        <g data-name="Icon 2.2">
            <use fill="url(#p)" data-name="Vector" transform="translate(86.202 12.498)" xlink:href="#o"/>
            <use fill="#fff" data-name="Polygon" transform="rotate(90 45.93 62.467)" xlink:href="#q"/>
        </g>
    </g>
    <defs>
        <linearGradient id="b" x2="1" gradientTransform="matrix(-5.80639 -.66956 .39308 -3.40461 4.713 17.102)" gradientUnits="userSpaceOnUse">
            <stop stop-color="#FF6B01"/>
            <stop offset="1" stop-color="#C95200"/>
        </linearGradient>
        <linearGradient id="e" x2="1" gradientTransform="matrix(7.36965 4.46375 -4.63715 7.64667 13.485 8.898)" gradientUnits="userSpaceOnUse">
            <stop stop-color="#FF6B00"/>
            <stop offset="1" stop-color="#D15B00"/>
        </linearGradient>
        <linearGradient id="g" x2="1" gradientTransform="matrix(7.59297 9.37389 -3.97018 3.21202 11.365 26.07)" gradientUnits="userSpaceOnUse">
            <stop stop-color="#FF6B00"/>
            <stop offset="1" stop-color="#B34000"/>
        </linearGradient>
        <linearGradient id="i" x2="1" gradientTransform="matrix(-6.19101 6.93173 -2.2803 -2.08289 6.603 24.073)" gradientUnits="userSpaceOnUse">
            <stop stop-color="#FF6B00"/>
            <stop offset="1" stop-color="#D95F00"/>
        </linearGradient>
        <linearGradient id="j" x2="1" gradientTransform="matrix(7.59297 9.37389 -3.97018 3.21202 11.365 26.07)" gradientUnits="userSpaceOnUse">
            <stop stop-color="#FF6B01"/>
            <stop offset="1" stop-color="#BA4D00"/>
        </linearGradient>
        <linearGradient id="k" x2="1" gradientTransform="matrix(-6.19101 6.93173 -2.2803 -2.08289 6.603 24.073)" gradientUnits="userSpaceOnUse">
            <stop stop-color="#FF6B01"/>
            <stop offset="1" stop-color="#D65700"/>
        </linearGradient>
        <linearGradient id="m" x2="1" gradientTransform="matrix(14.2927 6.24926 -4.01932 9.18147 8.04 11.925)" gradientUnits="userSpaceOnUse">
            <stop stop-color="#D15800"/>
            <stop offset=".26" stop-color="#FF6B01"/>
            <stop offset=".686" stop-color="#FF6B01"/>
            <stop offset=".97" stop-color="#B34A00"/>
        </linearGradient>
        <linearGradient id="p" x2="1" gradientTransform="matrix(0 29.0144 -28.5853 0 28.585 0)" gradientUnits="userSpaceOnUse">
            <stop stop-color="#FF6B01"/>
            <stop offset="1" stop-color="#F06400"/>
        </linearGradient>
        <path id="a" d="M.443 13.67c.143.228.372.343.686.343.43 0 .972-.429 1.63-1.286.657-.886 1.343-2.2 2.058-3.942.743-1.772 1.443-3.9 2.1-6.385.23-.857.573-1.472 1.03-1.843C8.433.186 9.147 0 10.091 0c.629 0 1.072.171 1.33.514.285.314.428.8.428 1.457 0 .714-.057 1.514-.172 2.4a119.56 119.56 0 0 1-.386 2.657 120.57 120.57 0 0 0-.686 5.013c-.171 1.486-.257 3.186-.257 5.1 0 1.085-.229 1.871-.686 2.357-.429.457-1.143.685-2.144.685-1.057 0-1.8-.271-2.23-.814-.4-.571-.6-1.657-.6-3.257 0-.314.029-1.014.086-2.1-.486 2-1.215 3.529-2.187 4.586-.268-.248-1.92-.966-2.367-2.305-.455-1.366-.074-2.753 0-3.348 0 0 .08.496.223.725z"/>
        <path id="c" d="M4.46 20.183c-1.344 0-2.43-.543-3.26-1.628C.4 17.44 0 15.912 0 13.97c0-2.143.143-4.1.429-5.871.286-1.8.757-3.7 1.415-5.7.286-.856.686-1.47 1.2-1.842C3.56.186 4.374 0 5.488 0c.63 0 1.058.1 1.287.3.257.2.386.5.386.9 0 .228-.158 1-.472 2.314a44.74 44.74 0 0 0-.686 2.871c-.572 3-.858 5-.858 6 0 .783-.09 2.212.438 3.461.529 1.25 1.355 2.281 1.92 2.752-.943 1.057-1.957 1.585-3.044 1.585z"/>
        <path id="d" d="M19.767 10.413c.371 0 .657.171.857.514.229.343.343.815.343 1.414 0 1.143-.271 2.029-.814 2.657-1.058 1.286-2.559 2.471-4.502 3.557a12.318 12.318 0 0 1-6.175 1.628c-3.001 0-5.331-.814-6.99-2.442C.83 16.112 0 13.884 0 11.056c0-1.971.414-3.8 1.243-5.485.83-1.714 1.973-3.071 3.43-4.071C6.16.5 7.834 0 9.69 0c1.658 0 2.988.5 3.988 1.5 1 .971 1.5 2.3 1.5 3.985 0 1.971-.714 3.671-2.143 5.1-1.4 1.4-3.788 2.513-7.16 3.342.714 1.314 2.072 1.971 4.073 1.971 1.286 0 2.744-.443 4.373-1.328a14.708 14.708 0 0 0 4.288-3.557c.343-.4.729-.6 1.158-.6zM8.96 4.199c-1.057 0-1.958.615-2.7 1.843-.715 1.229-1.073 2.714-1.073 4.457v.085c1.687-.4 3.016-1 3.988-1.8S10.634 7.057 10.634 6c0-.543-.158-.971-.472-1.285-.286-.343-.686-.515-1.2-.515z"/>
        <path id="f" d="M15.95 30.725c.372 0 .658.171.858.514.229.343.343.814.343 1.414 0 1.143-.271 2.029-.814 2.657-1.23 1.514-2.573 2.757-4.031 3.728-1.43.972-3.059 1.457-4.888 1.457-2.516 0-4.388-1.142-5.617-3.428C.6 34.782 0 31.825 0 28.197c0-3.486.443-7.457 1.33-11.913.914-4.457 2.243-8.285 3.987-11.485C7.089 1.6 9.19 0 11.62 0c1.372 0 2.444.643 3.216 1.928.8 1.257 1.2 3.071 1.2 5.443 0 3.4-.943 7.341-2.83 11.827-1.886 4.485-4.445 8.927-7.675 13.327.2 1.171.53 2.014.986 2.528.458.486 1.058.729 1.801.729 1.172 0 2.201-.33 3.088-.986.886-.686 2.015-1.843 3.387-3.471.343-.4.729-.6 1.158-.6zM10.678 4.242c-.658 0-1.401 1.186-2.23 3.557s-1.558 5.314-2.187 8.828c-.629 3.514-.972 6.885-1.029 10.113 2.03-3.343 3.645-6.685 4.845-10.028 1.2-3.37 1.801-6.442 1.801-9.213 0-2.171-.4-3.257-1.2-3.257z"/>
        <path id="h" d="M.007 4.687C1.762 1.48 3.95 0 6.354 0c1.359 0 2.42.644 3.184 1.932.793 1.26 1.189 3.077 1.189 5.452 0 3.406-.934 7.356-2.802 11.85-1.868 4.493-4.496 8.944-7.694 13.351 0 0-.148-1.866-.202-3.07C-.02 28.453.007 26.56.007 26.56c2.01-3.348 3.63-6.467 4.819-9.816 1.189-3.377 1.783-6.454 1.783-9.23 0-2.175-.396-3.263-1.189-3.263-.65 0-1.912.963-2.733 3.338L.007 4.687z"/>
        <path id="l" d="M24.183 10.499c.372 0 .658.185.858.557.228.343.343.786.343 1.328 0 .657-.1 1.171-.3 1.543-.2.371-.515.7-.944.986l-8.232 5.527c-1.086 5.914-2.516 10.556-4.288 13.927-1.744 3.4-3.973 5.1-6.689 5.1-1.458 0-2.644-.457-3.559-1.371C.457 37.21 0 36.038 0 34.581c0-1.343.3-2.714.9-4.114.63-1.4 1.773-3.014 3.43-4.843 1.687-1.8 4.06-3.87 7.118-6.213l.129-.986c.2-1.057.429-2.57.686-4.542-.572 2.057-1.372 3.628-2.401 4.714-1.03 1.057-2.115 1.585-3.259 1.585-1.286 0-2.344-.585-3.173-1.757-.8-1.2-1.2-2.685-1.2-4.456 0-2.143.143-4.1.428-5.871.286-1.8.758-3.7 1.415-5.7C4.36 1.544 4.76.93 5.274.558 5.789.186 6.604 0 7.718 0c.629 0 1.058.1 1.286.3.258.2.386.5.386.9 0 .228-.157 1-.471 2.314a44.738 44.738 0 0 0-.686 2.871 95.303 95.303 0 0 0-.6 3.385c-.172 1.057-.258 1.929-.258 2.614 0 1.086.3 1.629.9 1.629.43 0 .958-.429 1.587-1.286.657-.857 1.343-2.157 2.058-3.9.743-1.742 1.458-3.885 2.144-6.427.229-.857.572-1.472 1.029-1.843.486-.371 1.2-.557 2.144-.557.657 0 1.115.086 1.372.257.257.172.386.457.386.857 0 .714-.372 3.171-1.115 7.37l-1.115 6.9a123.328 123.328 0 0 1 6.432-4.542c.372-.229.7-.343.986-.343zM5.403 35.31c.714 0 1.515-.828 2.4-2.485.887-1.657 1.773-4.414 2.66-8.27C8.26 26.41 6.66 28.096 5.66 29.61c-.972 1.542-1.458 2.885-1.458 4.028 0 .485.086.886.257 1.2.2.314.515.471.944.471z"/>
        <path id="n" d="M34.56.728c.886.172 1.543.472 1.972.9.457.429.686.929.686 1.5 0 .943-.272 1.629-.815 2.057-.514.429-1.343.6-2.486.514-2.573-.2-4.589-.328-6.046-.385-1.43-.086-3.316-.143-5.66-.172a483.718 483.718 0 0 0-2.916 15.855c-.314 1.943-.643 4.2-.986 6.771-.343 2.543-.572 4.6-.686 6.17-.057.83-.4 1.472-1.03 1.93-.628.428-1.386.642-2.272.642-.943 0-1.672-.229-2.187-.686-.514-.457-.771-1.057-.771-1.8 0-.685.1-1.813.3-3.385.229-1.6.486-3.27.772-5.014.314-1.742.557-3.256.729-4.542.314-2.171.671-4.328 1.072-6.47.4-2.143.8-4.171 1.2-6.085.086-.429.186-.915.3-1.457.115-.572.243-1.2.386-1.886-2.801.086-5.002.314-6.603.686-1.6.371-2.744.9-3.43 1.585-.658.657-.987 1.514-.987 2.571 0 .972.286 1.9.858 2.786.114.2.172.414.172.643 0 .542-.33 1.057-.987 1.542-.629.457-1.286.686-1.972.686-.486 0-.886-.143-1.2-.429C1.4 14.77.928 14.084.556 13.198.186 12.284 0 11.256 0 10.113c0-2.428.786-4.37 2.358-5.828C3.96 2.8 6.375 1.715 9.605 1.028 12.863.343 17.037 0 22.125 0c3.144 0 5.646.057 7.504.171 1.886.115 3.53.3 4.93.557z"/>
        <path id="o" d="M0 29.014l2.458-7.485a14.348 14.348 0 0 1-1.965-7.272C.493 6.383 6.782 0 14.539 0c7.758 0 14.046 6.383 14.046 14.257S22.297 28.514 14.54 28.514c-2.36 0-4.583-.594-6.535-1.637L0 29.014z"/>
        <path id="q" d="M9.723.967a1 1 0 0 1 1.557 0l7.006 8.7a1 1 0 0 1-.78 1.627H3.497a1 1 0 0 1-.779-1.627l7.006-8.7z"/>
    </defs>
</svg>
