<svg xmlns="http://www.w3.org/2000/svg" width="59" height="60" viewBox="0 0 59 60">
    <g fill="none" data-name="Group">
        <path fill="#E0E0E0" d="M24.46 44.97l-6.952 6.952a7.371 7.371 0 0 1-10.43 0 7.373 7.373 0 0 1 0-10.428l13.906-13.907a7.373 7.373 0 0 1 10.428 0 2.458 2.458 0 0 0 3.477-3.476c-4.8-4.8-12.581-4.8-17.381 0L3.6 38.018c-4.8 4.8-4.8 12.58 0 17.38 4.8 4.803 12.58 4.803 17.383 0l6.953-6.952a2.458 2.458 0 1 0-3.477-3.476z" data-name="Vector"/>
        <path fill="#E0E0E0" d="M55.399 20.982c4.8-4.8 4.8-12.581 0-17.381-4.8-4.8-12.58-4.8-17.383 0l-8.342 8.34a2.458 2.458 0 1 0 3.477 3.477l8.341-8.34a7.376 7.376 0 0 1 10.43 0 7.373 7.373 0 0 1 0 10.427L36.626 32.801a7.373 7.373 0 0 1-10.427 0 2.458 2.458 0 0 0-3.477 3.476c4.8 4.8 12.581 4.8 17.381 0l15.296-15.295zM45.99 42.513a2.458 2.458 0 0 0-3.476 3.476l7.372 7.373a2.459 2.459 0 0 0 3.477-3.477l-7.373-7.372zM13.015 16.491a2.459 2.459 0 0 0 3.476-3.476l-7.38-7.38A2.458 2.458 0 0 0 5.635 9.11l7.38 7.38zM56.542 36.875h-7.375a2.458 2.458 0 1 0 0 4.916h7.375a2.458 2.458 0 1 0 0-4.916zM19.667 12.292c1.357 0 2.458-1.101 2.458-2.459V2.458a2.458 2.458 0 1 0-4.917 0v7.375c0 1.358 1.101 2.459 2.459 2.459zM2.458 22.125h7.375a2.458 2.458 0 1 0 0-4.917H2.458a2.458 2.458 0 1 0 0 4.917zM39.333 46.708a2.458 2.458 0 0 0-2.458 2.458v7.375a2.458 2.458 0 0 0 4.917 0v-7.375c0-1.357-1.101-2.458-2.459-2.458z" data-name="Vector"/>
    </g>
</svg>
