<svg xmlns="http://www.w3.org/2000/svg" xmlns:xlink="http://www.w3.org/1999/xlink" width="133" height="89" viewBox="0 0 133 89">
    <desc>
        Created using Figma
    </desc>
    <use fill="#E0E0E0" transform="translate(28)" xlink:href="#a"/>
    <use fill="#E0E0E0" transform="translate(44.92 12.3)" xlink:href="#b"/>
    <use fill="#E0E0E0" transform="translate(87.97 23.12)" xlink:href="#c"/>
    <use fill="#E0E0E0" transform="translate(39.09 61.51)" xlink:href="#d"/>
    <use fill="#E0E0E0" transform="translate(89.51 11.09)" xlink:href="#e"/>
    <use fill="#E0E0E0" transform="translate(97.2 17)" xlink:href="#f"/>
    <g fill="#E0E0E0" transform="translate(0 5.5)">
        <use xlink:href="#g"/>
        <use xlink:href="#h"/>
        <use xlink:href="#i"/>
        <use xlink:href="#j"/>
        <use xlink:href="#k"/>
        <use xlink:href="#l"/>
        <use xlink:href="#m"/>
        <use xlink:href="#n"/>
        <use xlink:href="#o"/>
        <use xlink:href="#p"/>
    </g>
    <defs>
        <path id="a" d="M75.966 13.034C67.561 4.629 56.386 0 44.5 0 32.614 0 21.439 4.629 13.034 13.034 4.629 21.439 0 32.614 0 44.5c0 11.886 4.629 23.061 13.034 31.466C21.439 84.371 32.614 89 44.5 89c11.886 0 23.061-4.629 31.466-13.034C84.371 67.561 89 56.386 89 44.5c0-11.886-4.629-23.061-13.034-31.466zm-2.038 60.893c-7.861 7.86-18.312 12.19-29.428 12.19s-21.567-4.33-29.428-12.19C7.212 66.067 2.883 55.617 2.883 44.5c0-11.116 4.33-21.567 12.19-29.428 7.86-7.86 18.31-12.189 29.427-12.189 11.116 0 21.567 4.33 29.427 12.19 7.86 7.86 12.19 18.31 12.19 29.427 0 11.116-4.33 21.567-12.19 29.427z"/>
        <path id="b" d="M50.818 20.115a1.442 1.442 0 0 0-.719 1.907 24.506 24.506 0 0 1 2.186 10.176c0 8.917-4.838 17.114-12.494 21.475V1.442a1.441 1.441 0 0 0-2.42-1.06c-1.424 1.315-2.64 2.994-3.678 4.913a27.747 27.747 0 0 0-7.743-.632V1.442a1.442 1.442 0 1 0-2.883 0v3.543a27.337 27.337 0 0 0-3.268.749V1.442a1.442 1.442 0 1 0-2.883 0V6.76a27.51 27.51 0 0 0-3.268 1.64v-6.96a1.442 1.442 0 1 0-2.883 0v8.91C4.222 15.399 0 23.314 0 32.198c0 7.35 2.858 14.266 8.046 19.472.282.282.652.424 1.021.424a1.442 1.442 0 0 0 1.021-2.46 24.543 24.543 0 0 1-7.205-17.436c0-7.128 3.036-13.56 7.882-18.072v5.77a4.525 4.525 0 0 0 3.075 4.28v35.702a4.522 4.522 0 0 0 4.518 4.517 4.522 4.522 0 0 0 4.517-4.517v-.5a27.818 27.818 0 0 0 7.88.222v.278a4.522 4.522 0 0 0 4.518 4.517 4.522 4.522 0 0 0 4.517-4.517v-2.939C49.163 52.31 55.17 42.7 55.17 32.198c0-3.961-.822-7.784-2.443-11.365a1.44 1.44 0 0 0-1.908-.718zM23.067 7.912v7.466h-3.268V8.755c1.06-.353 2.15-.635 3.268-.843zm-6.151 2.01v5.456h-3.268v-3.563a24.713 24.713 0 0 1 3.268-1.893zm3.075 49.956c0 .9-.733 1.634-1.633 1.634a1.636 1.636 0 0 1-1.634-1.634V22.971c0-.797-.646-1.442-1.442-1.442a1.636 1.636 0 0 1-1.634-1.634v-1.634h9.419v1.634c0 .901-.733 1.634-1.634 1.634-.796 0-1.442.645-1.442 1.442v36.907zm7.593-2.98a24.9 24.9 0 0 1-4.71-.45V24.176a4.525 4.525 0 0 0 3.076-4.282V7.552a24.897 24.897 0 0 1 6.467.42c-5.174 12.296-4.762 30.975-4.736 31.953.02.78.66 1.404 1.441 1.404h1.634v15.367c-1.049.134-2.11.203-3.172.203zm9.323 2.98c0 .9-.733 1.634-1.634 1.634-.9 0-1.634-.733-1.634-1.634V39.887c0-.797-.645-1.442-1.441-1.442H30.55c0-2.5.104-8.038.867-14.142 1.038-8.309 2.914-14.706 5.49-18.812v54.387z"/>
        <path id="c" d="M.508 2.54a24.881 24.881 0 0 1 2.853 2.853 1.44 1.44 0 0 0 2.032.166c.607-.516.681-1.426.166-2.032A27.808 27.808 0 0 0 2.375.343 1.442 1.442 0 0 0 .508 2.54z"/>
        <path id="d" d="M16.225 14.017A35.605 35.605 0 0 1 2.69.72 1.442 1.442 0 0 0 .194 2.164a38.487 38.487 0 0 0 14.631 14.374 1.441 1.441 0 0 0 1.4-2.521z"/>
        <path id="e" d="M.72 2.69a35.618 35.618 0 0 1 2.952 1.909 1.44 1.44 0 0 0 2.012-.329 1.442 1.442 0 0 0-.328-2.012A38.597 38.597 0 0 0 2.164.194 1.442 1.442 0 0 0 .72 2.69z"/>
        <path id="f" d="M12.816 19.508A38.203 38.203 0 0 0 2.463.424 1.442 1.442 0 0 0 .42 2.459a35.328 35.328 0 0 1 9.575 17.646 1.442 1.442 0 0 0 2.82-.598z"/>
        <path id="g" d="M17 35.5L14.5 38 12 35.5h5z"/>
        <path id="h" d="M15.5 54.5l-3 1.5 3 2v-3.5z"/>
        <path id="i" d="M25.5 68.5l3 5.5-4-1 1-4.5z"/>
        <path id="j" d="M0 74.5l2 2 1-2H0z"/>
        <path id="k" d="M123.5 18.5V22h3l-3-3.5z"/>
        <path id="l" d="M131 8l2 2V8h-2z"/>
        <path id="m" d="M119.5 0v2.5L122 0h-2.5z"/>
        <path id="n" d="M120.833 68.5l1.667 2 1-2h-2.667z"/>
        <path id="o" d="M119.5 81l3 2 1-4-4 2z"/>
        <path id="p" d="M25.5 3.5l1.667 2 1-2H25.5z"/>
    </defs>
</svg>
