<svg xmlns="http://www.w3.org/2000/svg" xmlns:xlink="http://www.w3.org/1999/xlink" width="86" height="86" viewBox="0 0 86 86">
    <desc>
        Created using Figma
    </desc>
    <use fill="#64B3DF" xlink:href="#a"/>
    <use fill="#FF5F5E" transform="translate(18.7 41.13)" xlink:href="#b"/>
    <use fill="#FFE061" transform="translate(29.91 11.22)" xlink:href="#c"/>
    <defs>
        <path id="a" d="M43 0C19.29 0 0 19.29 0 43s19.29 43 43 43 43-19.29 43-43S66.71 0 43 0zm0 82.26C21.35 82.26 3.74 64.65 3.74 43S21.35 3.74 43 3.74 82.26 21.35 82.26 43 64.65 82.26 43 82.26z"/>
        <path id="b" d="M24.304 0C10.904 0 0 10.903 0 24.304a1.87 1.87 0 0 0 3.74 0c0-11.34 9.224-20.565 20.564-20.565 11.341 0 20.566 9.224 20.566 20.565a1.87 1.87 0 0 0 3.739 0C48.609 10.904 37.706 0 24.304 0z"/>
        <path id="c" d="M13.087 0C5.871 0 0 5.87 0 13.087s5.87 13.087 13.087 13.087 13.087-5.87 13.087-13.087C26.174 5.871 20.304 0 13.087 0zm0 22.435c-5.152 0-9.348-4.195-9.348-9.348 0-5.152 4.196-9.348 9.348-9.348 5.152 0 9.348 4.196 9.348 9.348 0 5.152-4.195 9.348-9.348 9.348z"/>
    </defs>
</svg>
