<svg xmlns="http://www.w3.org/2000/svg" xmlns:xlink="http://www.w3.org/1999/xlink" width="50" height="50" viewBox="0 0 50 50">
    <g fill="none" data-name="img_small_no_photo_user">
        <g data-name="Ellipse">
            <circle cx="23" cy="23" r="23" fill="#1A1B1F" transform="translate(2 2)"/>
            <circle cx="23" cy="23" r="24" stroke="#fff" stroke-opacity=".2" stroke-width="2" transform="translate(2 2)"/>
        </g>
        <use fill="#454648" data-name="Vector" transform="translate(13 13)" xlink:href="#a"/>
    </g>
    <defs>
        <path id="a" d="M16.2 14.8C18.5 13.4 20 10.9 20 8c0-4.4-3.6-8-8-8S4 3.6 4 8c0 2.9 1.5 5.4 3.8 6.8-4 1.5-7 5-7.8 9.2h2c1-4.6 5.1-8 10-8s9 3.4 10 8h2c-.8-4.3-3.8-7.8-7.8-9.2zM6 8c0-3.3 2.7-6 6-6s6 2.7 6 6-2.7 6-6 6-6-2.7-6-6z"/>
    </defs>
</svg>
